<svg width="94" height="42" fill="none" xmlns="http://www.w3.org/2000/svg"><path d="M9.137 41h10.707V1.48H11.94L.448 4.73l2.075 8.409 6.614-1.514V41zm34.917.785c11.211 0 18.218-9.306 18.218-20.405 0-11.211-6.95-20.405-18.106-20.405-11.155 0-18.219 9.306-18.219 20.405 0 11.211 6.896 20.405 18.107 20.405zm.112-9.642c-4.372 0-7.287-4.485-7.287-10.763 0-6.39 2.858-10.763 7.175-10.763 4.316 0 7.287 4.54 7.287 10.763 0 6.335-2.803 10.763-7.175 10.763zm21.844 8.995c1.884 0 3.186-1.19 3.186-7.105v-.374h2.258V41h2.687v-9.696h-7.452v1.344c0 5.873-.72 6.26-1.482 6.26-.125 0-.5-.027-.624-.055l-.18 2.064c.208.07.9.221 1.607.221zM75.858 41h7.867v-2.285h-5.208v-1.538h4.654v-2.12h-4.654V33.59h5.14v-2.286h-7.8V41zm11.607 0h2.687v-7.341h2.909v-2.355h-8.505v2.355h2.91V41z" fill="#B4B4B4"/></svg>