<svg width="49" height="48" fill="none" xmlns="http://www.w3.org/2000/svg"><path d="M16.636 41.067h9.622v6.845h-9.622v-6.845zM29.757 21.39c0-5.305-2.974-10.097-7.61-12.663l1.224-1.198 1.138 1.027 1.224-1.198-3.499-3.422-1.224 1.197 1.137 1.113-1.662 1.625C12.788 4.877 4.128 8.556 1.067 16c-3.062 7.443.7 15.914 8.31 18.908 7.61 2.995 16.268-.599 19.33-8.042.7-1.797 1.05-3.594 1.05-5.476zM18.648 9.07c.962.256 1.925.683 2.8 1.197l-.875 1.454a12.29 12.29 0 00-2.45-1.026l.525-1.626zm-1.924-.343l-.263 1.71c-.787-.17-1.574-.17-2.361-.17l-.088-1.711c.875 0 1.837 0 2.712.17zm-4.636.085l.35 1.711c-.875.172-1.662.428-2.45.856l-.787-1.54c.963-.428 1.925-.77 2.887-1.027zm2.799 25.41c-7.26 0-13.12-5.732-13.12-12.833 0-4.192 2.099-8.128 5.598-10.523l.962 1.369a10.96 10.96 0 00-2.8 15.485c3.587 5.048 10.672 6.246 15.833 2.738 3.061-2.053 4.898-5.39 4.898-9.069 0-2.652-.962-5.219-2.624-7.272L11.388 26.095l-4.111-4.021 1.224-1.198 2.887 2.823 12.246-11.978.612.6c2.45 2.395 3.761 5.646 3.761 9.068 0 7.101-5.86 12.834-13.12 12.834z" fill="#B4B4B4"/><path d="M16.636 39.356h9.622v-6.16c-2.624 2.481-6.035 3.936-9.622 4.364v1.796zM12.263 1.711h5.248c.525 0 .875-.342.875-.855 0-.514-.35-.856-.875-.856h-5.248c-.525 0-.875.342-.875.856 0 .513.35.855.875.855zm2.624 3.423c.262 0 .612 0 .875.085V3.422h-1.75V5.22c.263-.085.612-.085.875-.085zm13.12 35.933h9.622v6.845h-9.622v-6.845zM5.265 47.056c0 .514.35.856.875.856h8.747v-6.845H5.265v5.99zm0-7.7h9.622v-1.711c-3.411 0-6.823-1.027-9.622-2.995v4.706zM31.506 21.39c0 .256 0 .598-.087.855h6.21V15.4h-7.347a15.614 15.614 0 011.224 5.99zm7.872 2.566H49V30.8h-9.622v-6.844zm0 8.555H49v6.845h-9.622v-6.845zm0-17.111H49v6.845h-9.622V15.4zm8.747-5.133h-1.749V6.845h-1.75v3.422h-1.749V6.845h-1.75v3.422h-14.17c.963 1.027 1.838 2.139 2.537 3.422H49v-2.566c0-.514-.35-.856-.875-.856zM28.007 32.511h9.622v6.845h-9.622v-6.845zm.438-1.711h9.184v-6.844h-6.385c-.35 2.48-1.313 4.791-2.8 6.844zm10.933 17.112h8.747c.525 0 .875-.342.875-.856v-5.989h-9.622v6.845z" fill="#B4B4B4"/></svg>