<svg width="50" height="43" fill="none" xmlns="http://www.w3.org/2000/svg"><path d="M49.6.887H0v35.264h30.011v-3.566c-1.679-1.545-2.73-3.737-2.73-6.164 0-4.667 3.883-8.465 8.654-8.465 4.772 0 8.654 3.798 8.654 8.465 0 2.427-1.05 4.62-2.73 6.164v3.566h7.74V.887zm-10.18 5.69v2.842H10.179V6.577h29.243zM5.817 24.772v-2.843h14.136v2.843H5.816zm14.136 2.847v2.843H5.816v-2.843h14.136zm23.831-12.51H5.816v-2.842h37.967v2.842z" fill="#B4B4B4"/><path d="M38.953 42.219v-7.865a8.789 8.789 0 01-3.018.531 8.786 8.786 0 01-3.017-.531v7.865l3.017-1.442 3.018 1.442zm-8.765-15.798c0 3.1 2.578 5.622 5.747 5.622 3.17 0 5.748-2.522 5.748-5.622S39.105 20.8 35.935 20.8c-3.169 0-5.747 2.522-5.747 5.622z" fill="#B4B4B4"/></svg>