<svg width="23" height="4" viewBox="0 0 23 4" fill="none" xmlns="http://www.w3.org/2000/svg">
<path d="M0.0115301 2.10778C0.0374757 2.2211 0.0634233 2.31176 0.167208 2.35709L2.3467 3.92093C2.50238 4.05692 2.76184 4.01159 2.89157 3.83027C3.02131 3.64896 2.96941 3.39965 2.78779 3.26366L1.64615 2.42508L22.6108 2.42509C22.8184 2.44775 23 2.26644 23 2.01713C23 1.76782 22.8184 1.58651 22.6108 1.58651L1.64615 1.5865L2.78779 0.747923C2.96941 0.611937 3.02131 0.36263 2.89158 0.181315C2.81374 0.0679935 2.68401 1.31268e-07 2.58022 1.22195e-07C2.50238 1.1539e-07 2.42454 0.0226647 2.3467 0.0679935L0.167208 1.63183C0.089369 1.69982 0.0374758 1.79048 0.0115301 1.88114C0.0115301 1.9038 0.0115301 1.94913 0.0115301 1.9718C0.0115301 2.03979 -0.0144156 2.08512 0.0115301 2.10778Z" fill="#171717"/>
</svg>
