<svg width="208" height="139" viewBox="0 0 208 139" fill="none" xmlns="http://www.w3.org/2000/svg">
<mask id="mask0" mask-type="alpha" maskUnits="userSpaceOnUse" x="0" y="0" width="208" height="139">
<rect y="0.942383" width="208" height="138" fill="#8D1111"/>
</mask>
<g mask="url(#mask0)">
<line y1="-0.5" x2="1320.86" y2="-0.5" transform="matrix(0.582581 0.812772 -0.906747 0.421675 165.493 -845.058)" stroke="#DBDBDB"/>
<line y1="-0.5" x2="1320.86" y2="-0.5" transform="matrix(0.582581 0.812772 -0.906747 0.421675 160.392 -843.688)" stroke="#DBDBDB"/>
<line y1="-0.5" x2="1320.86" y2="-0.5" transform="matrix(0.582581 0.812772 -0.906747 0.421675 155.29 -842.318)" stroke="#DBDBDB"/>
<line y1="-0.5" x2="1320.86" y2="-0.5" transform="matrix(0.582581 0.812772 -0.906747 0.421675 150.188 -840.948)" stroke="#DBDBDB"/>
<line y1="-0.5" x2="1320.86" y2="-0.5" transform="matrix(0.582581 0.812772 -0.906747 0.421675 145.087 -839.578)" stroke="#DBDBDB"/>
<line y1="-0.5" x2="1320.86" y2="-0.5" transform="matrix(0.582581 0.812772 -0.906747 0.421675 139.985 -838.209)" stroke="#DBDBDB"/>
<line y1="-0.5" x2="1320.86" y2="-0.5" transform="matrix(0.582581 0.812772 -0.906747 0.421675 134.883 -836.839)" stroke="#DBDBDB"/>
<line y1="-0.5" x2="1320.86" y2="-0.5" transform="matrix(0.582581 0.812772 -0.906747 0.421675 129.782 -835.469)" stroke="#DBDBDB"/>
<line y1="-0.5" x2="1320.86" y2="-0.5" transform="matrix(0.582581 0.812772 -0.906747 0.421675 124.68 -834.099)" stroke="#DBDBDB"/>
<line y1="-0.5" x2="1320.86" y2="-0.5" transform="matrix(0.582581 0.812772 -0.906747 0.421675 119.578 -832.73)" stroke="#DBDBDB"/>
<line y1="-0.5" x2="1320.86" y2="-0.5" transform="matrix(0.582581 0.812772 -0.906747 0.421675 114.477 -831.36)" stroke="#DBDBDB"/>
<line y1="-0.5" x2="1320.86" y2="-0.5" transform="matrix(0.582581 0.812772 -0.906747 0.421675 109.375 -829.99)" stroke="#DBDBDB"/>
<line y1="-0.5" x2="1320.86" y2="-0.5" transform="matrix(0.582581 0.812772 -0.906747 0.421675 104.273 -828.62)" stroke="#DBDBDB"/>
<line y1="-0.5" x2="1320.86" y2="-0.5" transform="matrix(0.582581 0.812772 -0.906747 0.421675 99.1715 -827.251)" stroke="#DBDBDB"/>
<line y1="-0.5" x2="1320.86" y2="-0.5" transform="matrix(0.582581 0.812772 -0.906747 0.421675 94.0697 -825.881)" stroke="#DBDBDB"/>
<line y1="-0.5" x2="1320.86" y2="-0.5" transform="matrix(0.582581 0.812772 -0.906747 0.421675 88.968 -824.511)" stroke="#DBDBDB"/>
<line y1="-0.5" x2="1320.86" y2="-0.5" transform="matrix(0.582581 0.812772 -0.906747 0.421675 83.8665 -823.142)" stroke="#DBDBDB"/>
<line y1="-0.5" x2="1320.86" y2="-0.5" transform="matrix(0.582581 0.812772 -0.906747 0.421675 78.7646 -821.772)" stroke="#DBDBDB"/>
<line y1="-0.5" x2="1320.86" y2="-0.5" transform="matrix(0.582581 0.812772 -0.906747 0.421675 73.6628 -820.402)" stroke="#DBDBDB"/>
<line y1="-0.5" x2="1320.86" y2="-0.5" transform="matrix(0.582581 0.812772 -0.906747 0.421675 68.5612 -819.032)" stroke="#DBDBDB"/>
<line y1="-0.5" x2="1320.86" y2="-0.5" transform="matrix(0.582581 0.812772 -0.906747 0.421675 63.4595 -817.663)" stroke="#DBDBDB"/>
<line y1="-0.5" x2="1320.86" y2="-0.5" transform="matrix(0.582581 0.812772 -0.906747 0.421675 58.3577 -816.293)" stroke="#DBDBDB"/>
<line y1="-0.5" x2="1320.86" y2="-0.5" transform="matrix(0.582581 0.812772 -0.906747 0.421675 53.2559 -814.923)" stroke="#DBDBDB"/>
<line y1="-0.5" x2="1320.86" y2="-0.5" transform="matrix(0.582581 0.812772 -0.906747 0.421675 48.1544 -813.553)" stroke="#DBDBDB"/>
<line y1="-0.5" x2="1320.86" y2="-0.5" transform="matrix(0.582581 0.812772 -0.906747 0.421675 43.0526 -812.183)" stroke="#DBDBDB"/>
<line y1="-0.5" x2="1320.86" y2="-0.5" transform="matrix(0.582581 0.812772 -0.906747 0.421675 37.9509 -810.814)" stroke="#DBDBDB"/>
<line y1="-0.5" x2="1320.86" y2="-0.5" transform="matrix(0.582581 0.812772 -0.906747 0.421675 32.8492 -809.444)" stroke="#DBDBDB"/>
<line y1="-0.5" x2="1320.86" y2="-0.5" transform="matrix(0.582581 0.812772 -0.906747 0.421675 27.7476 -808.074)" stroke="#DBDBDB"/>
<line y1="-0.5" x2="1320.86" y2="-0.5" transform="matrix(0.582581 0.812772 -0.906747 0.421675 22.6459 -806.704)" stroke="#DBDBDB"/>
<line y1="-0.5" x2="1320.86" y2="-0.5" transform="matrix(0.582581 0.812772 -0.906747 0.421675 17.5442 -805.335)" stroke="#DBDBDB"/>
<line y1="-0.5" x2="1320.86" y2="-0.5" transform="matrix(0.582581 0.812772 -0.906747 0.421675 12.4425 -803.965)" stroke="#DBDBDB"/>
<line y1="-0.5" x2="1320.86" y2="-0.5" transform="matrix(0.582581 0.812772 -0.906747 0.421675 7.34058 -802.595)" stroke="#DBDBDB"/>
<line y1="-0.5" x2="1320.86" y2="-0.5" transform="matrix(0.582581 0.812772 -0.906747 0.421675 2.23914 -801.225)" stroke="#DBDBDB"/>
<line y1="-0.5" x2="1320.86" y2="-0.5" transform="matrix(0.582581 0.812772 -0.906747 0.421675 -2.86279 -799.855)" stroke="#DBDBDB"/>
<line y1="-0.5" x2="1320.86" y2="-0.5" transform="matrix(0.582581 0.812772 -0.906747 0.421675 -7.96436 -798.486)" stroke="#DBDBDB"/>
<line y1="-0.5" x2="1320.86" y2="-0.5" transform="matrix(0.582581 0.812772 -0.906747 0.421675 -13.066 -797.116)" stroke="#DBDBDB"/>
<line y1="-0.5" x2="1320.86" y2="-0.5" transform="matrix(0.582581 0.812772 -0.906747 0.421675 -18.1677 -795.746)" stroke="#DBDBDB"/>
<line y1="-0.5" x2="1320.86" y2="-0.5" transform="matrix(0.582581 0.812772 -0.906747 0.421675 -23.2695 -794.376)" stroke="#DBDBDB"/>
<line y1="-0.5" x2="1320.86" y2="-0.5" transform="matrix(0.582581 0.812772 -0.906747 0.421675 -28.3711 -793.007)" stroke="#DBDBDB"/>
<line y1="-0.5" x2="1320.86" y2="-0.5" transform="matrix(0.582581 0.812772 -0.906747 0.421675 -33.4728 -791.637)" stroke="#DBDBDB"/>
<line y1="-0.5" x2="1320.86" y2="-0.5" transform="matrix(0.582581 0.812772 -0.906747 0.421675 -38.5747 -790.267)" stroke="#DBDBDB"/>
<line y1="-0.5" x2="1320.86" y2="-0.5" transform="matrix(0.582581 0.812772 -0.906747 0.421675 -43.6763 -788.897)" stroke="#DBDBDB"/>
<line y1="-0.5" x2="1320.86" y2="-0.5" transform="matrix(0.582581 0.812772 -0.906747 0.421675 -48.778 -787.528)" stroke="#DBDBDB"/>
<line y1="-0.5" x2="1320.86" y2="-0.5" transform="matrix(0.582581 0.812772 -0.906747 0.421675 -53.8798 -786.158)" stroke="#DBDBDB"/>
<line y1="-0.5" x2="1320.86" y2="-0.5" transform="matrix(0.582581 0.812772 -0.906747 0.421675 -58.9813 -784.788)" stroke="#DBDBDB"/>
<line y1="-0.5" x2="1320.86" y2="-0.5" transform="matrix(0.582581 0.812772 -0.906747 0.421675 -64.083 -783.418)" stroke="#DBDBDB"/>
<line y1="-0.5" x2="1320.86" y2="-0.5" transform="matrix(0.582581 0.812772 -0.906747 0.421675 -69.1848 -782.048)" stroke="#DBDBDB"/>
<line y1="-0.5" x2="1320.86" y2="-0.5" transform="matrix(0.582581 0.812772 -0.906747 0.421675 -74.2864 -780.679)" stroke="#DBDBDB"/>
<line y1="-0.5" x2="1320.86" y2="-0.5" transform="matrix(0.582581 0.812772 -0.906747 0.421675 -79.3882 -779.309)" stroke="#DBDBDB"/>
<line y1="-0.5" x2="1320.86" y2="-0.5" transform="matrix(0.582581 0.812772 -0.906747 0.421675 -84.4899 -777.939)" stroke="#DBDBDB"/>
<line y1="-0.5" x2="1320.86" y2="-0.5" transform="matrix(0.582581 0.812772 -0.906747 0.421675 -89.5916 -776.569)" stroke="#DBDBDB"/>
<line y1="-0.5" x2="1320.86" y2="-0.5" transform="matrix(0.582581 0.812772 -0.906747 0.421675 -94.6935 -775.2)" stroke="#DBDBDB"/>
<line y1="-0.5" x2="1320.86" y2="-0.5" transform="matrix(0.582581 0.812772 -0.906747 0.421675 -99.7949 -773.83)" stroke="#DBDBDB"/>
<line y1="-0.5" x2="1320.86" y2="-0.5" transform="matrix(0.582581 0.812772 -0.906747 0.421675 -104.897 -772.46)" stroke="#DBDBDB"/>
<line y1="-0.5" x2="1320.86" y2="-0.5" transform="matrix(0.582581 0.812772 -0.906747 0.421675 -109.999 -771.09)" stroke="#DBDBDB"/>
<line y1="-0.5" x2="1320.86" y2="-0.5" transform="matrix(0.582581 0.812772 -0.906747 0.421675 -115.1 -769.721)" stroke="#DBDBDB"/>
<line y1="-0.5" x2="1320.86" y2="-0.5" transform="matrix(0.582581 0.812772 -0.906747 0.421675 -120.202 -768.351)" stroke="#DBDBDB"/>
<line y1="-0.5" x2="1320.86" y2="-0.5" transform="matrix(0.582581 0.812772 -0.906747 0.421675 -125.304 -766.981)" stroke="#DBDBDB"/>
<line y1="-0.5" x2="1320.86" y2="-0.5" transform="matrix(0.582581 0.812772 -0.906747 0.421675 -130.405 -765.612)" stroke="#DBDBDB"/>
<line y1="-0.5" x2="1320.86" y2="-0.5" transform="matrix(0.582581 0.812772 -0.906747 0.421675 -135.507 -764.242)" stroke="#DBDBDB"/>
<line y1="-0.5" x2="1320.86" y2="-0.5" transform="matrix(0.582581 0.812772 -0.906747 0.421675 -140.609 -762.872)" stroke="#DBDBDB"/>
<line y1="-0.5" x2="1320.86" y2="-0.5" transform="matrix(0.582581 0.812772 -0.906747 0.421675 -145.71 -761.502)" stroke="#DBDBDB"/>
<line y1="-0.5" x2="1320.86" y2="-0.5" transform="matrix(0.582581 0.812772 -0.906747 0.421675 -150.812 -760.132)" stroke="#DBDBDB"/>
<line y1="-0.5" x2="1320.86" y2="-0.5" transform="matrix(0.582581 0.812772 -0.906747 0.421675 -155.914 -758.763)" stroke="#DBDBDB"/>
<line y1="-0.5" x2="1320.86" y2="-0.5" transform="matrix(0.582581 0.812772 -0.906747 0.421675 -161.016 -757.393)" stroke="#DBDBDB"/>
<line y1="-0.5" x2="1320.86" y2="-0.5" transform="matrix(0.582581 0.812772 -0.906747 0.421675 -166.117 -756.023)" stroke="#DBDBDB"/>
<line y1="-0.5" x2="1320.86" y2="-0.5" transform="matrix(0.582581 0.812772 -0.906747 0.421675 -171.219 -754.653)" stroke="#DBDBDB"/>
<line y1="-0.5" x2="1320.86" y2="-0.5" transform="matrix(0.582581 0.812772 -0.906747 0.421675 -176.32 -753.284)" stroke="#DBDBDB"/>
<line y1="-0.5" x2="1320.86" y2="-0.5" transform="matrix(0.582581 0.812772 -0.906747 0.421675 -181.422 -751.914)" stroke="#DBDBDB"/>
<line y1="-0.5" x2="1320.86" y2="-0.5" transform="matrix(0.582581 0.812772 -0.906747 0.421675 -186.524 -750.544)" stroke="#DBDBDB"/>
<line y1="-0.5" x2="1320.86" y2="-0.5" transform="matrix(0.582581 0.812772 -0.906747 0.421675 -191.626 -749.174)" stroke="#DBDBDB"/>
<line y1="-0.5" x2="1320.86" y2="-0.5" transform="matrix(0.582581 0.812772 -0.906747 0.421675 -196.727 -747.804)" stroke="#DBDBDB"/>
<line y1="-0.5" x2="1320.86" y2="-0.5" transform="matrix(0.582581 0.812772 -0.906747 0.421675 -201.829 -746.435)" stroke="#DBDBDB"/>
<line y1="-0.5" x2="1320.86" y2="-0.5" transform="matrix(0.582581 0.812772 -0.906747 0.421675 -206.931 -745.065)" stroke="#DBDBDB"/>
<line y1="-0.5" x2="1320.86" y2="-0.5" transform="matrix(0.582581 0.812772 -0.906747 0.421675 -212.032 -743.695)" stroke="#DBDBDB"/>
<line y1="-0.5" x2="1320.86" y2="-0.5" transform="matrix(0.582581 0.812772 -0.906747 0.421675 -217.134 -742.325)" stroke="#DBDBDB"/>
<line y1="-0.5" x2="1320.86" y2="-0.5" transform="matrix(0.582581 0.812772 -0.906747 0.421675 -222.236 -740.956)" stroke="#DBDBDB"/>
<line y1="-0.5" x2="1320.86" y2="-0.5" transform="matrix(0.582581 0.812772 -0.906747 0.421675 -227.338 -739.586)" stroke="#DBDBDB"/>
<line y1="-0.5" x2="1320.86" y2="-0.5" transform="matrix(0.582581 0.812772 -0.906747 0.421675 -232.439 -738.216)" stroke="#DBDBDB"/>
<line y1="-0.5" x2="1320.86" y2="-0.5" transform="matrix(0.582581 0.812772 -0.906747 0.421675 -237.541 -736.846)" stroke="#DBDBDB"/>
<line y1="-0.5" x2="1320.86" y2="-0.5" transform="matrix(0.582581 0.812772 -0.906747 0.421675 -242.643 -735.477)" stroke="#DBDBDB"/>
<line y1="-0.5" x2="1320.86" y2="-0.5" transform="matrix(0.582581 0.812772 -0.906747 0.421675 -247.744 -734.107)" stroke="#DBDBDB"/>
<line y1="-0.5" x2="1320.86" y2="-0.5" transform="matrix(0.582581 0.812772 -0.906747 0.421675 -252.846 -732.737)" stroke="#DBDBDB"/>
<line y1="-0.5" x2="1320.86" y2="-0.5" transform="matrix(0.582581 0.812772 -0.906747 0.421675 -257.948 -731.367)" stroke="#DBDBDB"/>
<line y1="-0.5" x2="1320.86" y2="-0.5" transform="matrix(0.582581 0.812772 -0.906747 0.421675 -263.049 -729.998)" stroke="#DBDBDB"/>
<line y1="-0.5" x2="1320.86" y2="-0.5" transform="matrix(0.582581 0.812772 -0.906747 0.421675 -268.151 -728.628)" stroke="#DBDBDB"/>
<line y1="-0.5" x2="1320.86" y2="-0.5" transform="matrix(0.582581 0.812772 -0.906747 0.421675 -273.253 -727.258)" stroke="#DBDBDB"/>
<line y1="-0.5" x2="1320.86" y2="-0.5" transform="matrix(0.582581 0.812772 -0.906747 0.421675 -278.354 -725.888)" stroke="#DBDBDB"/>
<line y1="-0.5" x2="1320.86" y2="-0.5" transform="matrix(0.582581 0.812772 -0.906747 0.421675 -283.456 -724.518)" stroke="#DBDBDB"/>
<line y1="-0.5" x2="1320.86" y2="-0.5" transform="matrix(0.582581 0.812772 -0.906747 0.421675 -288.558 -723.149)" stroke="#DBDBDB"/>
<line y1="-0.5" x2="1320.86" y2="-0.5" transform="matrix(0.582581 0.812772 -0.906747 0.421675 -293.66 -721.779)" stroke="#DBDBDB"/>
<line y1="-0.5" x2="1320.86" y2="-0.5" transform="matrix(0.582581 0.812772 -0.906747 0.421675 -298.761 -720.409)" stroke="#DBDBDB"/>
<line y1="-0.5" x2="1320.86" y2="-0.5" transform="matrix(0.582581 0.812772 -0.906747 0.421675 -303.863 -719.039)" stroke="#DBDBDB"/>
<line y1="-0.5" x2="1320.86" y2="-0.5" transform="matrix(0.582581 0.812772 -0.906747 0.421675 -308.965 -717.67)" stroke="#DBDBDB"/>
<line y1="-0.5" x2="1320.86" y2="-0.5" transform="matrix(0.582581 0.812772 -0.906747 0.421675 -314.067 -716.3)" stroke="#DBDBDB"/>
<line y1="-0.5" x2="1320.86" y2="-0.5" transform="matrix(0.582581 0.812772 -0.906747 0.421675 -319.168 -714.93)" stroke="#DBDBDB"/>
<line y1="-0.5" x2="1320.86" y2="-0.5" transform="matrix(0.582581 0.812772 -0.906747 0.421675 -324.27 -713.561)" stroke="#DBDBDB"/>
<line y1="-0.5" x2="1320.86" y2="-0.5" transform="matrix(0.582581 0.812772 -0.906747 0.421675 -329.372 -712.191)" stroke="#DBDBDB"/>
<line y1="-0.5" x2="1320.86" y2="-0.5" transform="matrix(0.582581 0.812772 -0.906747 0.421675 -334.473 -710.821)" stroke="#DBDBDB"/>
<line y1="-0.5" x2="1320.86" y2="-0.5" transform="matrix(0.582581 0.812772 -0.906747 0.421675 -339.575 -709.451)" stroke="#DBDBDB"/>
<line y1="-0.5" x2="1320.86" y2="-0.5" transform="matrix(0.582581 0.812772 -0.906747 0.421675 -344.677 -708.081)" stroke="#DBDBDB"/>
<line y1="-0.5" x2="1320.86" y2="-0.5" transform="matrix(0.582581 0.812772 -0.906747 0.421675 -349.778 -706.711)" stroke="#DBDBDB"/>
<line y1="-0.5" x2="1320.86" y2="-0.5" transform="matrix(0.582581 0.812772 -0.906747 0.421675 -354.88 -705.342)" stroke="#DBDBDB"/>
<line y1="-0.5" x2="1320.86" y2="-0.5" transform="matrix(0.582581 0.812772 -0.906747 0.421675 -359.982 -703.972)" stroke="#DBDBDB"/>
<line y1="-0.5" x2="1320.86" y2="-0.5" transform="matrix(0.582581 0.812772 -0.906747 0.421675 -365.083 -702.602)" stroke="#DBDBDB"/>
<line y1="-0.5" x2="1320.86" y2="-0.5" transform="matrix(0.582581 0.812772 -0.906747 0.421675 -370.185 -701.232)" stroke="#DBDBDB"/>
<line y1="-0.5" x2="1320.86" y2="-0.5" transform="matrix(0.582581 0.812772 -0.906747 0.421675 -375.287 -699.863)" stroke="#DBDBDB"/>
<line y1="-0.5" x2="1320.86" y2="-0.5" transform="matrix(0.582581 0.812772 -0.906747 0.421675 -380.389 -698.493)" stroke="#DBDBDB"/>
<line y1="-0.5" x2="1320.86" y2="-0.5" transform="matrix(0.582581 0.812772 -0.906747 0.421675 -385.49 -697.123)" stroke="#DBDBDB"/>
<line y1="-0.5" x2="1320.86" y2="-0.5" transform="matrix(0.582581 0.812772 -0.906747 0.421675 -390.592 -695.754)" stroke="#DBDBDB"/>
<line y1="-0.5" x2="1320.86" y2="-0.5" transform="matrix(0.582581 0.812772 -0.906747 0.421675 -395.694 -694.384)" stroke="#DBDBDB"/>
<line y1="-0.5" x2="1320.86" y2="-0.5" transform="matrix(0.582581 0.812772 -0.906747 0.421675 -400.796 -693.014)" stroke="#DBDBDB"/>
<line y1="-0.5" x2="1320.86" y2="-0.5" transform="matrix(0.582581 0.812772 -0.906747 0.421675 -405.897 -691.644)" stroke="#DBDBDB"/>
<line y1="-0.5" x2="1320.86" y2="-0.5" transform="matrix(0.582581 0.812772 -0.906747 0.421675 -410.999 -690.274)" stroke="#DBDBDB"/>
<line y1="-0.5" x2="1320.86" y2="-0.5" transform="matrix(0.582581 0.812772 -0.906747 0.421675 -416.101 -688.905)" stroke="#DBDBDB"/>
<line y1="-0.5" x2="1320.86" y2="-0.5" transform="matrix(0.582581 0.812772 -0.906747 0.421675 -421.203 -687.535)" stroke="#DBDBDB"/>
<line y1="-0.5" x2="1320.86" y2="-0.5" transform="matrix(0.582581 0.812772 -0.906747 0.421675 -426.304 -686.165)" stroke="#DBDBDB"/>
<line y1="-0.5" x2="1320.86" y2="-0.5" transform="matrix(0.582581 0.812772 -0.906747 0.421675 -431.406 -684.795)" stroke="#DBDBDB"/>
<line y1="-0.5" x2="1320.86" y2="-0.5" transform="matrix(0.582581 0.812772 -0.906747 0.421675 -436.508 -683.426)" stroke="#DBDBDB"/>
<line y1="-0.5" x2="1320.86" y2="-0.5" transform="matrix(0.582581 0.812772 -0.906747 0.421675 -441.609 -682.056)" stroke="#DBDBDB"/>
<line y1="-0.5" x2="1320.86" y2="-0.5" transform="matrix(0.582581 0.812772 -0.906747 0.421675 -446.711 -680.686)" stroke="#DBDBDB"/>
<line y1="-0.5" x2="1320.86" y2="-0.5" transform="matrix(0.582581 0.812772 -0.906747 0.421675 -451.813 -679.316)" stroke="#DBDBDB"/>
<line y1="-0.5" x2="1320.86" y2="-0.5" transform="matrix(0.582581 0.812772 -0.906747 0.421675 -456.914 -677.946)" stroke="#DBDBDB"/>
<line y1="-0.5" x2="1320.86" y2="-0.5" transform="matrix(0.582581 0.812772 -0.906747 0.421675 -462.016 -676.577)" stroke="#DBDBDB"/>
<line y1="-0.5" x2="1320.86" y2="-0.5" transform="matrix(0.582581 0.812772 -0.906747 0.421675 -467.118 -675.207)" stroke="#DBDBDB"/>
<line y1="-0.5" x2="1320.86" y2="-0.5" transform="matrix(0.582581 0.812772 -0.906747 0.421675 -472.219 -673.837)" stroke="#DBDBDB"/>
<line y1="-0.5" x2="1320.86" y2="-0.5" transform="matrix(0.582581 0.812772 -0.906747 0.421675 -477.321 -672.467)" stroke="#DBDBDB"/>
<line y1="-0.5" x2="1320.86" y2="-0.5" transform="matrix(0.582581 0.812772 -0.906747 0.421675 -482.423 -671.098)" stroke="#DBDBDB"/>
<line y1="-0.5" x2="1320.86" y2="-0.5" transform="matrix(0.582581 0.812772 -0.906747 0.421675 -487.525 -669.728)" stroke="#DBDBDB"/>
<line y1="-0.5" x2="1320.86" y2="-0.5" transform="matrix(0.582581 0.812772 -0.906747 0.421675 -492.626 -668.358)" stroke="#DBDBDB"/>
<line y1="-0.5" x2="1320.86" y2="-0.5" transform="matrix(0.582581 0.812772 -0.906747 0.421675 -497.728 -666.988)" stroke="#DBDBDB"/>
<line y1="-0.5" x2="1320.86" y2="-0.5" transform="matrix(0.582581 0.812772 -0.906747 0.421675 -502.83 -665.619)" stroke="#DBDBDB"/>
<line y1="-0.5" x2="1320.86" y2="-0.5" transform="matrix(0.582581 0.812772 -0.906747 0.421675 -507.931 -664.249)" stroke="#DBDBDB"/>
<line y1="-0.5" x2="1320.86" y2="-0.5" transform="matrix(0.582581 0.812772 -0.906747 0.421675 -513.033 -662.879)" stroke="#DBDBDB"/>
<line y1="-0.5" x2="1320.86" y2="-0.5" transform="matrix(0.582581 0.812772 -0.906747 0.421675 -518.135 -661.509)" stroke="#DBDBDB"/>
<line y1="-0.5" x2="1320.86" y2="-0.5" transform="matrix(0.582581 0.812772 -0.906747 0.421675 -523.237 -660.14)" stroke="#DBDBDB"/>
<line y1="-0.5" x2="1320.86" y2="-0.5" transform="matrix(0.582581 0.812772 -0.906747 0.421675 -528.338 -658.77)" stroke="#DBDBDB"/>
<line y1="-0.5" x2="1320.86" y2="-0.5" transform="matrix(0.582581 0.812772 -0.906747 0.421675 -533.44 -657.4)" stroke="#DBDBDB"/>
<line y1="-0.5" x2="1320.86" y2="-0.5" transform="matrix(0.582581 0.812772 -0.906747 0.421675 -538.542 -656.03)" stroke="#DBDBDB"/>
<line y1="-0.5" x2="1320.86" y2="-0.5" transform="matrix(0.582581 0.812772 -0.906747 0.421675 -543.643 -654.661)" stroke="#DBDBDB"/>
<line y1="-0.5" x2="1320.86" y2="-0.5" transform="matrix(0.582581 0.812772 -0.906747 0.421675 -548.745 -653.291)" stroke="#DBDBDB"/>
<line y1="-0.5" x2="1320.86" y2="-0.5" transform="matrix(0.582581 0.812772 -0.906747 0.421675 -553.847 -651.921)" stroke="#DBDBDB"/>
<line y1="-0.5" x2="1320.86" y2="-0.5" transform="matrix(0.582581 0.812772 -0.906747 0.421675 -558.948 -650.551)" stroke="#DBDBDB"/>
<line y1="-0.5" x2="1320.86" y2="-0.5" transform="matrix(0.582581 0.812772 -0.906747 0.421675 -564.05 -649.182)" stroke="#DBDBDB"/>
<line y1="-0.5" x2="1320.86" y2="-0.5" transform="matrix(0.582581 0.812772 -0.906747 0.421675 -569.152 -647.812)" stroke="#DBDBDB"/>
<line y1="-0.5" x2="1320.86" y2="-0.5" transform="matrix(0.582581 0.812772 -0.906747 0.421675 -574.253 -646.442)" stroke="#DBDBDB"/>
<line y1="-0.5" x2="1320.86" y2="-0.5" transform="matrix(0.582581 0.812772 -0.906747 0.421675 -579.355 -645.072)" stroke="#DBDBDB"/>
<line y1="-0.5" x2="1320.86" y2="-0.5" transform="matrix(0.582581 0.812772 -0.906747 0.421675 -584.457 -643.702)" stroke="#DBDBDB"/>
<line y1="-0.5" x2="1320.86" y2="-0.5" transform="matrix(0.582581 0.812772 -0.906747 0.421675 -589.559 -642.333)" stroke="#DBDBDB"/>
<line y1="-0.5" x2="1320.86" y2="-0.5" transform="matrix(0.582581 0.812772 -0.906747 0.421675 -594.66 -640.963)" stroke="#DBDBDB"/>
<line y1="-0.5" x2="1320.86" y2="-0.5" transform="matrix(0.582581 0.812772 -0.906747 0.421675 -599.762 -639.593)" stroke="#DBDBDB"/>
<line y1="-0.5" x2="1320.86" y2="-0.5" transform="matrix(0.582581 0.812772 -0.906747 0.421675 -604.864 -638.223)" stroke="#DBDBDB"/>
<line y1="-0.5" x2="1320.86" y2="-0.5" transform="matrix(0.582581 0.812772 -0.906747 0.421675 -609.965 -636.854)" stroke="#DBDBDB"/>
<line y1="-0.5" x2="1320.86" y2="-0.5" transform="matrix(0.582581 0.812772 -0.906747 0.421675 -615.067 -635.484)" stroke="#DBDBDB"/>
<line y1="-0.5" x2="1320.86" y2="-0.5" transform="matrix(0.582581 0.812772 -0.906747 0.421675 -620.169 -634.114)" stroke="#DBDBDB"/>
<line y1="-0.5" x2="1320.86" y2="-0.5" transform="matrix(0.582581 0.812772 -0.906747 0.421675 -625.271 -632.744)" stroke="#DBDBDB"/>
<line y1="-0.5" x2="1320.86" y2="-0.5" transform="matrix(0.582581 0.812772 -0.906747 0.421675 -630.372 -631.374)" stroke="#DBDBDB"/>
<line y1="-0.5" x2="1320.86" y2="-0.5" transform="matrix(0.582581 0.812772 -0.906747 0.421675 -635.474 -630.005)" stroke="#DBDBDB"/>
<line y1="-0.5" x2="1320.86" y2="-0.5" transform="matrix(0.582581 0.812772 -0.906747 0.421675 -640.576 -628.635)" stroke="#DBDBDB"/>
<line y1="-0.5" x2="1320.86" y2="-0.5" transform="matrix(0.582581 0.812772 -0.906747 0.421675 -645.677 -627.265)" stroke="#DBDBDB"/>
<line y1="-0.5" x2="1320.86" y2="-0.5" transform="matrix(0.582581 0.812772 -0.906747 0.421675 -650.779 -625.895)" stroke="#DBDBDB"/>
<line y1="-0.5" x2="1320.86" y2="-0.5" transform="matrix(0.582581 0.812772 -0.906747 0.421675 -655.881 -624.526)" stroke="#DBDBDB"/>
<line y1="-0.5" x2="1320.86" y2="-0.5" transform="matrix(0.582581 0.812772 -0.906747 0.421675 -660.982 -623.156)" stroke="#DBDBDB"/>
<line y1="-0.5" x2="1320.86" y2="-0.5" transform="matrix(0.582581 0.812772 -0.906747 0.421675 -666.084 -621.786)" stroke="#DBDBDB"/>
<line y1="-0.5" x2="1320.86" y2="-0.5" transform="matrix(0.582581 0.812772 -0.906747 0.421675 -671.186 -620.416)" stroke="#DBDBDB"/>
<line y1="-0.5" x2="1320.86" y2="-0.5" transform="matrix(0.582581 0.812772 -0.906747 0.421675 -676.288 -619.047)" stroke="#DBDBDB"/>
<line y1="-0.5" x2="1320.86" y2="-0.5" transform="matrix(0.582581 0.812772 -0.906747 0.421675 -681.389 -617.677)" stroke="#DBDBDB"/>
<line y1="-0.5" x2="1320.86" y2="-0.5" transform="matrix(0.582581 0.812772 -0.906747 0.421675 -686.491 -616.307)" stroke="#DBDBDB"/>
<line y1="-0.5" x2="1320.86" y2="-0.5" transform="matrix(0.582581 0.812772 -0.906747 0.421675 -691.593 -614.937)" stroke="#DBDBDB"/>
<line y1="-0.5" x2="1320.86" y2="-0.5" transform="matrix(0.582581 0.812772 -0.906747 0.421675 -696.694 -613.568)" stroke="#DBDBDB"/>
<line y1="-0.5" x2="1320.86" y2="-0.5" transform="matrix(0.582581 0.812772 -0.906747 0.421675 -701.796 -612.198)" stroke="#DBDBDB"/>
<line y1="-0.5" x2="1320.86" y2="-0.5" transform="matrix(0.582581 0.812772 -0.906747 0.421675 -706.897 -610.828)" stroke="#DBDBDB"/>
<line y1="-0.5" x2="1320.86" y2="-0.5" transform="matrix(0.582581 0.812772 -0.906747 0.421675 -712 -609.458)" stroke="#DBDBDB"/>
<line y1="-0.5" x2="1320.86" y2="-0.5" transform="matrix(0.582581 0.812772 -0.906747 0.421675 -717.101 -608.089)" stroke="#DBDBDB"/>
<line y1="-0.5" x2="1320.86" y2="-0.5" transform="matrix(0.582581 0.812772 -0.906747 0.421675 -722.203 -606.719)" stroke="#DBDBDB"/>
<line y1="-0.5" x2="1320.86" y2="-0.5" transform="matrix(0.582581 0.812772 -0.906747 0.421675 -727.305 -605.349)" stroke="#DBDBDB"/>
<line y1="-0.5" x2="1320.86" y2="-0.5" transform="matrix(0.582581 0.812772 -0.906747 0.421675 -732.406 -603.979)" stroke="#DBDBDB"/>
<line y1="-0.5" x2="1320.86" y2="-0.5" transform="matrix(0.582581 0.812772 -0.906747 0.421675 -737.508 -602.61)" stroke="#DBDBDB"/>
<line y1="-0.5" x2="1320.86" y2="-0.5" transform="matrix(0.582581 0.812772 -0.906747 0.421675 -742.609 -601.24)" stroke="#DBDBDB"/>
<line y1="-0.5" x2="1320.86" y2="-0.5" transform="matrix(0.582581 0.812772 -0.906747 0.421675 -747.711 -599.87)" stroke="#DBDBDB"/>
<line y1="-0.5" x2="1320.86" y2="-0.5" transform="matrix(0.582581 0.812772 -0.906747 0.421675 -752.813 -598.5)" stroke="#DBDBDB"/>
<line y1="-0.5" x2="1320.86" y2="-0.5" transform="matrix(0.582581 0.812772 -0.906747 0.421675 -757.915 -597.13)" stroke="#DBDBDB"/>
<line y1="-0.5" x2="1320.86" y2="-0.5" transform="matrix(0.582581 0.812772 -0.906747 0.421675 -763.016 -595.761)" stroke="#DBDBDB"/>
<line y1="-0.5" x2="1320.86" y2="-0.5" transform="matrix(0.582581 0.812772 -0.906747 0.421675 -768.118 -594.391)" stroke="#DBDBDB"/>
</g>
</svg>
