<svg width="27" height="27" viewBox="0 0 27 27" fill="none" xmlns="http://www.w3.org/2000/svg">
<path fill-rule="evenodd" clip-rule="evenodd" d="M0.587006 0V26.413H27V0H0.587006ZM20.3879 14.6129C20.9943 15.2044 21.6355 15.7614 22.1797 16.4153C22.4201 16.7043 22.6476 17.0024 22.8209 17.3372C23.067 17.8169 22.8439 18.3425 22.4154 18.3715L19.7523 18.3703C19.065 18.4268 18.5172 18.1497 18.0552 17.6794C17.6879 17.305 17.3445 16.9042 16.9899 16.5171C16.8456 16.3577 16.693 16.2086 16.5116 16.0897C16.1478 15.854 15.8323 15.9255 15.6243 16.3044C15.4128 16.6904 15.3631 17.1189 15.3436 17.5487C15.3147 18.1761 15.1254 18.3402 14.4957 18.3704C13.1485 18.4328 11.8708 18.2281 10.6842 17.5499C9.63622 16.9516 8.82526 16.1057 8.11924 15.1492C6.74333 13.2844 5.68954 11.2371 4.74337 9.13089C4.52951 8.65621 4.68573 8.40184 5.20772 8.39266C6.07789 8.37548 6.94772 8.37757 7.81668 8.3915C8.17015 8.39742 8.40468 8.59944 8.53988 8.93335C9.01015 10.0889 9.58537 11.1886 10.3074 12.209C10.5005 12.4805 10.6969 12.7508 10.9752 12.9425C11.2837 13.1551 11.5194 13.0856 11.6649 12.7402C11.7575 12.5208 11.798 12.2874 11.8175 12.0528C11.8867 11.2498 11.895 10.4459 11.7759 9.64528C11.7019 9.14482 11.4189 8.82125 10.9199 8.72663C10.6655 8.6781 10.7037 8.58464 10.8261 8.43881C11.0412 8.18832 11.2435 8.03211 11.6442 8.03211H14.654C15.1287 8.1247 15.2351 8.3385 15.2996 8.81562L15.302 12.1604C15.2964 12.3453 15.3946 12.8927 15.7261 13.014C15.9917 13.1018 16.1686 12.888 16.328 12.7194C17.0488 11.9545 17.5631 11.0501 18.0227 10.1143C18.2262 9.70287 18.4019 9.2755 18.5729 8.84778C18.6988 8.53129 18.8952 8.37542 19.2522 8.38105L22.1499 8.38459C22.2353 8.38459 22.3232 8.38459 22.4075 8.39847C22.8949 8.48276 23.029 8.69308 22.8775 9.17014C22.6409 9.91754 22.1774 10.5416 21.7258 11.1666C21.2416 11.8356 20.7264 12.4812 20.2458 13.1538C19.8068 13.7697 19.8414 14.0793 20.3879 14.6129Z" fill="#171717"/>
</svg>
