<svg width="44" height="44" fill="none" xmlns="http://www.w3.org/2000/svg"><path d="M0 40.678h2.561V30.545h7.823v10.12h2.575V25.506h7.74v15.159h2.575V15.428h7.725v25.25h2.59V20.48h7.822v20.212H44v2.533H.028C0 42.367 0 41.523 0 40.678zM19.599 5.189c1.517-.218 3.02-.463 4.538-.667.459-.055.723-.232.932-.64.655-1.28 1.35-2.547 2.074-3.882.112.177.195.3.265.436.626 1.157 1.266 2.315 1.865 3.5.181.368.418.531.835.586 1.42.19 2.826.395 4.246.613.125.013.25.054.529.109-.25.204-.446.354-.627.503-.988.954-1.976 1.907-2.965 2.847-.195.177-.264.354-.208.626.278 1.553.542 3.106.82 4.754-.18-.082-.305-.137-.417-.205-1.308-.667-2.617-1.32-3.911-2.002-.293-.15-.501-.136-.78.014-1.28.667-2.589 1.321-3.87 1.975-.125.068-.25.122-.445.204.153-.94.306-1.811.446-2.697.125-.722.264-1.43.362-2.152.027-.163-.07-.38-.195-.49a690.152 690.152 0 00-3.23-3.132 1.254 1.254 0 00-.278-.191c-.028-.04-.014-.082.014-.109zM15.52 7.654v2.479H5.178V7.654H15.52zM5.164 15.158v-2.465H15.52v2.465H5.164zm10.356 5.053H5.178v-2.478H15.52v2.478z" fill="#B4B4B4"/></svg>