<svg width="53" height="46" fill="none" xmlns="http://www.w3.org/2000/svg"><path d="M21.842 24.4h9.316v3.037h-9.316v-3.038z" fill="#B4B4B4"/><path d="M42.998 27.437h-8.734v1.519c0 .839-.695 1.518-1.553 1.518H20.289c-.858 0-1.553-.68-1.553-1.518v-1.52h-8.734c-2.008 0-3.783-1.251-4.419-3.114L0 7.937v33.169c0 2.512 2.09 4.556 4.658 4.556h43.684c2.568 0 4.658-2.044 4.658-4.556V7.938l-5.583 16.384c-.636 1.863-2.411 3.115-4.419 3.115z" fill="#B4B4B4"/><path d="M32.711.099H20.289c-2.568 0-4.658 2.044-4.658 4.556v1.519H2.67l5.857 17.187a1.55 1.55 0 001.474 1.038h8.734v-1.518c0-.84.695-1.52 1.553-1.52H32.71c.858 0 1.553.68 1.553 1.52v1.518h8.734a1.55 1.55 0 001.474-1.038L50.33 6.174H37.37V4.655C37.37 2.143 35.28.1 32.711.1zM18.736 6.174V4.655c0-.838.696-1.519 1.553-1.519h12.422c.857 0 1.553.681 1.553 1.52v1.518H18.736z" fill="#B4B4B4"/></svg>