<svg width="23" height="4" viewBox="0 0 23 4" fill="none" xmlns="http://www.w3.org/2000/svg">
<path d="M22.9885 1.89222C22.9625 1.77889 22.9366 1.68824 22.8328 1.64291L20.6533 0.0790683C20.4976 -0.0569177 20.2382 -0.011589 20.1084 0.169726C19.9787 0.35104 20.0306 0.600348 20.2122 0.736334L21.3539 1.57492H0.389195C0.181624 1.55225 0 1.73357 0 1.98287C0 2.23218 0.181624 2.4135 0.389195 2.4135H21.3539L20.2122 3.25208C20.0306 3.38806 19.9787 3.63737 20.1084 3.81868C20.1863 3.93201 20.316 4 20.4198 4C20.4976 4 20.5755 3.97734 20.6533 3.93201L22.8328 2.36817C22.9106 2.30017 22.9625 2.20952 22.9885 2.11886C22.9885 2.09619 22.9885 2.05087 22.9885 2.0282C22.9885 1.96021 23.0144 1.91488 22.9885 1.89222Z" fill="#171717"/>
</svg>
