<svg width="432" height="188" viewBox="0 0 432 188" fill="none" xmlns="http://www.w3.org/2000/svg">
<mask id="mask0" mask-type="alpha" maskUnits="userSpaceOnUse" x="0" y="0" width="432" height="188">
<rect y="0.948456" width="432" height="187.052" fill="#8D1111"/>
</mask>
<g mask="url(#mask0)">
<line y1="-0.445361" x2="1497.36" y2="-0.445361" transform="matrix(0.582581 0.812772 -0.906747 0.421675 113.899 -911.297)" stroke="#E9E8E8" stroke-width="0.890722"/>
<line y1="-0.445361" x2="1497.36" y2="-0.445361" transform="matrix(0.582581 0.812772 -0.906747 0.421675 108.116 -909.744)" stroke="#E9E8E8" stroke-width="0.890722"/>
<line y1="-0.445361" x2="1497.36" y2="-0.445361" transform="matrix(0.582581 0.812772 -0.906747 0.421675 102.332 -908.191)" stroke="#E9E8E8" stroke-width="0.890722"/>
<line y1="-0.445361" x2="1497.36" y2="-0.445361" transform="matrix(0.582581 0.812772 -0.906747 0.421675 96.5492 -906.639)" stroke="#E9E8E8" stroke-width="0.890722"/>
<line y1="-0.445361" x2="1497.36" y2="-0.445361" transform="matrix(0.582581 0.812772 -0.906747 0.421675 90.7656 -905.086)" stroke="#E9E8E8" stroke-width="0.890722"/>
<line y1="-0.445361" x2="1497.36" y2="-0.445361" transform="matrix(0.582581 0.812772 -0.906747 0.421675 84.9823 -903.533)" stroke="#E9E8E8" stroke-width="0.890722"/>
<line y1="-0.445361" x2="1497.36" y2="-0.445361" transform="matrix(0.582581 0.812772 -0.906747 0.421675 79.1987 -901.98)" stroke="#E9E8E8" stroke-width="0.890722"/>
<line y1="-0.445361" x2="1497.36" y2="-0.445361" transform="matrix(0.582581 0.812772 -0.906747 0.421675 73.4154 -900.427)" stroke="#E9E8E8" stroke-width="0.890722"/>
<line y1="-0.445361" x2="1497.36" y2="-0.445361" transform="matrix(0.582581 0.812772 -0.906747 0.421675 67.632 -898.875)" stroke="#E9E8E8" stroke-width="0.890722"/>
<line y1="-0.445361" x2="1497.36" y2="-0.445361" transform="matrix(0.582581 0.812772 -0.906747 0.421675 61.8485 -897.322)" stroke="#E9E8E8" stroke-width="0.890722"/>
<line y1="-0.445361" x2="1497.36" y2="-0.445361" transform="matrix(0.582581 0.812772 -0.906747 0.421675 56.0651 -895.769)" stroke="#E9E8E8" stroke-width="0.890722"/>
<line y1="-0.445361" x2="1497.36" y2="-0.445361" transform="matrix(0.582581 0.812772 -0.906747 0.421675 50.2816 -894.216)" stroke="#E9E8E8" stroke-width="0.890722"/>
<line y1="-0.445361" x2="1497.36" y2="-0.445361" transform="matrix(0.582581 0.812772 -0.906747 0.421675 44.4982 -892.663)" stroke="#E9E8E8" stroke-width="0.890722"/>
<line y1="-0.445361" x2="1497.36" y2="-0.445361" transform="matrix(0.582581 0.812772 -0.906747 0.421675 38.715 -891.11)" stroke="#E9E8E8" stroke-width="0.890722"/>
<line y1="-0.445361" x2="1497.36" y2="-0.445361" transform="matrix(0.582581 0.812772 -0.906747 0.421675 32.9315 -889.558)" stroke="#E9E8E8" stroke-width="0.890722"/>
<line y1="-0.445361" x2="1497.36" y2="-0.445361" transform="matrix(0.582581 0.812772 -0.906747 0.421675 27.1479 -888.005)" stroke="#E9E8E8" stroke-width="0.890722"/>
<line y1="-0.445361" x2="1497.36" y2="-0.445361" transform="matrix(0.582581 0.812772 -0.906747 0.421675 21.3647 -886.452)" stroke="#E9E8E8" stroke-width="0.890722"/>
<line y1="-0.445361" x2="1497.36" y2="-0.445361" transform="matrix(0.582581 0.812772 -0.906747 0.421675 15.5811 -884.9)" stroke="#E9E8E8" stroke-width="0.890722"/>
<line y1="-0.445361" x2="1497.36" y2="-0.445361" transform="matrix(0.582581 0.812772 -0.906747 0.421675 9.79773 -883.347)" stroke="#E9E8E8" stroke-width="0.890722"/>
<line y1="-0.445361" x2="1497.36" y2="-0.445361" transform="matrix(0.582581 0.812772 -0.906747 0.421675 4.01428 -881.794)" stroke="#E9E8E8" stroke-width="0.890722"/>
<line y1="-0.445361" x2="1497.36" y2="-0.445361" transform="matrix(0.582581 0.812772 -0.906747 0.421675 -1.76917 -880.241)" stroke="#E9E8E8" stroke-width="0.890722"/>
<line y1="-0.445361" x2="1497.36" y2="-0.445361" transform="matrix(0.582581 0.812772 -0.906747 0.421675 -7.55261 -878.688)" stroke="#E9E8E8" stroke-width="0.890722"/>
<line y1="-0.445361" x2="1497.36" y2="-0.445361" transform="matrix(0.582581 0.812772 -0.906747 0.421675 -13.3362 -877.135)" stroke="#E9E8E8" stroke-width="0.890722"/>
<line y1="-0.445361" x2="1497.36" y2="-0.445361" transform="matrix(0.582581 0.812772 -0.906747 0.421675 -19.1194 -875.583)" stroke="#E9E8E8" stroke-width="0.890722"/>
<line y1="-0.445361" x2="1497.36" y2="-0.445361" transform="matrix(0.582581 0.812772 -0.906747 0.421675 -24.9028 -874.03)" stroke="#E9E8E8" stroke-width="0.890722"/>
<line y1="-0.445361" x2="1497.36" y2="-0.445361" transform="matrix(0.582581 0.812772 -0.906747 0.421675 -30.6863 -872.477)" stroke="#E9E8E8" stroke-width="0.890722"/>
<line y1="-0.445361" x2="1497.36" y2="-0.445361" transform="matrix(0.582581 0.812772 -0.906747 0.421675 -36.4697 -870.924)" stroke="#E9E8E8" stroke-width="0.890722"/>
<line y1="-0.445361" x2="1497.36" y2="-0.445361" transform="matrix(0.582581 0.812772 -0.906747 0.421675 -42.2531 -869.371)" stroke="#E9E8E8" stroke-width="0.890722"/>
<line y1="-0.445361" x2="1497.36" y2="-0.445361" transform="matrix(0.582581 0.812772 -0.906747 0.421675 -48.0365 -867.819)" stroke="#E9E8E8" stroke-width="0.890722"/>
<line y1="-0.445361" x2="1497.36" y2="-0.445361" transform="matrix(0.582581 0.812772 -0.906747 0.421675 -53.8199 -866.266)" stroke="#E9E8E8" stroke-width="0.890722"/>
<line y1="-0.445361" x2="1497.36" y2="-0.445361" transform="matrix(0.582581 0.812772 -0.906747 0.421675 -59.6033 -864.713)" stroke="#E9E8E8" stroke-width="0.890722"/>
<line y1="-0.445361" x2="1497.36" y2="-0.445361" transform="matrix(0.582581 0.812772 -0.906747 0.421675 -65.387 -863.16)" stroke="#E9E8E8" stroke-width="0.890722"/>
<line y1="-0.445361" x2="1497.36" y2="-0.445361" transform="matrix(0.582581 0.812772 -0.906747 0.421675 -71.1702 -861.607)" stroke="#E9E8E8" stroke-width="0.890722"/>
<line y1="-0.445361" x2="1497.36" y2="-0.445361" transform="matrix(0.582581 0.812772 -0.906747 0.421675 -76.9539 -860.054)" stroke="#E9E8E8" stroke-width="0.890722"/>
<line y1="-0.445361" x2="1497.36" y2="-0.445361" transform="matrix(0.582581 0.812772 -0.906747 0.421675 -82.7371 -858.502)" stroke="#E9E8E8" stroke-width="0.890722"/>
<line y1="-0.445361" x2="1497.36" y2="-0.445361" transform="matrix(0.582581 0.812772 -0.906747 0.421675 -88.5205 -856.949)" stroke="#E9E8E8" stroke-width="0.890722"/>
<line y1="-0.445361" x2="1497.36" y2="-0.445361" transform="matrix(0.582581 0.812772 -0.906747 0.421675 -94.304 -855.396)" stroke="#E9E8E8" stroke-width="0.890722"/>
<line y1="-0.445361" x2="1497.36" y2="-0.445361" transform="matrix(0.582581 0.812772 -0.906747 0.421675 -100.087 -853.843)" stroke="#E9E8E8" stroke-width="0.890722"/>
<line y1="-0.445361" x2="1497.36" y2="-0.445361" transform="matrix(0.582581 0.812772 -0.906747 0.421675 -105.871 -852.291)" stroke="#E9E8E8" stroke-width="0.890722"/>
<line y1="-0.445361" x2="1497.36" y2="-0.445361" transform="matrix(0.582581 0.812772 -0.906747 0.421675 -111.654 -850.738)" stroke="#E9E8E8" stroke-width="0.890722"/>
<line y1="-0.445361" x2="1497.36" y2="-0.445361" transform="matrix(0.582581 0.812772 -0.906747 0.421675 -117.438 -849.185)" stroke="#E9E8E8" stroke-width="0.890722"/>
<line y1="-0.445361" x2="1497.36" y2="-0.445361" transform="matrix(0.582581 0.812772 -0.906747 0.421675 -123.221 -847.632)" stroke="#E9E8E8" stroke-width="0.890722"/>
<line y1="-0.445361" x2="1497.36" y2="-0.445361" transform="matrix(0.582581 0.812772 -0.906747 0.421675 -129.005 -846.079)" stroke="#E9E8E8" stroke-width="0.890722"/>
<line y1="-0.445361" x2="1497.36" y2="-0.445361" transform="matrix(0.582581 0.812772 -0.906747 0.421675 -134.788 -844.527)" stroke="#E9E8E8" stroke-width="0.890722"/>
<line y1="-0.445361" x2="1497.36" y2="-0.445361" transform="matrix(0.582581 0.812772 -0.906747 0.421675 -140.571 -842.974)" stroke="#E9E8E8" stroke-width="0.890722"/>
<line y1="-0.445361" x2="1497.36" y2="-0.445361" transform="matrix(0.582581 0.812772 -0.906747 0.421675 -146.355 -841.421)" stroke="#E9E8E8" stroke-width="0.890722"/>
<line y1="-0.445361" x2="1497.36" y2="-0.445361" transform="matrix(0.582581 0.812772 -0.906747 0.421675 -152.138 -839.868)" stroke="#E9E8E8" stroke-width="0.890722"/>
<line y1="-0.445361" x2="1497.36" y2="-0.445361" transform="matrix(0.582581 0.812772 -0.906747 0.421675 -157.922 -838.315)" stroke="#E9E8E8" stroke-width="0.890722"/>
<line y1="-0.445361" x2="1497.36" y2="-0.445361" transform="matrix(0.582581 0.812772 -0.906747 0.421675 -163.705 -836.763)" stroke="#E9E8E8" stroke-width="0.890722"/>
<line y1="-0.445361" x2="1497.36" y2="-0.445361" transform="matrix(0.582581 0.812772 -0.906747 0.421675 -169.489 -835.21)" stroke="#E9E8E8" stroke-width="0.890722"/>
<line y1="-0.445361" x2="1497.36" y2="-0.445361" transform="matrix(0.582581 0.812772 -0.906747 0.421675 -175.272 -833.657)" stroke="#E9E8E8" stroke-width="0.890722"/>
<line y1="-0.445361" x2="1497.36" y2="-0.445361" transform="matrix(0.582581 0.812772 -0.906747 0.421675 -181.056 -832.104)" stroke="#E9E8E8" stroke-width="0.890722"/>
<line y1="-0.445361" x2="1497.36" y2="-0.445361" transform="matrix(0.582581 0.812772 -0.906747 0.421675 -186.839 -830.551)" stroke="#E9E8E8" stroke-width="0.890722"/>
<line y1="-0.445361" x2="1497.36" y2="-0.445361" transform="matrix(0.582581 0.812772 -0.906747 0.421675 -192.622 -828.999)" stroke="#E9E8E8" stroke-width="0.890722"/>
<line y1="-0.445361" x2="1497.36" y2="-0.445361" transform="matrix(0.582581 0.812772 -0.906747 0.421675 -198.406 -827.446)" stroke="#E9E8E8" stroke-width="0.890722"/>
<line y1="-0.445361" x2="1497.36" y2="-0.445361" transform="matrix(0.582581 0.812772 -0.906747 0.421675 -204.189 -825.893)" stroke="#E9E8E8" stroke-width="0.890722"/>
<line y1="-0.445361" x2="1497.36" y2="-0.445361" transform="matrix(0.582581 0.812772 -0.906747 0.421675 -209.972 -824.34)" stroke="#E9E8E8" stroke-width="0.890722"/>
<line y1="-0.445361" x2="1497.36" y2="-0.445361" transform="matrix(0.582581 0.812772 -0.906747 0.421675 -215.756 -822.787)" stroke="#E9E8E8" stroke-width="0.890722"/>
<line y1="-0.445361" x2="1497.36" y2="-0.445361" transform="matrix(0.582581 0.812772 -0.906747 0.421675 -221.539 -821.235)" stroke="#E9E8E8" stroke-width="0.890722"/>
<line y1="-0.445361" x2="1497.36" y2="-0.445361" transform="matrix(0.582581 0.812772 -0.906747 0.421675 -227.323 -819.682)" stroke="#E9E8E8" stroke-width="0.890722"/>
<line y1="-0.445361" x2="1497.36" y2="-0.445361" transform="matrix(0.582581 0.812772 -0.906747 0.421675 -233.106 -818.129)" stroke="#E9E8E8" stroke-width="0.890722"/>
<line y1="-0.445361" x2="1497.36" y2="-0.445361" transform="matrix(0.582581 0.812772 -0.906747 0.421675 -238.89 -816.576)" stroke="#E9E8E8" stroke-width="0.890722"/>
<line y1="-0.445361" x2="1497.36" y2="-0.445361" transform="matrix(0.582581 0.812772 -0.906747 0.421675 -244.673 -815.023)" stroke="#E9E8E8" stroke-width="0.890722"/>
<line y1="-0.445361" x2="1497.36" y2="-0.445361" transform="matrix(0.582581 0.812772 -0.906747 0.421675 -250.456 -813.47)" stroke="#E9E8E8" stroke-width="0.890722"/>
<line y1="-0.445361" x2="1497.36" y2="-0.445361" transform="matrix(0.582581 0.812772 -0.906747 0.421675 -256.24 -811.918)" stroke="#E9E8E8" stroke-width="0.890722"/>
<line y1="-0.445361" x2="1497.36" y2="-0.445361" transform="matrix(0.582581 0.812772 -0.906747 0.421675 -262.023 -810.365)" stroke="#E9E8E8" stroke-width="0.890722"/>
<line y1="-0.445361" x2="1497.36" y2="-0.445361" transform="matrix(0.582581 0.812772 -0.906747 0.421675 -267.807 -808.812)" stroke="#E9E8E8" stroke-width="0.890722"/>
<line y1="-0.445361" x2="1497.36" y2="-0.445361" transform="matrix(0.582581 0.812772 -0.906747 0.421675 -273.59 -807.259)" stroke="#E9E8E8" stroke-width="0.890722"/>
<line y1="-0.445361" x2="1497.36" y2="-0.445361" transform="matrix(0.582581 0.812772 -0.906747 0.421675 -279.373 -805.707)" stroke="#E9E8E8" stroke-width="0.890722"/>
<line y1="-0.445361" x2="1497.36" y2="-0.445361" transform="matrix(0.582581 0.812772 -0.906747 0.421675 -285.157 -804.154)" stroke="#E9E8E8" stroke-width="0.890722"/>
<line y1="-0.445361" x2="1497.36" y2="-0.445361" transform="matrix(0.582581 0.812772 -0.906747 0.421675 -290.94 -802.601)" stroke="#E9E8E8" stroke-width="0.890722"/>
<line y1="-0.445361" x2="1497.36" y2="-0.445361" transform="matrix(0.582581 0.812772 -0.906747 0.421675 -296.724 -801.048)" stroke="#E9E8E8" stroke-width="0.890722"/>
<line y1="-0.445361" x2="1497.36" y2="-0.445361" transform="matrix(0.582581 0.812772 -0.906747 0.421675 -302.507 -799.495)" stroke="#E9E8E8" stroke-width="0.890722"/>
<line y1="-0.445361" x2="1497.36" y2="-0.445361" transform="matrix(0.582581 0.812772 -0.906747 0.421675 -308.291 -797.943)" stroke="#E9E8E8" stroke-width="0.890722"/>
<line y1="-0.445361" x2="1497.36" y2="-0.445361" transform="matrix(0.582581 0.812772 -0.906747 0.421675 -314.074 -796.39)" stroke="#E9E8E8" stroke-width="0.890722"/>
<line y1="-0.445361" x2="1497.36" y2="-0.445361" transform="matrix(0.582581 0.812772 -0.906747 0.421675 -319.857 -794.837)" stroke="#E9E8E8" stroke-width="0.890722"/>
<line y1="-0.445361" x2="1497.36" y2="-0.445361" transform="matrix(0.582581 0.812772 -0.906747 0.421675 -325.641 -793.284)" stroke="#E9E8E8" stroke-width="0.890722"/>
<line y1="-0.445361" x2="1497.36" y2="-0.445361" transform="matrix(0.582581 0.812772 -0.906747 0.421675 -331.424 -791.731)" stroke="#E9E8E8" stroke-width="0.890722"/>
<line y1="-0.445361" x2="1497.36" y2="-0.445361" transform="matrix(0.582581 0.812772 -0.906747 0.421675 -337.208 -790.178)" stroke="#E9E8E8" stroke-width="0.890722"/>
<line y1="-0.445361" x2="1497.36" y2="-0.445361" transform="matrix(0.582581 0.812772 -0.906747 0.421675 -342.991 -788.626)" stroke="#E9E8E8" stroke-width="0.890722"/>
<line y1="-0.445361" x2="1497.36" y2="-0.445361" transform="matrix(0.582581 0.812772 -0.906747 0.421675 -348.775 -787.073)" stroke="#E9E8E8" stroke-width="0.890722"/>
<line y1="-0.445361" x2="1497.36" y2="-0.445361" transform="matrix(0.582581 0.812772 -0.906747 0.421675 -354.558 -785.52)" stroke="#E9E8E8" stroke-width="0.890722"/>
<line y1="-0.445361" x2="1497.36" y2="-0.445361" transform="matrix(0.582581 0.812772 -0.906747 0.421675 -360.341 -783.967)" stroke="#E9E8E8" stroke-width="0.890722"/>
<line y1="-0.445361" x2="1497.36" y2="-0.445361" transform="matrix(0.582581 0.812772 -0.906747 0.421675 -366.125 -782.415)" stroke="#E9E8E8" stroke-width="0.890722"/>
<line y1="-0.445361" x2="1497.36" y2="-0.445361" transform="matrix(0.582581 0.812772 -0.906747 0.421675 -371.908 -780.862)" stroke="#E9E8E8" stroke-width="0.890722"/>
<line y1="-0.445361" x2="1497.36" y2="-0.445361" transform="matrix(0.582581 0.812772 -0.906747 0.421675 -377.692 -779.309)" stroke="#E9E8E8" stroke-width="0.890722"/>
<line y1="-0.445361" x2="1497.36" y2="-0.445361" transform="matrix(0.582581 0.812772 -0.906747 0.421675 -383.475 -777.756)" stroke="#E9E8E8" stroke-width="0.890722"/>
<line y1="-0.445361" x2="1497.36" y2="-0.445361" transform="matrix(0.582581 0.812772 -0.906747 0.421675 -389.259 -776.203)" stroke="#E9E8E8" stroke-width="0.890722"/>
<line y1="-0.445361" x2="1497.36" y2="-0.445361" transform="matrix(0.582581 0.812772 -0.906747 0.421675 -395.042 -774.651)" stroke="#E9E8E8" stroke-width="0.890722"/>
<line y1="-0.445361" x2="1497.36" y2="-0.445361" transform="matrix(0.582581 0.812772 -0.906747 0.421675 -400.826 -773.098)" stroke="#E9E8E8" stroke-width="0.890722"/>
<line y1="-0.445361" x2="1497.36" y2="-0.445361" transform="matrix(0.582581 0.812772 -0.906747 0.421675 -406.609 -771.545)" stroke="#E9E8E8" stroke-width="0.890722"/>
<line y1="-0.445361" x2="1497.36" y2="-0.445361" transform="matrix(0.582581 0.812772 -0.906747 0.421675 -412.392 -769.992)" stroke="#E9E8E8" stroke-width="0.890722"/>
<line y1="-0.445361" x2="1497.36" y2="-0.445361" transform="matrix(0.582581 0.812772 -0.906747 0.421675 -418.176 -768.439)" stroke="#E9E8E8" stroke-width="0.890722"/>
<line y1="-0.445361" x2="1497.36" y2="-0.445361" transform="matrix(0.582581 0.812772 -0.906747 0.421675 -423.959 -766.887)" stroke="#E9E8E8" stroke-width="0.890722"/>
<line y1="-0.445361" x2="1497.36" y2="-0.445361" transform="matrix(0.582581 0.812772 -0.906747 0.421675 -429.743 -765.334)" stroke="#E9E8E8" stroke-width="0.890722"/>
<line y1="-0.445361" x2="1497.36" y2="-0.445361" transform="matrix(0.582581 0.812772 -0.906747 0.421675 -435.526 -763.781)" stroke="#E9E8E8" stroke-width="0.890722"/>
<line y1="-0.445361" x2="1497.36" y2="-0.445361" transform="matrix(0.582581 0.812772 -0.906747 0.421675 -441.309 -762.228)" stroke="#E9E8E8" stroke-width="0.890722"/>
<line y1="-0.445361" x2="1497.36" y2="-0.445361" transform="matrix(0.582581 0.812772 -0.906747 0.421675 -447.093 -760.675)" stroke="#E9E8E8" stroke-width="0.890722"/>
<line y1="-0.445361" x2="1497.36" y2="-0.445361" transform="matrix(0.582581 0.812772 -0.906747 0.421675 -452.876 -759.123)" stroke="#E9E8E8" stroke-width="0.890722"/>
<line y1="-0.445361" x2="1497.36" y2="-0.445361" transform="matrix(0.582581 0.812772 -0.906747 0.421675 -458.66 -757.57)" stroke="#E9E8E8" stroke-width="0.890722"/>
<line y1="-0.445361" x2="1497.36" y2="-0.445361" transform="matrix(0.582581 0.812772 -0.906747 0.421675 -464.443 -756.017)" stroke="#E9E8E8" stroke-width="0.890722"/>
<line y1="-0.445361" x2="1497.36" y2="-0.445361" transform="matrix(0.582581 0.812772 -0.906747 0.421675 -470.227 -754.464)" stroke="#E9E8E8" stroke-width="0.890722"/>
<line y1="-0.445361" x2="1497.36" y2="-0.445361" transform="matrix(0.582581 0.812772 -0.906747 0.421675 -476.01 -752.911)" stroke="#E9E8E8" stroke-width="0.890722"/>
<line y1="-0.445361" x2="1497.36" y2="-0.445361" transform="matrix(0.582581 0.812772 -0.906747 0.421675 -481.793 -751.359)" stroke="#E9E8E8" stroke-width="0.890722"/>
<line y1="-0.445361" x2="1497.36" y2="-0.445361" transform="matrix(0.582581 0.812772 -0.906747 0.421675 -487.577 -749.806)" stroke="#E9E8E8" stroke-width="0.890722"/>
<line y1="-0.445361" x2="1497.36" y2="-0.445361" transform="matrix(0.582581 0.812772 -0.906747 0.421675 -493.36 -748.253)" stroke="#E9E8E8" stroke-width="0.890722"/>
<line y1="-0.445361" x2="1497.36" y2="-0.445361" transform="matrix(0.582581 0.812772 -0.906747 0.421675 -499.144 -746.7)" stroke="#E9E8E8" stroke-width="0.890722"/>
<line y1="-0.445361" x2="1497.36" y2="-0.445361" transform="matrix(0.582581 0.812772 -0.906747 0.421675 -504.927 -745.147)" stroke="#E9E8E8" stroke-width="0.890722"/>
<line y1="-0.445361" x2="1497.36" y2="-0.445361" transform="matrix(0.582581 0.812772 -0.906747 0.421675 -510.71 -743.594)" stroke="#E9E8E8" stroke-width="0.890722"/>
<line y1="-0.445361" x2="1497.36" y2="-0.445361" transform="matrix(0.582581 0.812772 -0.906747 0.421675 -516.494 -742.042)" stroke="#E9E8E8" stroke-width="0.890722"/>
<line y1="-0.445361" x2="1497.36" y2="-0.445361" transform="matrix(0.582581 0.812772 -0.906747 0.421675 -522.278 -740.489)" stroke="#E9E8E8" stroke-width="0.890722"/>
<line y1="-0.445361" x2="1497.36" y2="-0.445361" transform="matrix(0.582581 0.812772 -0.906747 0.421675 -528.061 -738.936)" stroke="#E9E8E8" stroke-width="0.890722"/>
<line y1="-0.445361" x2="1497.36" y2="-0.445361" transform="matrix(0.582581 0.812772 -0.906747 0.421675 -533.844 -737.383)" stroke="#E9E8E8" stroke-width="0.890722"/>
<line y1="-0.445361" x2="1497.36" y2="-0.445361" transform="matrix(0.582581 0.812772 -0.906747 0.421675 -539.628 -735.831)" stroke="#E9E8E8" stroke-width="0.890722"/>
<line y1="-0.445361" x2="1497.36" y2="-0.445361" transform="matrix(0.582581 0.812772 -0.906747 0.421675 -545.411 -734.278)" stroke="#E9E8E8" stroke-width="0.890722"/>
<line y1="-0.445361" x2="1497.36" y2="-0.445361" transform="matrix(0.582581 0.812772 -0.906747 0.421675 -551.195 -732.725)" stroke="#E9E8E8" stroke-width="0.890722"/>
<line y1="-0.445361" x2="1497.36" y2="-0.445361" transform="matrix(0.582581 0.812772 -0.906747 0.421675 -556.978 -731.172)" stroke="#E9E8E8" stroke-width="0.890722"/>
<line y1="-0.445361" x2="1497.36" y2="-0.445361" transform="matrix(0.582581 0.812772 -0.906747 0.421675 -562.762 -729.619)" stroke="#E9E8E8" stroke-width="0.890722"/>
<line y1="-0.445361" x2="1497.36" y2="-0.445361" transform="matrix(0.582581 0.812772 -0.906747 0.421675 -568.545 -728.067)" stroke="#E9E8E8" stroke-width="0.890722"/>
<line y1="-0.445361" x2="1497.36" y2="-0.445361" transform="matrix(0.582581 0.812772 -0.906747 0.421675 -574.329 -726.514)" stroke="#E9E8E8" stroke-width="0.890722"/>
<line y1="-0.445361" x2="1497.36" y2="-0.445361" transform="matrix(0.582581 0.812772 -0.906747 0.421675 -580.112 -724.961)" stroke="#E9E8E8" stroke-width="0.890722"/>
<line y1="-0.445361" x2="1497.36" y2="-0.445361" transform="matrix(0.582581 0.812772 -0.906747 0.421675 -585.896 -723.408)" stroke="#E9E8E8" stroke-width="0.890722"/>
<line y1="-0.445361" x2="1497.36" y2="-0.445361" transform="matrix(0.582581 0.812772 -0.906747 0.421675 -591.679 -721.855)" stroke="#E9E8E8" stroke-width="0.890722"/>
<line y1="-0.445361" x2="1497.36" y2="-0.445361" transform="matrix(0.582581 0.812772 -0.906747 0.421675 -597.462 -720.303)" stroke="#E9E8E8" stroke-width="0.890722"/>
<line y1="-0.445361" x2="1497.36" y2="-0.445361" transform="matrix(0.582581 0.812772 -0.906747 0.421675 -603.246 -718.75)" stroke="#E9E8E8" stroke-width="0.890722"/>
<line y1="-0.445361" x2="1497.36" y2="-0.445361" transform="matrix(0.582581 0.812772 -0.906747 0.421675 -609.029 -717.197)" stroke="#E9E8E8" stroke-width="0.890722"/>
<line y1="-0.445361" x2="1497.36" y2="-0.445361" transform="matrix(0.582581 0.812772 -0.906747 0.421675 -614.813 -715.644)" stroke="#E9E8E8" stroke-width="0.890722"/>
<line y1="-0.445361" x2="1497.36" y2="-0.445361" transform="matrix(0.582581 0.812772 -0.906747 0.421675 -620.596 -714.091)" stroke="#E9E8E8" stroke-width="0.890722"/>
<line y1="-0.445361" x2="1497.36" y2="-0.445361" transform="matrix(0.582581 0.812772 -0.906747 0.421675 -626.379 -712.539)" stroke="#E9E8E8" stroke-width="0.890722"/>
<line y1="-0.445361" x2="1497.36" y2="-0.445361" transform="matrix(0.582581 0.812772 -0.906747 0.421675 -632.163 -710.986)" stroke="#E9E8E8" stroke-width="0.890722"/>
<line y1="-0.445361" x2="1497.36" y2="-0.445361" transform="matrix(0.582581 0.812772 -0.906747 0.421675 -637.946 -709.433)" stroke="#E9E8E8" stroke-width="0.890722"/>
<line y1="-0.445361" x2="1497.36" y2="-0.445361" transform="matrix(0.582581 0.812772 -0.906747 0.421675 -643.729 -707.88)" stroke="#E9E8E8" stroke-width="0.890722"/>
<line y1="-0.445361" x2="1497.36" y2="-0.445361" transform="matrix(0.582581 0.812772 -0.906747 0.421675 -649.513 -706.327)" stroke="#E9E8E8" stroke-width="0.890722"/>
<line y1="-0.445361" x2="1497.36" y2="-0.445361" transform="matrix(0.582581 0.812772 -0.906747 0.421675 -655.297 -704.774)" stroke="#E9E8E8" stroke-width="0.890722"/>
<line y1="-0.445361" x2="1497.36" y2="-0.445361" transform="matrix(0.582581 0.812772 -0.906747 0.421675 -661.08 -703.222)" stroke="#E9E8E8" stroke-width="0.890722"/>
<line y1="-0.445361" x2="1497.36" y2="-0.445361" transform="matrix(0.582581 0.812772 -0.906747 0.421675 -666.864 -701.669)" stroke="#E9E8E8" stroke-width="0.890722"/>
<line y1="-0.445361" x2="1497.36" y2="-0.445361" transform="matrix(0.582581 0.812772 -0.906747 0.421675 -672.647 -700.116)" stroke="#E9E8E8" stroke-width="0.890722"/>
<line y1="-0.445361" x2="1497.36" y2="-0.445361" transform="matrix(0.582581 0.812772 -0.906747 0.421675 -678.43 -698.563)" stroke="#E9E8E8" stroke-width="0.890722"/>
<line y1="-0.445361" x2="1497.36" y2="-0.445361" transform="matrix(0.582581 0.812772 -0.906747 0.421675 -684.214 -697.01)" stroke="#E9E8E8" stroke-width="0.890722"/>
<line y1="-0.445361" x2="1497.36" y2="-0.445361" transform="matrix(0.582581 0.812772 -0.906747 0.421675 -689.997 -695.458)" stroke="#E9E8E8" stroke-width="0.890722"/>
<line y1="-0.445361" x2="1497.36" y2="-0.445361" transform="matrix(0.582581 0.812772 -0.906747 0.421675 -695.78 -693.905)" stroke="#E9E8E8" stroke-width="0.890722"/>
<line y1="-0.445361" x2="1497.36" y2="-0.445361" transform="matrix(0.582581 0.812772 -0.906747 0.421675 -701.564 -692.352)" stroke="#E9E8E8" stroke-width="0.890722"/>
<line y1="-0.445361" x2="1497.36" y2="-0.445361" transform="matrix(0.582581 0.812772 -0.906747 0.421675 -707.347 -690.799)" stroke="#E9E8E8" stroke-width="0.890722"/>
<line y1="-0.445361" x2="1497.36" y2="-0.445361" transform="matrix(0.582581 0.812772 -0.906747 0.421675 -713.131 -689.247)" stroke="#E9E8E8" stroke-width="0.890722"/>
<line y1="-0.445361" x2="1497.36" y2="-0.445361" transform="matrix(0.582581 0.812772 -0.906747 0.421675 -718.914 -687.694)" stroke="#E9E8E8" stroke-width="0.890722"/>
<line y1="-0.445361" x2="1497.36" y2="-0.445361" transform="matrix(0.582581 0.812772 -0.906747 0.421675 -724.698 -686.141)" stroke="#E9E8E8" stroke-width="0.890722"/>
<line y1="-0.445361" x2="1497.36" y2="-0.445361" transform="matrix(0.582581 0.812772 -0.906747 0.421675 -730.481 -684.588)" stroke="#E9E8E8" stroke-width="0.890722"/>
<line y1="-0.445361" x2="1497.36" y2="-0.445361" transform="matrix(0.582581 0.812772 -0.906747 0.421675 -736.265 -683.035)" stroke="#E9E8E8" stroke-width="0.890722"/>
<line y1="-0.445361" x2="1497.36" y2="-0.445361" transform="matrix(0.582581 0.812772 -0.906747 0.421675 -742.048 -681.483)" stroke="#E9E8E8" stroke-width="0.890722"/>
<line y1="-0.445361" x2="1497.36" y2="-0.445361" transform="matrix(0.582581 0.812772 -0.906747 0.421675 -747.831 -679.93)" stroke="#E9E8E8" stroke-width="0.890722"/>
<line y1="-0.445361" x2="1497.36" y2="-0.445361" transform="matrix(0.582581 0.812772 -0.906747 0.421675 -753.615 -678.377)" stroke="#E9E8E8" stroke-width="0.890722"/>
<line y1="-0.445361" x2="1497.36" y2="-0.445361" transform="matrix(0.582581 0.812772 -0.906747 0.421675 -759.398 -676.824)" stroke="#E9E8E8" stroke-width="0.890722"/>
<line y1="-0.445361" x2="1497.36" y2="-0.445361" transform="matrix(0.582581 0.812772 -0.906747 0.421675 -765.181 -675.271)" stroke="#E9E8E8" stroke-width="0.890722"/>
<line y1="-0.445361" x2="1497.36" y2="-0.445361" transform="matrix(0.582581 0.812772 -0.906747 0.421675 -770.965 -673.719)" stroke="#E9E8E8" stroke-width="0.890722"/>
<line y1="-0.445361" x2="1497.36" y2="-0.445361" transform="matrix(0.582581 0.812772 -0.906747 0.421675 -776.749 -672.166)" stroke="#E9E8E8" stroke-width="0.890722"/>
<line y1="-0.445361" x2="1497.36" y2="-0.445361" transform="matrix(0.582581 0.812772 -0.906747 0.421675 -782.532 -670.613)" stroke="#E9E8E8" stroke-width="0.890722"/>
<line y1="-0.445361" x2="1497.36" y2="-0.445361" transform="matrix(0.582581 0.812772 -0.906747 0.421675 -788.315 -669.06)" stroke="#E9E8E8" stroke-width="0.890722"/>
<line y1="-0.445361" x2="1497.36" y2="-0.445361" transform="matrix(0.582581 0.812772 -0.906747 0.421675 -794.099 -667.507)" stroke="#E9E8E8" stroke-width="0.890722"/>
<line y1="-0.445361" x2="1497.36" y2="-0.445361" transform="matrix(0.582581 0.812772 -0.906747 0.421675 -799.882 -665.954)" stroke="#E9E8E8" stroke-width="0.890722"/>
<line y1="-0.445361" x2="1497.36" y2="-0.445361" transform="matrix(0.582581 0.812772 -0.906747 0.421675 -805.666 -664.402)" stroke="#E9E8E8" stroke-width="0.890722"/>
<line y1="-0.445361" x2="1497.36" y2="-0.445361" transform="matrix(0.582581 0.812772 -0.906747 0.421675 -811.449 -662.849)" stroke="#E9E8E8" stroke-width="0.890722"/>
<line y1="-0.445361" x2="1497.36" y2="-0.445361" transform="matrix(0.582581 0.812772 -0.906747 0.421675 -817.232 -661.296)" stroke="#E9E8E8" stroke-width="0.890722"/>
<line y1="-0.445361" x2="1497.36" y2="-0.445361" transform="matrix(0.582581 0.812772 -0.906747 0.421675 -823.016 -659.743)" stroke="#E9E8E8" stroke-width="0.890722"/>
<line y1="-0.445361" x2="1497.36" y2="-0.445361" transform="matrix(0.582581 0.812772 -0.906747 0.421675 -828.799 -658.191)" stroke="#E9E8E8" stroke-width="0.890722"/>
<line y1="-0.445361" x2="1497.36" y2="-0.445361" transform="matrix(0.582581 0.812772 -0.906747 0.421675 -834.583 -656.638)" stroke="#E9E8E8" stroke-width="0.890722"/>
<line y1="-0.445361" x2="1497.36" y2="-0.445361" transform="matrix(0.582581 0.812772 -0.906747 0.421675 -840.366 -655.085)" stroke="#E9E8E8" stroke-width="0.890722"/>
<line y1="-0.445361" x2="1497.36" y2="-0.445361" transform="matrix(0.582581 0.812772 -0.906747 0.421675 -846.15 -653.532)" stroke="#E9E8E8" stroke-width="0.890722"/>
<line y1="-0.445361" x2="1497.36" y2="-0.445361" transform="matrix(0.582581 0.812772 -0.906747 0.421675 -851.933 -651.979)" stroke="#E9E8E8" stroke-width="0.890722"/>
<line y1="-0.445361" x2="1497.36" y2="-0.445361" transform="matrix(0.582581 0.812772 -0.906747 0.421675 -857.716 -650.427)" stroke="#E9E8E8" stroke-width="0.890722"/>
<line y1="-0.445361" x2="1497.36" y2="-0.445361" transform="matrix(0.582581 0.812772 -0.906747 0.421675 -863.5 -648.874)" stroke="#E9E8E8" stroke-width="0.890722"/>
<line y1="-0.445361" x2="1497.36" y2="-0.445361" transform="matrix(0.582581 0.812772 -0.906747 0.421675 -869.283 -647.321)" stroke="#E9E8E8" stroke-width="0.890722"/>
</g>
</svg>
