<svg width="1015" height="357" viewBox="0 0 1015 357" fill="none" xmlns="http://www.w3.org/2000/svg">
<mask id="mask0" mask-type="alpha" maskUnits="userSpaceOnUse" x="0" y="0" width="1015" height="357">
<rect width="1015" height="357" fill="#8D1111"/>
</mask>
<g mask="url(#mask0)">
<line y1="-0.5" x2="1320.86" y2="-0.5" transform="matrix(0.582581 0.812772 -0.906747 0.421675 454.493 -787)" stroke="#DBDBDB"/>
<line y1="-0.5" x2="1320.86" y2="-0.5" transform="matrix(0.582581 0.812772 -0.906747 0.421675 449.392 -785.63)" stroke="#DBDBDB"/>
<line y1="-0.5" x2="1320.86" y2="-0.5" transform="matrix(0.582581 0.812772 -0.906747 0.421675 444.29 -784.26)" stroke="#DBDBDB"/>
<line y1="-0.5" x2="1320.86" y2="-0.5" transform="matrix(0.582581 0.812772 -0.906747 0.421675 439.188 -782.891)" stroke="#DBDBDB"/>
<line y1="-0.5" x2="1320.86" y2="-0.5" transform="matrix(0.582581 0.812772 -0.906747 0.421675 434.087 -781.521)" stroke="#DBDBDB"/>
<line y1="-0.5" x2="1320.86" y2="-0.5" transform="matrix(0.582581 0.812772 -0.906747 0.421675 428.985 -780.151)" stroke="#DBDBDB"/>
<line y1="-0.5" x2="1320.86" y2="-0.5" transform="matrix(0.582581 0.812772 -0.906747 0.421675 423.883 -778.781)" stroke="#DBDBDB"/>
<line y1="-0.5" x2="1320.86" y2="-0.5" transform="matrix(0.582581 0.812772 -0.906747 0.421675 418.782 -777.412)" stroke="#DBDBDB"/>
<line y1="-0.5" x2="1320.86" y2="-0.5" transform="matrix(0.582581 0.812772 -0.906747 0.421675 413.68 -776.042)" stroke="#DBDBDB"/>
<line y1="-0.5" x2="1320.86" y2="-0.5" transform="matrix(0.582581 0.812772 -0.906747 0.421675 408.578 -774.672)" stroke="#DBDBDB"/>
<line y1="-0.5" x2="1320.86" y2="-0.5" transform="matrix(0.582581 0.812772 -0.906747 0.421675 403.477 -773.302)" stroke="#DBDBDB"/>
<line y1="-0.5" x2="1320.86" y2="-0.5" transform="matrix(0.582581 0.812772 -0.906747 0.421675 398.375 -771.933)" stroke="#DBDBDB"/>
<line y1="-0.5" x2="1320.86" y2="-0.5" transform="matrix(0.582581 0.812772 -0.906747 0.421675 393.273 -770.563)" stroke="#DBDBDB"/>
<line y1="-0.5" x2="1320.86" y2="-0.5" transform="matrix(0.582581 0.812772 -0.906747 0.421675 388.171 -769.193)" stroke="#DBDBDB"/>
<line y1="-0.5" x2="1320.86" y2="-0.5" transform="matrix(0.582581 0.812772 -0.906747 0.421675 383.07 -767.823)" stroke="#DBDBDB"/>
<line y1="-0.5" x2="1320.86" y2="-0.5" transform="matrix(0.582581 0.812772 -0.906747 0.421675 377.968 -766.454)" stroke="#DBDBDB"/>
<line y1="-0.5" x2="1320.86" y2="-0.5" transform="matrix(0.582581 0.812772 -0.906747 0.421675 372.866 -765.084)" stroke="#DBDBDB"/>
<line y1="-0.5" x2="1320.86" y2="-0.5" transform="matrix(0.582581 0.812772 -0.906747 0.421675 367.765 -763.714)" stroke="#DBDBDB"/>
<line y1="-0.5" x2="1320.86" y2="-0.5" transform="matrix(0.582581 0.812772 -0.906747 0.421675 362.663 -762.344)" stroke="#DBDBDB"/>
<line y1="-0.5" x2="1320.86" y2="-0.5" transform="matrix(0.582581 0.812772 -0.906747 0.421675 357.561 -760.975)" stroke="#DBDBDB"/>
<line y1="-0.5" x2="1320.86" y2="-0.5" transform="matrix(0.582581 0.812772 -0.906747 0.421675 352.459 -759.605)" stroke="#DBDBDB"/>
<line y1="-0.5" x2="1320.86" y2="-0.5" transform="matrix(0.582581 0.812772 -0.906747 0.421675 347.358 -758.235)" stroke="#DBDBDB"/>
<line y1="-0.5" x2="1320.86" y2="-0.5" transform="matrix(0.582581 0.812772 -0.906747 0.421675 342.256 -756.865)" stroke="#DBDBDB"/>
<line y1="-0.5" x2="1320.86" y2="-0.5" transform="matrix(0.582581 0.812772 -0.906747 0.421675 337.154 -755.495)" stroke="#DBDBDB"/>
<line y1="-0.5" x2="1320.86" y2="-0.5" transform="matrix(0.582581 0.812772 -0.906747 0.421675 332.053 -754.126)" stroke="#DBDBDB"/>
<line y1="-0.5" x2="1320.86" y2="-0.5" transform="matrix(0.582581 0.812772 -0.906747 0.421675 326.951 -752.756)" stroke="#DBDBDB"/>
<line y1="-0.5" x2="1320.86" y2="-0.5" transform="matrix(0.582581 0.812772 -0.906747 0.421675 321.849 -751.386)" stroke="#DBDBDB"/>
<line y1="-0.5" x2="1320.86" y2="-0.5" transform="matrix(0.582581 0.812772 -0.906747 0.421675 316.748 -750.016)" stroke="#DBDBDB"/>
<line y1="-0.5" x2="1320.86" y2="-0.5" transform="matrix(0.582581 0.812772 -0.906747 0.421675 311.646 -748.647)" stroke="#DBDBDB"/>
<line y1="-0.5" x2="1320.86" y2="-0.5" transform="matrix(0.582581 0.812772 -0.906747 0.421675 306.544 -747.277)" stroke="#DBDBDB"/>
<line y1="-0.5" x2="1320.86" y2="-0.5" transform="matrix(0.582581 0.812772 -0.906747 0.421675 301.442 -745.907)" stroke="#DBDBDB"/>
<line y1="-0.5" x2="1320.86" y2="-0.5" transform="matrix(0.582581 0.812772 -0.906747 0.421675 296.341 -744.537)" stroke="#DBDBDB"/>
<line y1="-0.5" x2="1320.86" y2="-0.5" transform="matrix(0.582581 0.812772 -0.906747 0.421675 291.239 -743.168)" stroke="#DBDBDB"/>
<line y1="-0.5" x2="1320.86" y2="-0.5" transform="matrix(0.582581 0.812772 -0.906747 0.421675 286.137 -741.798)" stroke="#DBDBDB"/>
<line y1="-0.5" x2="1320.86" y2="-0.5" transform="matrix(0.582581 0.812772 -0.906747 0.421675 281.036 -740.428)" stroke="#DBDBDB"/>
<line y1="-0.5" x2="1320.86" y2="-0.5" transform="matrix(0.582581 0.812772 -0.906747 0.421675 275.934 -739.058)" stroke="#DBDBDB"/>
<line y1="-0.5" x2="1320.86" y2="-0.5" transform="matrix(0.582581 0.812772 -0.906747 0.421675 270.832 -737.689)" stroke="#DBDBDB"/>
<line y1="-0.5" x2="1320.86" y2="-0.5" transform="matrix(0.582581 0.812772 -0.906747 0.421675 265.73 -736.319)" stroke="#DBDBDB"/>
<line y1="-0.5" x2="1320.86" y2="-0.5" transform="matrix(0.582581 0.812772 -0.906747 0.421675 260.629 -734.949)" stroke="#DBDBDB"/>
<line y1="-0.5" x2="1320.86" y2="-0.5" transform="matrix(0.582581 0.812772 -0.906747 0.421675 255.527 -733.579)" stroke="#DBDBDB"/>
<line y1="-0.5" x2="1320.86" y2="-0.5" transform="matrix(0.582581 0.812772 -0.906747 0.421675 250.425 -732.209)" stroke="#DBDBDB"/>
<line y1="-0.5" x2="1320.86" y2="-0.5" transform="matrix(0.582581 0.812772 -0.906747 0.421675 245.324 -730.84)" stroke="#DBDBDB"/>
<line y1="-0.5" x2="1320.86" y2="-0.5" transform="matrix(0.582581 0.812772 -0.906747 0.421675 240.222 -729.47)" stroke="#DBDBDB"/>
<line y1="-0.5" x2="1320.86" y2="-0.5" transform="matrix(0.582581 0.812772 -0.906747 0.421675 235.12 -728.1)" stroke="#DBDBDB"/>
<line y1="-0.5" x2="1320.86" y2="-0.5" transform="matrix(0.582581 0.812772 -0.906747 0.421675 230.019 -726.73)" stroke="#DBDBDB"/>
<line y1="-0.5" x2="1320.86" y2="-0.5" transform="matrix(0.582581 0.812772 -0.906747 0.421675 224.917 -725.361)" stroke="#DBDBDB"/>
<line y1="-0.5" x2="1320.86" y2="-0.5" transform="matrix(0.582581 0.812772 -0.906747 0.421675 219.815 -723.991)" stroke="#DBDBDB"/>
<line y1="-0.5" x2="1320.86" y2="-0.5" transform="matrix(0.582581 0.812772 -0.906747 0.421675 214.714 -722.621)" stroke="#DBDBDB"/>
<line y1="-0.5" x2="1320.86" y2="-0.5" transform="matrix(0.582581 0.812772 -0.906747 0.421675 209.612 -721.251)" stroke="#DBDBDB"/>
<line y1="-0.5" x2="1320.86" y2="-0.5" transform="matrix(0.582581 0.812772 -0.906747 0.421675 204.51 -719.881)" stroke="#DBDBDB"/>
<line y1="-0.5" x2="1320.86" y2="-0.5" transform="matrix(0.582581 0.812772 -0.906747 0.421675 199.408 -718.512)" stroke="#DBDBDB"/>
<line y1="-0.5" x2="1320.86" y2="-0.5" transform="matrix(0.582581 0.812772 -0.906747 0.421675 194.307 -717.142)" stroke="#DBDBDB"/>
<line y1="-0.5" x2="1320.86" y2="-0.5" transform="matrix(0.582581 0.812772 -0.906747 0.421675 189.205 -715.772)" stroke="#DBDBDB"/>
<line y1="-0.5" x2="1320.86" y2="-0.5" transform="matrix(0.582581 0.812772 -0.906747 0.421675 184.103 -714.403)" stroke="#DBDBDB"/>
<line y1="-0.5" x2="1320.86" y2="-0.5" transform="matrix(0.582581 0.812772 -0.906747 0.421675 179.001 -713.033)" stroke="#DBDBDB"/>
<line y1="-0.5" x2="1320.86" y2="-0.5" transform="matrix(0.582581 0.812772 -0.906747 0.421675 173.9 -711.663)" stroke="#DBDBDB"/>
<line y1="-0.5" x2="1320.86" y2="-0.5" transform="matrix(0.582581 0.812772 -0.906747 0.421675 168.798 -710.293)" stroke="#DBDBDB"/>
<line y1="-0.5" x2="1320.86" y2="-0.5" transform="matrix(0.582581 0.812772 -0.906747 0.421675 163.696 -708.924)" stroke="#DBDBDB"/>
<line y1="-0.5" x2="1320.86" y2="-0.5" transform="matrix(0.582581 0.812772 -0.906747 0.421675 158.595 -707.554)" stroke="#DBDBDB"/>
<line y1="-0.5" x2="1320.86" y2="-0.5" transform="matrix(0.582581 0.812772 -0.906747 0.421675 153.493 -706.184)" stroke="#DBDBDB"/>
<line y1="-0.5" x2="1320.86" y2="-0.5" transform="matrix(0.582581 0.812772 -0.906747 0.421675 148.391 -704.814)" stroke="#DBDBDB"/>
<line y1="-0.5" x2="1320.86" y2="-0.5" transform="matrix(0.582581 0.812772 -0.906747 0.421675 143.29 -703.445)" stroke="#DBDBDB"/>
<line y1="-0.5" x2="1320.86" y2="-0.5" transform="matrix(0.582581 0.812772 -0.906747 0.421675 138.188 -702.075)" stroke="#DBDBDB"/>
<line y1="-0.5" x2="1320.86" y2="-0.5" transform="matrix(0.582581 0.812772 -0.906747 0.421675 133.086 -700.705)" stroke="#DBDBDB"/>
<line y1="-0.5" x2="1320.86" y2="-0.5" transform="matrix(0.582581 0.812772 -0.906747 0.421675 127.984 -699.335)" stroke="#DBDBDB"/>
<line y1="-0.5" x2="1320.86" y2="-0.5" transform="matrix(0.582581 0.812772 -0.906747 0.421675 122.883 -697.966)" stroke="#DBDBDB"/>
<line y1="-0.5" x2="1320.86" y2="-0.5" transform="matrix(0.582581 0.812772 -0.906747 0.421675 117.781 -696.596)" stroke="#DBDBDB"/>
<line y1="-0.5" x2="1320.86" y2="-0.5" transform="matrix(0.582581 0.812772 -0.906747 0.421675 112.68 -695.226)" stroke="#DBDBDB"/>
<line y1="-0.5" x2="1320.86" y2="-0.5" transform="matrix(0.582581 0.812772 -0.906747 0.421675 107.578 -693.856)" stroke="#DBDBDB"/>
<line y1="-0.5" x2="1320.86" y2="-0.5" transform="matrix(0.582581 0.812772 -0.906747 0.421675 102.476 -692.486)" stroke="#DBDBDB"/>
<line y1="-0.5" x2="1320.86" y2="-0.5" transform="matrix(0.582581 0.812772 -0.906747 0.421675 97.3745 -691.117)" stroke="#DBDBDB"/>
<line y1="-0.5" x2="1320.86" y2="-0.5" transform="matrix(0.582581 0.812772 -0.906747 0.421675 92.2727 -689.747)" stroke="#DBDBDB"/>
<line y1="-0.5" x2="1320.86" y2="-0.5" transform="matrix(0.582581 0.812772 -0.906747 0.421675 87.1709 -688.377)" stroke="#DBDBDB"/>
<line y1="-0.5" x2="1320.86" y2="-0.5" transform="matrix(0.582581 0.812772 -0.906747 0.421675 82.0693 -687.007)" stroke="#DBDBDB"/>
<line y1="-0.5" x2="1320.86" y2="-0.5" transform="matrix(0.582581 0.812772 -0.906747 0.421675 76.9675 -685.638)" stroke="#DBDBDB"/>
<line y1="-0.5" x2="1320.86" y2="-0.5" transform="matrix(0.582581 0.812772 -0.906747 0.421675 71.8657 -684.268)" stroke="#DBDBDB"/>
<line y1="-0.5" x2="1320.86" y2="-0.5" transform="matrix(0.582581 0.812772 -0.906747 0.421675 66.7642 -682.898)" stroke="#DBDBDB"/>
<line y1="-0.5" x2="1320.86" y2="-0.5" transform="matrix(0.582581 0.812772 -0.906747 0.421675 61.6626 -681.528)" stroke="#DBDBDB"/>
<line y1="-0.5" x2="1320.86" y2="-0.5" transform="matrix(0.582581 0.812772 -0.906747 0.421675 56.561 -680.158)" stroke="#DBDBDB"/>
<line y1="-0.5" x2="1320.86" y2="-0.5" transform="matrix(0.582581 0.812772 -0.906747 0.421675 51.459 -678.789)" stroke="#DBDBDB"/>
<line y1="-0.5" x2="1320.86" y2="-0.5" transform="matrix(0.582581 0.812772 -0.906747 0.421675 46.3574 -677.419)" stroke="#DBDBDB"/>
<line y1="-0.5" x2="1320.86" y2="-0.5" transform="matrix(0.582581 0.812772 -0.906747 0.421675 41.2556 -676.049)" stroke="#DBDBDB"/>
<line y1="-0.5" x2="1320.86" y2="-0.5" transform="matrix(0.582581 0.812772 -0.906747 0.421675 36.1538 -674.679)" stroke="#DBDBDB"/>
<line y1="-0.5" x2="1320.86" y2="-0.5" transform="matrix(0.582581 0.812772 -0.906747 0.421675 31.0522 -673.31)" stroke="#DBDBDB"/>
<line y1="-0.5" x2="1320.86" y2="-0.5" transform="matrix(0.582581 0.812772 -0.906747 0.421675 25.9507 -671.94)" stroke="#DBDBDB"/>
<line y1="-0.5" x2="1320.86" y2="-0.5" transform="matrix(0.582581 0.812772 -0.906747 0.421675 20.8489 -670.57)" stroke="#DBDBDB"/>
<line y1="-0.5" x2="1320.86" y2="-0.5" transform="matrix(0.582581 0.812772 -0.906747 0.421675 15.7473 -669.2)" stroke="#DBDBDB"/>
<line y1="-0.5" x2="1320.86" y2="-0.5" transform="matrix(0.582581 0.812772 -0.906747 0.421675 10.6455 -667.831)" stroke="#DBDBDB"/>
<line y1="-0.5" x2="1320.86" y2="-0.5" transform="matrix(0.582581 0.812772 -0.906747 0.421675 5.54395 -666.461)" stroke="#DBDBDB"/>
<line y1="-0.5" x2="1320.86" y2="-0.5" transform="matrix(0.582581 0.812772 -0.906747 0.421675 0.441895 -665.091)" stroke="#DBDBDB"/>
<line y1="-0.5" x2="1320.86" y2="-0.5" transform="matrix(0.582581 0.812772 -0.906747 0.421675 -4.65967 -663.721)" stroke="#DBDBDB"/>
<line y1="-0.5" x2="1320.86" y2="-0.5" transform="matrix(0.582581 0.812772 -0.906747 0.421675 -9.76123 -662.351)" stroke="#DBDBDB"/>
<line y1="-0.5" x2="1320.86" y2="-0.5" transform="matrix(0.582581 0.812772 -0.906747 0.421675 -14.863 -660.982)" stroke="#DBDBDB"/>
<line y1="-0.5" x2="1320.86" y2="-0.5" transform="matrix(0.582581 0.812772 -0.906747 0.421675 -19.9648 -659.612)" stroke="#DBDBDB"/>
<line y1="-0.5" x2="1320.86" y2="-0.5" transform="matrix(0.582581 0.812772 -0.906747 0.421675 -25.0664 -658.242)" stroke="#DBDBDB"/>
<line y1="-0.5" x2="1320.86" y2="-0.5" transform="matrix(0.582581 0.812772 -0.906747 0.421675 -30.1682 -656.873)" stroke="#DBDBDB"/>
<line y1="-0.5" x2="1320.86" y2="-0.5" transform="matrix(0.582581 0.812772 -0.906747 0.421675 -35.2698 -655.503)" stroke="#DBDBDB"/>
<line y1="-0.5" x2="1320.86" y2="-0.5" transform="matrix(0.582581 0.812772 -0.906747 0.421675 -40.3716 -654.133)" stroke="#DBDBDB"/>
<line y1="-0.5" x2="1320.86" y2="-0.5" transform="matrix(0.582581 0.812772 -0.906747 0.421675 -45.4731 -652.763)" stroke="#DBDBDB"/>
<line y1="-0.5" x2="1320.86" y2="-0.5" transform="matrix(0.582581 0.812772 -0.906747 0.421675 -50.575 -651.393)" stroke="#DBDBDB"/>
<line y1="-0.5" x2="1320.86" y2="-0.5" transform="matrix(0.582581 0.812772 -0.906747 0.421675 -55.6768 -650.024)" stroke="#DBDBDB"/>
<line y1="-0.5" x2="1320.86" y2="-0.5" transform="matrix(0.582581 0.812772 -0.906747 0.421675 -60.7783 -648.654)" stroke="#DBDBDB"/>
<line y1="-0.5" x2="1320.86" y2="-0.5" transform="matrix(0.582581 0.812772 -0.906747 0.421675 -65.8799 -647.284)" stroke="#DBDBDB"/>
<line y1="-0.5" x2="1320.86" y2="-0.5" transform="matrix(0.582581 0.812772 -0.906747 0.421675 -70.9819 -645.915)" stroke="#DBDBDB"/>
<line y1="-0.5" x2="1320.86" y2="-0.5" transform="matrix(0.582581 0.812772 -0.906747 0.421675 -76.0835 -644.545)" stroke="#DBDBDB"/>
<line y1="-0.5" x2="1320.86" y2="-0.5" transform="matrix(0.582581 0.812772 -0.906747 0.421675 -81.1853 -643.175)" stroke="#DBDBDB"/>
<line y1="-0.5" x2="1320.86" y2="-0.5" transform="matrix(0.582581 0.812772 -0.906747 0.421675 -86.2871 -641.805)" stroke="#DBDBDB"/>
<line y1="-0.5" x2="1320.86" y2="-0.5" transform="matrix(0.582581 0.812772 -0.906747 0.421675 -91.3887 -640.435)" stroke="#DBDBDB"/>
<line y1="-0.5" x2="1320.86" y2="-0.5" transform="matrix(0.582581 0.812772 -0.906747 0.421675 -96.4902 -639.066)" stroke="#DBDBDB"/>
<line y1="-0.5" x2="1320.86" y2="-0.5" transform="matrix(0.582581 0.812772 -0.906747 0.421675 -101.592 -637.696)" stroke="#DBDBDB"/>
<line y1="-0.5" x2="1320.86" y2="-0.5" transform="matrix(0.582581 0.812772 -0.906747 0.421675 -106.694 -636.326)" stroke="#DBDBDB"/>
<line y1="-0.5" x2="1320.86" y2="-0.5" transform="matrix(0.582581 0.812772 -0.906747 0.421675 -111.796 -634.956)" stroke="#DBDBDB"/>
<line y1="-0.5" x2="1320.86" y2="-0.5" transform="matrix(0.582581 0.812772 -0.906747 0.421675 -116.897 -633.586)" stroke="#DBDBDB"/>
<line y1="-0.5" x2="1320.86" y2="-0.5" transform="matrix(0.582581 0.812772 -0.906747 0.421675 -121.999 -632.217)" stroke="#DBDBDB"/>
<line y1="-0.5" x2="1320.86" y2="-0.5" transform="matrix(0.582581 0.812772 -0.906747 0.421675 -127.101 -630.847)" stroke="#DBDBDB"/>
<line y1="-0.5" x2="1320.86" y2="-0.5" transform="matrix(0.582581 0.812772 -0.906747 0.421675 -132.203 -629.477)" stroke="#DBDBDB"/>
<line y1="-0.5" x2="1320.86" y2="-0.5" transform="matrix(0.582581 0.812772 -0.906747 0.421675 -137.304 -628.107)" stroke="#DBDBDB"/>
<line y1="-0.5" x2="1320.86" y2="-0.5" transform="matrix(0.582581 0.812772 -0.906747 0.421675 -142.406 -626.738)" stroke="#DBDBDB"/>
<line y1="-0.5" x2="1320.86" y2="-0.5" transform="matrix(0.582581 0.812772 -0.906747 0.421675 -147.508 -625.368)" stroke="#DBDBDB"/>
<line y1="-0.5" x2="1320.86" y2="-0.5" transform="matrix(0.582581 0.812772 -0.906747 0.421675 -152.609 -623.998)" stroke="#DBDBDB"/>
<line y1="-0.5" x2="1320.86" y2="-0.5" transform="matrix(0.582581 0.812772 -0.906747 0.421675 -157.711 -622.628)" stroke="#DBDBDB"/>
<line y1="-0.5" x2="1320.86" y2="-0.5" transform="matrix(0.582581 0.812772 -0.906747 0.421675 -162.813 -621.259)" stroke="#DBDBDB"/>
<line y1="-0.5" x2="1320.86" y2="-0.5" transform="matrix(0.582581 0.812772 -0.906747 0.421675 -167.914 -619.889)" stroke="#DBDBDB"/>
<line y1="-0.5" x2="1320.86" y2="-0.5" transform="matrix(0.582581 0.812772 -0.906747 0.421675 -173.016 -618.519)" stroke="#DBDBDB"/>
<line y1="-0.5" x2="1320.86" y2="-0.5" transform="matrix(0.582581 0.812772 -0.906747 0.421675 -178.118 -617.149)" stroke="#DBDBDB"/>
<line y1="-0.5" x2="1320.86" y2="-0.5" transform="matrix(0.582581 0.812772 -0.906747 0.421675 -183.219 -615.78)" stroke="#DBDBDB"/>
<line y1="-0.5" x2="1320.86" y2="-0.5" transform="matrix(0.582581 0.812772 -0.906747 0.421675 -188.321 -614.41)" stroke="#DBDBDB"/>
<line y1="-0.5" x2="1320.86" y2="-0.5" transform="matrix(0.582581 0.812772 -0.906747 0.421675 -193.423 -613.04)" stroke="#DBDBDB"/>
<line y1="-0.5" x2="1320.86" y2="-0.5" transform="matrix(0.582581 0.812772 -0.906747 0.421675 -198.525 -611.67)" stroke="#DBDBDB"/>
<line y1="-0.5" x2="1320.86" y2="-0.5" transform="matrix(0.582581 0.812772 -0.906747 0.421675 -203.626 -610.3)" stroke="#DBDBDB"/>
<line y1="-0.5" x2="1320.86" y2="-0.5" transform="matrix(0.582581 0.812772 -0.906747 0.421675 -208.728 -608.931)" stroke="#DBDBDB"/>
<line y1="-0.5" x2="1320.86" y2="-0.5" transform="matrix(0.582581 0.812772 -0.906747 0.421675 -213.83 -607.561)" stroke="#DBDBDB"/>
<line y1="-0.5" x2="1320.86" y2="-0.5" transform="matrix(0.582581 0.812772 -0.906747 0.421675 -218.931 -606.191)" stroke="#DBDBDB"/>
<line y1="-0.5" x2="1320.86" y2="-0.5" transform="matrix(0.582581 0.812772 -0.906747 0.421675 -224.033 -604.821)" stroke="#DBDBDB"/>
<line y1="-0.5" x2="1320.86" y2="-0.5" transform="matrix(0.582581 0.812772 -0.906747 0.421675 -229.135 -603.452)" stroke="#DBDBDB"/>
<line y1="-0.5" x2="1320.86" y2="-0.5" transform="matrix(0.582581 0.812772 -0.906747 0.421675 -234.237 -602.082)" stroke="#DBDBDB"/>
<line y1="-0.5" x2="1320.86" y2="-0.5" transform="matrix(0.582581 0.812772 -0.906747 0.421675 -239.338 -600.712)" stroke="#DBDBDB"/>
<line y1="-0.5" x2="1320.86" y2="-0.5" transform="matrix(0.582581 0.812772 -0.906747 0.421675 -244.44 -599.343)" stroke="#DBDBDB"/>
<line y1="-0.5" x2="1320.86" y2="-0.5" transform="matrix(0.582581 0.812772 -0.906747 0.421675 -249.542 -597.973)" stroke="#DBDBDB"/>
<line y1="-0.5" x2="1320.86" y2="-0.5" transform="matrix(0.582581 0.812772 -0.906747 0.421675 -254.643 -596.603)" stroke="#DBDBDB"/>
<line y1="-0.5" x2="1320.86" y2="-0.5" transform="matrix(0.582581 0.812772 -0.906747 0.421675 -259.745 -595.233)" stroke="#DBDBDB"/>
<line y1="-0.5" x2="1320.86" y2="-0.5" transform="matrix(0.582581 0.812772 -0.906747 0.421675 -264.847 -593.863)" stroke="#DBDBDB"/>
<line y1="-0.5" x2="1320.86" y2="-0.5" transform="matrix(0.582581 0.812772 -0.906747 0.421675 -269.948 -592.494)" stroke="#DBDBDB"/>
<line y1="-0.5" x2="1320.86" y2="-0.5" transform="matrix(0.582581 0.812772 -0.906747 0.421675 -275.05 -591.124)" stroke="#DBDBDB"/>
<line y1="-0.5" x2="1320.86" y2="-0.5" transform="matrix(0.582581 0.812772 -0.906747 0.421675 -280.152 -589.754)" stroke="#DBDBDB"/>
<line y1="-0.5" x2="1320.86" y2="-0.5" transform="matrix(0.582581 0.812772 -0.906747 0.421675 -285.253 -588.384)" stroke="#DBDBDB"/>
<line y1="-0.5" x2="1320.86" y2="-0.5" transform="matrix(0.582581 0.812772 -0.906747 0.421675 -290.355 -587.015)" stroke="#DBDBDB"/>
<line y1="-0.5" x2="1320.86" y2="-0.5" transform="matrix(0.582581 0.812772 -0.906747 0.421675 -295.457 -585.645)" stroke="#DBDBDB"/>
<line y1="-0.5" x2="1320.86" y2="-0.5" transform="matrix(0.582581 0.812772 -0.906747 0.421675 -300.559 -584.275)" stroke="#DBDBDB"/>
<line y1="-0.5" x2="1320.86" y2="-0.5" transform="matrix(0.582581 0.812772 -0.906747 0.421675 -305.66 -582.905)" stroke="#DBDBDB"/>
<line y1="-0.5" x2="1320.86" y2="-0.5" transform="matrix(0.582581 0.812772 -0.906747 0.421675 -310.762 -581.536)" stroke="#DBDBDB"/>
<line y1="-0.5" x2="1320.86" y2="-0.5" transform="matrix(0.582581 0.812772 -0.906747 0.421675 -315.864 -580.166)" stroke="#DBDBDB"/>
<line y1="-0.5" x2="1320.86" y2="-0.5" transform="matrix(0.582581 0.812772 -0.906747 0.421675 -320.965 -578.796)" stroke="#DBDBDB"/>
<line y1="-0.5" x2="1320.86" y2="-0.5" transform="matrix(0.582581 0.812772 -0.906747 0.421675 -326.067 -577.426)" stroke="#DBDBDB"/>
<line y1="-0.5" x2="1320.86" y2="-0.5" transform="matrix(0.582581 0.812772 -0.906747 0.421675 -331.169 -576.057)" stroke="#DBDBDB"/>
<line y1="-0.5" x2="1320.86" y2="-0.5" transform="matrix(0.582581 0.812772 -0.906747 0.421675 -336.271 -574.687)" stroke="#DBDBDB"/>
<line y1="-0.5" x2="1320.86" y2="-0.5" transform="matrix(0.582581 0.812772 -0.906747 0.421675 -341.372 -573.317)" stroke="#DBDBDB"/>
<line y1="-0.5" x2="1320.86" y2="-0.5" transform="matrix(0.582581 0.812772 -0.906747 0.421675 -346.474 -571.947)" stroke="#DBDBDB"/>
<line y1="-0.5" x2="1320.86" y2="-0.5" transform="matrix(0.582581 0.812772 -0.906747 0.421675 -351.576 -570.577)" stroke="#DBDBDB"/>
<line y1="-0.5" x2="1320.86" y2="-0.5" transform="matrix(0.582581 0.812772 -0.906747 0.421675 -356.677 -569.207)" stroke="#DBDBDB"/>
<line y1="-0.5" x2="1320.86" y2="-0.5" transform="matrix(0.582581 0.812772 -0.906747 0.421675 -361.779 -567.838)" stroke="#DBDBDB"/>
<line y1="-0.5" x2="1320.86" y2="-0.5" transform="matrix(0.582581 0.812772 -0.906747 0.421675 -366.881 -566.468)" stroke="#DBDBDB"/>
<line y1="-0.5" x2="1320.86" y2="-0.5" transform="matrix(0.582581 0.812772 -0.906747 0.421675 -371.982 -565.098)" stroke="#DBDBDB"/>
<line y1="-0.5" x2="1320.86" y2="-0.5" transform="matrix(0.582581 0.812772 -0.906747 0.421675 -377.084 -563.729)" stroke="#DBDBDB"/>
<line y1="-0.5" x2="1320.86" y2="-0.5" transform="matrix(0.582581 0.812772 -0.906747 0.421675 -382.186 -562.359)" stroke="#DBDBDB"/>
<line y1="-0.5" x2="1320.86" y2="-0.5" transform="matrix(0.582581 0.812772 -0.906747 0.421675 -387.288 -560.989)" stroke="#DBDBDB"/>
<line y1="-0.5" x2="1320.86" y2="-0.5" transform="matrix(0.582581 0.812772 -0.906747 0.421675 -392.389 -559.619)" stroke="#DBDBDB"/>
<line y1="-0.5" x2="1320.86" y2="-0.5" transform="matrix(0.582581 0.812772 -0.906747 0.421675 -397.491 -558.249)" stroke="#DBDBDB"/>
<line y1="-0.5" x2="1320.86" y2="-0.5" transform="matrix(0.582581 0.812772 -0.906747 0.421675 -402.593 -556.88)" stroke="#DBDBDB"/>
<line y1="-0.5" x2="1320.86" y2="-0.5" transform="matrix(0.582581 0.812772 -0.906747 0.421675 -407.694 -555.51)" stroke="#DBDBDB"/>
<line y1="-0.5" x2="1320.86" y2="-0.5" transform="matrix(0.582581 0.812772 -0.906747 0.421675 -412.796 -554.14)" stroke="#DBDBDB"/>
<line y1="-0.5" x2="1320.86" y2="-0.5" transform="matrix(0.582581 0.812772 -0.906747 0.421675 -417.897 -552.77)" stroke="#DBDBDB"/>
<line y1="-0.5" x2="1320.86" y2="-0.5" transform="matrix(0.582581 0.812772 -0.906747 0.421675 -423 -551.401)" stroke="#DBDBDB"/>
<line y1="-0.5" x2="1320.86" y2="-0.5" transform="matrix(0.582581 0.812772 -0.906747 0.421675 -428.101 -550.031)" stroke="#DBDBDB"/>
<line y1="-0.5" x2="1320.86" y2="-0.5" transform="matrix(0.582581 0.812772 -0.906747 0.421675 -433.203 -548.661)" stroke="#DBDBDB"/>
<line y1="-0.5" x2="1320.86" y2="-0.5" transform="matrix(0.582581 0.812772 -0.906747 0.421675 -438.305 -547.291)" stroke="#DBDBDB"/>
<line y1="-0.5" x2="1320.86" y2="-0.5" transform="matrix(0.582581 0.812772 -0.906747 0.421675 -443.406 -545.922)" stroke="#DBDBDB"/>
<line y1="-0.5" x2="1320.86" y2="-0.5" transform="matrix(0.582581 0.812772 -0.906747 0.421675 -448.508 -544.552)" stroke="#DBDBDB"/>
<line y1="-0.5" x2="1320.86" y2="-0.5" transform="matrix(0.582581 0.812772 -0.906747 0.421675 -453.609 -543.182)" stroke="#DBDBDB"/>
<line y1="-0.5" x2="1320.86" y2="-0.5" transform="matrix(0.582581 0.812772 -0.906747 0.421675 -458.711 -541.812)" stroke="#DBDBDB"/>
<line y1="-0.5" x2="1320.86" y2="-0.5" transform="matrix(0.582581 0.812772 -0.906747 0.421675 -463.813 -540.443)" stroke="#DBDBDB"/>
<line y1="-0.5" x2="1320.86" y2="-0.5" transform="matrix(0.582581 0.812772 -0.906747 0.421675 -468.915 -539.073)" stroke="#DBDBDB"/>
<line y1="-0.5" x2="1320.86" y2="-0.5" transform="matrix(0.582581 0.812772 -0.906747 0.421675 -474.016 -537.703)" stroke="#DBDBDB"/>
<line y1="-0.5" x2="1320.86" y2="-0.5" transform="matrix(0.582581 0.812772 -0.906747 0.421675 -479.118 -536.334)" stroke="#DBDBDB"/>
<line y1="-0.5" x2="1320.86" y2="-0.5" transform="matrix(0.582581 0.812772 -0.906747 0.421675 -484.22 -534.964)" stroke="#DBDBDB"/>
<line y1="-0.5" x2="1320.86" y2="-0.5" transform="matrix(0.582581 0.812772 -0.906747 0.421675 -489.322 -533.594)" stroke="#DBDBDB"/>
<line y1="-0.5" x2="1320.86" y2="-0.5" transform="matrix(0.582581 0.812772 -0.906747 0.421675 -494.423 -532.224)" stroke="#DBDBDB"/>
<line y1="-0.5" x2="1320.86" y2="-0.5" transform="matrix(0.582581 0.812772 -0.906747 0.421675 -499.525 -530.854)" stroke="#DBDBDB"/>
<line y1="-0.5" x2="1320.86" y2="-0.5" transform="matrix(0.582581 0.812772 -0.906747 0.421675 -504.626 -529.484)" stroke="#DBDBDB"/>
<line y1="-0.5" x2="1320.86" y2="-0.5" transform="matrix(0.582581 0.812772 -0.906747 0.421675 -509.728 -528.115)" stroke="#DBDBDB"/>
<line y1="-0.5" x2="1320.86" y2="-0.5" transform="matrix(0.582581 0.812772 -0.906747 0.421675 -514.83 -526.745)" stroke="#DBDBDB"/>
<line y1="-0.5" x2="1320.86" y2="-0.5" transform="matrix(0.582581 0.812772 -0.906747 0.421675 -519.932 -525.375)" stroke="#DBDBDB"/>
<line y1="-0.5" x2="1320.86" y2="-0.5" transform="matrix(0.582581 0.812772 -0.906747 0.421675 -525.034 -524.005)" stroke="#DBDBDB"/>
<line y1="-0.5" x2="1320.86" y2="-0.5" transform="matrix(0.582581 0.812772 -0.906747 0.421675 -530.135 -522.636)" stroke="#DBDBDB"/>
<line y1="-0.5" x2="1320.86" y2="-0.5" transform="matrix(0.582581 0.812772 -0.906747 0.421675 -535.237 -521.266)" stroke="#DBDBDB"/>
<line y1="-0.5" x2="1320.86" y2="-0.5" transform="matrix(0.582581 0.812772 -0.906747 0.421675 -540.338 -519.896)" stroke="#DBDBDB"/>
<line y1="-0.5" x2="1320.86" y2="-0.5" transform="matrix(0.582581 0.812772 -0.906747 0.421675 -545.44 -518.526)" stroke="#DBDBDB"/>
<line y1="-0.5" x2="1320.86" y2="-0.5" transform="matrix(0.582581 0.812772 -0.906747 0.421675 -550.542 -517.156)" stroke="#DBDBDB"/>
<line y1="-0.5" x2="1320.86" y2="-0.5" transform="matrix(0.582581 0.812772 -0.906747 0.421675 -555.644 -515.787)" stroke="#DBDBDB"/>
<line y1="-0.5" x2="1320.86" y2="-0.5" transform="matrix(0.582581 0.812772 -0.906747 0.421675 -560.746 -514.417)" stroke="#DBDBDB"/>
<line y1="-0.5" x2="1320.86" y2="-0.5" transform="matrix(0.582581 0.812772 -0.906747 0.421675 -565.847 -513.047)" stroke="#DBDBDB"/>
<line y1="-0.5" x2="1320.86" y2="-0.5" transform="matrix(0.582581 0.812772 -0.906747 0.421675 -570.949 -511.678)" stroke="#DBDBDB"/>
<line y1="-0.5" x2="1320.86" y2="-0.5" transform="matrix(0.582581 0.812772 -0.906747 0.421675 -576.051 -510.308)" stroke="#DBDBDB"/>
<line y1="-0.5" x2="1320.86" y2="-0.5" transform="matrix(0.582581 0.812772 -0.906747 0.421675 -581.152 -508.938)" stroke="#DBDBDB"/>
<line y1="-0.5" x2="1320.86" y2="-0.5" transform="matrix(0.582581 0.812772 -0.906747 0.421675 -586.254 -507.568)" stroke="#DBDBDB"/>
<line y1="-0.5" x2="1320.86" y2="-0.5" transform="matrix(0.582581 0.812772 -0.906747 0.421675 -591.356 -506.199)" stroke="#DBDBDB"/>
<line y1="-0.5" x2="1320.86" y2="-0.5" transform="matrix(0.582581 0.812772 -0.906747 0.421675 -596.457 -504.829)" stroke="#DBDBDB"/>
<line y1="-0.5" x2="1320.86" y2="-0.5" transform="matrix(0.582581 0.812772 -0.906747 0.421675 -601.559 -503.459)" stroke="#DBDBDB"/>
<line y1="-0.5" x2="1320.86" y2="-0.5" transform="matrix(0.582581 0.812772 -0.906747 0.421675 -606.661 -502.089)" stroke="#DBDBDB"/>
<line y1="-0.5" x2="1320.86" y2="-0.5" transform="matrix(0.582581 0.812772 -0.906747 0.421675 -611.762 -500.719)" stroke="#DBDBDB"/>
<line y1="-0.5" x2="1320.86" y2="-0.5" transform="matrix(0.582581 0.812772 -0.906747 0.421675 -616.864 -499.35)" stroke="#DBDBDB"/>
<line y1="-0.5" x2="1320.86" y2="-0.5" transform="matrix(0.582581 0.812772 -0.906747 0.421675 -621.966 -497.98)" stroke="#DBDBDB"/>
<line y1="-0.5" x2="1320.86" y2="-0.5" transform="matrix(0.582581 0.812772 -0.906747 0.421675 -627.067 -496.61)" stroke="#DBDBDB"/>
<line y1="-0.5" x2="1320.86" y2="-0.5" transform="matrix(0.582581 0.812772 -0.906747 0.421675 -632.169 -495.24)" stroke="#DBDBDB"/>
<line y1="-0.5" x2="1320.86" y2="-0.5" transform="matrix(0.582581 0.812772 -0.906747 0.421675 -637.271 -493.871)" stroke="#DBDBDB"/>
<line y1="-0.5" x2="1320.86" y2="-0.5" transform="matrix(0.582581 0.812772 -0.906747 0.421675 -642.373 -492.501)" stroke="#DBDBDB"/>
<line y1="-0.5" x2="1320.86" y2="-0.5" transform="matrix(0.582581 0.812772 -0.906747 0.421675 -647.474 -491.131)" stroke="#DBDBDB"/>
<line y1="-0.5" x2="1320.86" y2="-0.5" transform="matrix(0.582581 0.812772 -0.906747 0.421675 -652.576 -489.762)" stroke="#DBDBDB"/>
<line y1="-0.5" x2="1320.86" y2="-0.5" transform="matrix(0.582581 0.812772 -0.906747 0.421675 -657.678 -488.392)" stroke="#DBDBDB"/>
<line y1="-0.5" x2="1320.86" y2="-0.5" transform="matrix(0.582581 0.812772 -0.906747 0.421675 -662.779 -487.022)" stroke="#DBDBDB"/>
<line y1="-0.5" x2="1320.86" y2="-0.5" transform="matrix(0.582581 0.812772 -0.906747 0.421675 -667.881 -485.652)" stroke="#DBDBDB"/>
<line y1="-0.5" x2="1320.86" y2="-0.5" transform="matrix(0.582581 0.812772 -0.906747 0.421675 -672.983 -484.282)" stroke="#DBDBDB"/>
<line y1="-0.5" x2="1320.86" y2="-0.5" transform="matrix(0.582581 0.812772 -0.906747 0.421675 -678.085 -482.913)" stroke="#DBDBDB"/>
<line y1="-0.5" x2="1320.86" y2="-0.5" transform="matrix(0.582581 0.812772 -0.906747 0.421675 -683.186 -481.543)" stroke="#DBDBDB"/>
<line y1="-0.5" x2="1320.86" y2="-0.5" transform="matrix(0.582581 0.812772 -0.906747 0.421675 -688.288 -480.173)" stroke="#DBDBDB"/>
<line y1="-0.5" x2="1320.86" y2="-0.5" transform="matrix(0.582581 0.812772 -0.906747 0.421675 -693.39 -478.803)" stroke="#DBDBDB"/>
<line y1="-0.5" x2="1320.86" y2="-0.5" transform="matrix(0.582581 0.812772 -0.906747 0.421675 -698.491 -477.433)" stroke="#DBDBDB"/>
<line y1="-0.5" x2="1320.86" y2="-0.5" transform="matrix(0.582581 0.812772 -0.906747 0.421675 -703.593 -476.064)" stroke="#DBDBDB"/>
<line y1="-0.5" x2="1320.86" y2="-0.5" transform="matrix(0.582581 0.812772 -0.906747 0.421675 -708.695 -474.694)" stroke="#DBDBDB"/>
<line y1="-0.5" x2="1320.86" y2="-0.5" transform="matrix(0.582581 0.812772 -0.906747 0.421675 -713.796 -473.324)" stroke="#DBDBDB"/>
<line y1="-0.5" x2="1320.86" y2="-0.5" transform="matrix(0.582581 0.812772 -0.906747 0.421675 -718.898 -471.954)" stroke="#DBDBDB"/>
<line y1="-0.5" x2="1320.86" y2="-0.5" transform="matrix(0.582581 0.812772 -0.906747 0.421675 -724 -470.585)" stroke="#DBDBDB"/>
<line y1="-0.5" x2="1320.86" y2="-0.5" transform="matrix(0.582581 0.812772 -0.906747 0.421675 -729.102 -469.215)" stroke="#DBDBDB"/>
<line y1="-0.5" x2="1320.86" y2="-0.5" transform="matrix(0.582581 0.812772 -0.906747 0.421675 -734.203 -467.845)" stroke="#DBDBDB"/>
<line y1="-0.5" x2="1320.86" y2="-0.5" transform="matrix(0.582581 0.812772 -0.906747 0.421675 -739.305 -466.475)" stroke="#DBDBDB"/>
<line y1="-0.5" x2="1320.86" y2="-0.5" transform="matrix(0.582581 0.812772 -0.906747 0.421675 -744.407 -465.106)" stroke="#DBDBDB"/>
<line y1="-0.5" x2="1320.86" y2="-0.5" transform="matrix(0.582581 0.812772 -0.906747 0.421675 -749.508 -463.736)" stroke="#DBDBDB"/>
<line y1="-0.5" x2="1320.86" y2="-0.5" transform="matrix(0.582581 0.812772 -0.906747 0.421675 -754.61 -462.366)" stroke="#DBDBDB"/>
<line y1="-0.5" x2="1320.86" y2="-0.5" transform="matrix(0.582581 0.812772 -0.906747 0.421675 -759.712 -460.996)" stroke="#DBDBDB"/>
<line y1="-0.5" x2="1320.86" y2="-0.5" transform="matrix(0.582581 0.812772 -0.906747 0.421675 -764.813 -459.626)" stroke="#DBDBDB"/>
<line y1="-0.5" x2="1320.86" y2="-0.5" transform="matrix(0.582581 0.812772 -0.906747 0.421675 -769.915 -458.257)" stroke="#DBDBDB"/>
</g>
</svg>
