<svg width="116" height="76" viewBox="0 0 116 76" fill="none" xmlns="http://www.w3.org/2000/svg">
<mask id="mask0" mask-type="alpha" maskUnits="userSpaceOnUse" x="0" y="0" width="116" height="76">
<rect x="0.579712" width="114.551" height="76" fill="#8D1111"/>
</mask>
<g mask="url(#mask0)">
<line y1="-0.275362" x2="727.429" y2="-0.275362" transform="matrix(0.582581 0.812772 -0.906747 0.421675 91.721 -465.913)" stroke="#DBDBDB" stroke-width="0.550725"/>
<line y1="-0.275362" x2="727.429" y2="-0.275362" transform="matrix(0.582581 0.812772 -0.906747 0.421675 88.9114 -465.159)" stroke="#DBDBDB" stroke-width="0.550725"/>
<line y1="-0.275362" x2="727.429" y2="-0.275362" transform="matrix(0.582581 0.812772 -0.906747 0.421675 86.1018 -464.404)" stroke="#DBDBDB" stroke-width="0.550725"/>
<line y1="-0.275362" x2="727.429" y2="-0.275362" transform="matrix(0.582581 0.812772 -0.906747 0.421675 83.2922 -463.65)" stroke="#DBDBDB" stroke-width="0.550725"/>
<line y1="-0.275362" x2="727.429" y2="-0.275362" transform="matrix(0.582581 0.812772 -0.906747 0.421675 80.4826 -462.896)" stroke="#DBDBDB" stroke-width="0.550725"/>
<line y1="-0.275362" x2="727.429" y2="-0.275362" transform="matrix(0.582581 0.812772 -0.906747 0.421675 77.6729 -462.141)" stroke="#DBDBDB" stroke-width="0.550725"/>
<line y1="-0.275362" x2="727.429" y2="-0.275362" transform="matrix(0.582581 0.812772 -0.906747 0.421675 74.8632 -461.387)" stroke="#DBDBDB" stroke-width="0.550725"/>
<line y1="-0.275362" x2="727.429" y2="-0.275362" transform="matrix(0.582581 0.812772 -0.906747 0.421675 72.0536 -460.632)" stroke="#DBDBDB" stroke-width="0.550725"/>
<line y1="-0.275362" x2="727.429" y2="-0.275362" transform="matrix(0.582581 0.812772 -0.906747 0.421675 69.244 -459.878)" stroke="#DBDBDB" stroke-width="0.550725"/>
<line y1="-0.275362" x2="727.429" y2="-0.275362" transform="matrix(0.582581 0.812772 -0.906747 0.421675 66.4343 -459.124)" stroke="#DBDBDB" stroke-width="0.550725"/>
<line y1="-0.275362" x2="727.429" y2="-0.275362" transform="matrix(0.582581 0.812772 -0.906747 0.421675 63.6248 -458.37)" stroke="#DBDBDB" stroke-width="0.550725"/>
<line y1="-0.275362" x2="727.429" y2="-0.275362" transform="matrix(0.582581 0.812772 -0.906747 0.421675 60.815 -457.615)" stroke="#DBDBDB" stroke-width="0.550725"/>
<line y1="-0.275362" x2="727.429" y2="-0.275362" transform="matrix(0.582581 0.812772 -0.906747 0.421675 58.0054 -456.861)" stroke="#DBDBDB" stroke-width="0.550725"/>
<line y1="-0.275362" x2="727.429" y2="-0.275362" transform="matrix(0.582581 0.812772 -0.906747 0.421675 55.1959 -456.106)" stroke="#DBDBDB" stroke-width="0.550725"/>
<line y1="-0.275362" x2="727.429" y2="-0.275362" transform="matrix(0.582581 0.812772 -0.906747 0.421675 52.3862 -455.352)" stroke="#DBDBDB" stroke-width="0.550725"/>
<line y1="-0.275362" x2="727.429" y2="-0.275362" transform="matrix(0.582581 0.812772 -0.906747 0.421675 49.5766 -454.598)" stroke="#DBDBDB" stroke-width="0.550725"/>
<line y1="-0.275362" x2="727.429" y2="-0.275362" transform="matrix(0.582581 0.812772 -0.906747 0.421675 46.767 -453.843)" stroke="#DBDBDB" stroke-width="0.550725"/>
<line y1="-0.275362" x2="727.429" y2="-0.275362" transform="matrix(0.582581 0.812772 -0.906747 0.421675 43.9573 -453.089)" stroke="#DBDBDB" stroke-width="0.550725"/>
<line y1="-0.275362" x2="727.429" y2="-0.275362" transform="matrix(0.582581 0.812772 -0.906747 0.421675 41.1476 -452.335)" stroke="#DBDBDB" stroke-width="0.550725"/>
<line y1="-0.275362" x2="727.429" y2="-0.275362" transform="matrix(0.582581 0.812772 -0.906747 0.421675 38.338 -451.58)" stroke="#DBDBDB" stroke-width="0.550725"/>
<line y1="-0.275362" x2="727.429" y2="-0.275362" transform="matrix(0.582581 0.812772 -0.906747 0.421675 35.5284 -450.826)" stroke="#DBDBDB" stroke-width="0.550725"/>
<line y1="-0.275362" x2="727.429" y2="-0.275362" transform="matrix(0.582581 0.812772 -0.906747 0.421675 32.7188 -450.071)" stroke="#DBDBDB" stroke-width="0.550725"/>
<line y1="-0.275362" x2="727.429" y2="-0.275362" transform="matrix(0.582581 0.812772 -0.906747 0.421675 29.909 -449.317)" stroke="#DBDBDB" stroke-width="0.550725"/>
<line y1="-0.275362" x2="727.429" y2="-0.275362" transform="matrix(0.582581 0.812772 -0.906747 0.421675 27.0995 -448.563)" stroke="#DBDBDB" stroke-width="0.550725"/>
<line y1="-0.275362" x2="727.429" y2="-0.275362" transform="matrix(0.582581 0.812772 -0.906747 0.421675 24.2899 -447.808)" stroke="#DBDBDB" stroke-width="0.550725"/>
<line y1="-0.275362" x2="727.429" y2="-0.275362" transform="matrix(0.582581 0.812772 -0.906747 0.421675 21.4802 -447.054)" stroke="#DBDBDB" stroke-width="0.550725"/>
<line y1="-0.275362" x2="727.429" y2="-0.275362" transform="matrix(0.582581 0.812772 -0.906747 0.421675 18.6706 -446.3)" stroke="#DBDBDB" stroke-width="0.550725"/>
<line y1="-0.275362" x2="727.429" y2="-0.275362" transform="matrix(0.582581 0.812772 -0.906747 0.421675 15.861 -445.545)" stroke="#DBDBDB" stroke-width="0.550725"/>
<line y1="-0.275362" x2="727.429" y2="-0.275362" transform="matrix(0.582581 0.812772 -0.906747 0.421675 13.0513 -444.791)" stroke="#DBDBDB" stroke-width="0.550725"/>
<line y1="-0.275362" x2="727.429" y2="-0.275362" transform="matrix(0.582581 0.812772 -0.906747 0.421675 10.2418 -444.037)" stroke="#DBDBDB" stroke-width="0.550725"/>
<line y1="-0.275362" x2="727.429" y2="-0.275362" transform="matrix(0.582581 0.812772 -0.906747 0.421675 7.43207 -443.282)" stroke="#DBDBDB" stroke-width="0.550725"/>
<line y1="-0.275362" x2="727.429" y2="-0.275362" transform="matrix(0.582581 0.812772 -0.906747 0.421675 4.62231 -442.528)" stroke="#DBDBDB" stroke-width="0.550725"/>
<line y1="-0.275362" x2="727.429" y2="-0.275362" transform="matrix(0.582581 0.812772 -0.906747 0.421675 1.81287 -441.773)" stroke="#DBDBDB" stroke-width="0.550725"/>
<line y1="-0.275362" x2="727.429" y2="-0.275362" transform="matrix(0.582581 0.812772 -0.906747 0.421675 -0.996887 -441.019)" stroke="#DBDBDB" stroke-width="0.550725"/>
<line y1="-0.275362" x2="727.429" y2="-0.275362" transform="matrix(0.582581 0.812772 -0.906747 0.421675 -3.80646 -440.265)" stroke="#DBDBDB" stroke-width="0.550725"/>
<line y1="-0.275362" x2="727.429" y2="-0.275362" transform="matrix(0.582581 0.812772 -0.906747 0.421675 -6.61609 -439.51)" stroke="#DBDBDB" stroke-width="0.550725"/>
<line y1="-0.275362" x2="727.429" y2="-0.275362" transform="matrix(0.582581 0.812772 -0.906747 0.421675 -9.42572 -438.756)" stroke="#DBDBDB" stroke-width="0.550725"/>
<line y1="-0.275362" x2="727.429" y2="-0.275362" transform="matrix(0.582581 0.812772 -0.906747 0.421675 -12.2354 -438.002)" stroke="#DBDBDB" stroke-width="0.550725"/>
<line y1="-0.275362" x2="727.429" y2="-0.275362" transform="matrix(0.582581 0.812772 -0.906747 0.421675 -15.0449 -437.247)" stroke="#DBDBDB" stroke-width="0.550725"/>
<line y1="-0.275362" x2="727.429" y2="-0.275362" transform="matrix(0.582581 0.812772 -0.906747 0.421675 -17.8546 -436.493)" stroke="#DBDBDB" stroke-width="0.550725"/>
<line y1="-0.275362" x2="727.429" y2="-0.275362" transform="matrix(0.582581 0.812772 -0.906747 0.421675 -20.6644 -435.739)" stroke="#DBDBDB" stroke-width="0.550725"/>
<line y1="-0.275362" x2="727.429" y2="-0.275362" transform="matrix(0.582581 0.812772 -0.906747 0.421675 -23.4739 -434.984)" stroke="#DBDBDB" stroke-width="0.550725"/>
<line y1="-0.275362" x2="727.429" y2="-0.275362" transform="matrix(0.582581 0.812772 -0.906747 0.421675 -26.2835 -434.23)" stroke="#DBDBDB" stroke-width="0.550725"/>
<line y1="-0.275362" x2="727.429" y2="-0.275362" transform="matrix(0.582581 0.812772 -0.906747 0.421675 -29.0932 -433.475)" stroke="#DBDBDB" stroke-width="0.550725"/>
<line y1="-0.275362" x2="727.429" y2="-0.275362" transform="matrix(0.582581 0.812772 -0.906747 0.421675 -31.9028 -432.721)" stroke="#DBDBDB" stroke-width="0.550725"/>
<line y1="-0.275362" x2="727.429" y2="-0.275362" transform="matrix(0.582581 0.812772 -0.906747 0.421675 -34.7124 -431.967)" stroke="#DBDBDB" stroke-width="0.550725"/>
<line y1="-0.275362" x2="727.429" y2="-0.275362" transform="matrix(0.582581 0.812772 -0.906747 0.421675 -37.5221 -431.212)" stroke="#DBDBDB" stroke-width="0.550725"/>
<line y1="-0.275362" x2="727.429" y2="-0.275362" transform="matrix(0.582581 0.812772 -0.906747 0.421675 -40.3316 -430.458)" stroke="#DBDBDB" stroke-width="0.550725"/>
<line y1="-0.275362" x2="727.429" y2="-0.275362" transform="matrix(0.582581 0.812772 -0.906747 0.421675 -43.1413 -429.704)" stroke="#DBDBDB" stroke-width="0.550725"/>
<line y1="-0.275362" x2="727.429" y2="-0.275362" transform="matrix(0.582581 0.812772 -0.906747 0.421675 -45.951 -428.949)" stroke="#DBDBDB" stroke-width="0.550725"/>
<line y1="-0.275362" x2="727.429" y2="-0.275362" transform="matrix(0.582581 0.812772 -0.906747 0.421675 -48.7606 -428.195)" stroke="#DBDBDB" stroke-width="0.550725"/>
<line y1="-0.275362" x2="727.429" y2="-0.275362" transform="matrix(0.582581 0.812772 -0.906747 0.421675 -51.5703 -427.441)" stroke="#DBDBDB" stroke-width="0.550725"/>
<line y1="-0.275362" x2="727.429" y2="-0.275362" transform="matrix(0.582581 0.812772 -0.906747 0.421675 -54.3798 -426.686)" stroke="#DBDBDB" stroke-width="0.550725"/>
<line y1="-0.275362" x2="727.429" y2="-0.275362" transform="matrix(0.582581 0.812772 -0.906747 0.421675 -57.1895 -425.932)" stroke="#DBDBDB" stroke-width="0.550725"/>
<line y1="-0.275362" x2="727.429" y2="-0.275362" transform="matrix(0.582581 0.812772 -0.906747 0.421675 -59.9992 -425.177)" stroke="#DBDBDB" stroke-width="0.550725"/>
<line y1="-0.275362" x2="727.429" y2="-0.275362" transform="matrix(0.582581 0.812772 -0.906747 0.421675 -62.8087 -424.423)" stroke="#DBDBDB" stroke-width="0.550725"/>
<line y1="-0.275362" x2="727.429" y2="-0.275362" transform="matrix(0.582581 0.812772 -0.906747 0.421675 -65.6183 -423.669)" stroke="#DBDBDB" stroke-width="0.550725"/>
<line y1="-0.275362" x2="727.429" y2="-0.275362" transform="matrix(0.582581 0.812772 -0.906747 0.421675 -68.428 -422.914)" stroke="#DBDBDB" stroke-width="0.550725"/>
<line y1="-0.275362" x2="727.429" y2="-0.275362" transform="matrix(0.582581 0.812772 -0.906747 0.421675 -71.2376 -422.16)" stroke="#DBDBDB" stroke-width="0.550725"/>
<line y1="-0.275362" x2="727.429" y2="-0.275362" transform="matrix(0.582581 0.812772 -0.906747 0.421675 -74.0472 -421.406)" stroke="#DBDBDB" stroke-width="0.550725"/>
<line y1="-0.275362" x2="727.429" y2="-0.275362" transform="matrix(0.582581 0.812772 -0.906747 0.421675 -76.8569 -420.651)" stroke="#DBDBDB" stroke-width="0.550725"/>
<line y1="-0.275362" x2="727.429" y2="-0.275362" transform="matrix(0.582581 0.812772 -0.906747 0.421675 -79.6666 -419.897)" stroke="#DBDBDB" stroke-width="0.550725"/>
<line y1="-0.275362" x2="727.429" y2="-0.275362" transform="matrix(0.582581 0.812772 -0.906747 0.421675 -82.4761 -419.143)" stroke="#DBDBDB" stroke-width="0.550725"/>
<line y1="-0.275362" x2="727.429" y2="-0.275362" transform="matrix(0.582581 0.812772 -0.906747 0.421675 -85.2858 -418.388)" stroke="#DBDBDB" stroke-width="0.550725"/>
<line y1="-0.275362" x2="727.429" y2="-0.275362" transform="matrix(0.582581 0.812772 -0.906747 0.421675 -88.0955 -417.634)" stroke="#DBDBDB" stroke-width="0.550725"/>
<line y1="-0.275362" x2="727.429" y2="-0.275362" transform="matrix(0.582581 0.812772 -0.906747 0.421675 -90.905 -416.88)" stroke="#DBDBDB" stroke-width="0.550725"/>
<line y1="-0.275362" x2="727.429" y2="-0.275362" transform="matrix(0.582581 0.812772 -0.906747 0.421675 -93.7147 -416.125)" stroke="#DBDBDB" stroke-width="0.550725"/>
<line y1="-0.275362" x2="727.429" y2="-0.275362" transform="matrix(0.582581 0.812772 -0.906747 0.421675 -96.5243 -415.371)" stroke="#DBDBDB" stroke-width="0.550725"/>
<line y1="-0.275362" x2="727.429" y2="-0.275362" transform="matrix(0.582581 0.812772 -0.906747 0.421675 -99.3339 -414.616)" stroke="#DBDBDB" stroke-width="0.550725"/>
<line y1="-0.275362" x2="727.429" y2="-0.275362" transform="matrix(0.582581 0.812772 -0.906747 0.421675 -102.144 -413.862)" stroke="#DBDBDB" stroke-width="0.550725"/>
<line y1="-0.275362" x2="727.429" y2="-0.275362" transform="matrix(0.582581 0.812772 -0.906747 0.421675 -104.953 -413.108)" stroke="#DBDBDB" stroke-width="0.550725"/>
<line y1="-0.275362" x2="727.429" y2="-0.275362" transform="matrix(0.582581 0.812772 -0.906747 0.421675 -107.763 -412.353)" stroke="#DBDBDB" stroke-width="0.550725"/>
<line y1="-0.275362" x2="727.429" y2="-0.275362" transform="matrix(0.582581 0.812772 -0.906747 0.421675 -110.572 -411.599)" stroke="#DBDBDB" stroke-width="0.550725"/>
<line y1="-0.275362" x2="727.429" y2="-0.275362" transform="matrix(0.582581 0.812772 -0.906747 0.421675 -113.382 -410.844)" stroke="#DBDBDB" stroke-width="0.550725"/>
<line y1="-0.275362" x2="727.429" y2="-0.275362" transform="matrix(0.582581 0.812772 -0.906747 0.421675 -116.192 -410.09)" stroke="#DBDBDB" stroke-width="0.550725"/>
<line y1="-0.275362" x2="727.429" y2="-0.275362" transform="matrix(0.582581 0.812772 -0.906747 0.421675 -119.001 -409.336)" stroke="#DBDBDB" stroke-width="0.550725"/>
<line y1="-0.275362" x2="727.429" y2="-0.275362" transform="matrix(0.582581 0.812772 -0.906747 0.421675 -121.811 -408.582)" stroke="#DBDBDB" stroke-width="0.550725"/>
<line y1="-0.275362" x2="727.429" y2="-0.275362" transform="matrix(0.582581 0.812772 -0.906747 0.421675 -124.621 -407.827)" stroke="#DBDBDB" stroke-width="0.550725"/>
<line y1="-0.275362" x2="727.429" y2="-0.275362" transform="matrix(0.582581 0.812772 -0.906747 0.421675 -127.43 -407.073)" stroke="#DBDBDB" stroke-width="0.550725"/>
<line y1="-0.275362" x2="727.429" y2="-0.275362" transform="matrix(0.582581 0.812772 -0.906747 0.421675 -130.24 -406.318)" stroke="#DBDBDB" stroke-width="0.550725"/>
<line y1="-0.275362" x2="727.429" y2="-0.275362" transform="matrix(0.582581 0.812772 -0.906747 0.421675 -133.05 -405.564)" stroke="#DBDBDB" stroke-width="0.550725"/>
<line y1="-0.275362" x2="727.429" y2="-0.275362" transform="matrix(0.582581 0.812772 -0.906747 0.421675 -135.859 -404.81)" stroke="#DBDBDB" stroke-width="0.550725"/>
<line y1="-0.275362" x2="727.429" y2="-0.275362" transform="matrix(0.582581 0.812772 -0.906747 0.421675 -138.669 -404.055)" stroke="#DBDBDB" stroke-width="0.550725"/>
<line y1="-0.275362" x2="727.429" y2="-0.275362" transform="matrix(0.582581 0.812772 -0.906747 0.421675 -141.479 -403.301)" stroke="#DBDBDB" stroke-width="0.550725"/>
<line y1="-0.275362" x2="727.429" y2="-0.275362" transform="matrix(0.582581 0.812772 -0.906747 0.421675 -144.288 -402.547)" stroke="#DBDBDB" stroke-width="0.550725"/>
<line y1="-0.275362" x2="727.429" y2="-0.275362" transform="matrix(0.582581 0.812772 -0.906747 0.421675 -147.098 -401.792)" stroke="#DBDBDB" stroke-width="0.550725"/>
<line y1="-0.275362" x2="727.429" y2="-0.275362" transform="matrix(0.582581 0.812772 -0.906747 0.421675 -149.907 -401.038)" stroke="#DBDBDB" stroke-width="0.550725"/>
<line y1="-0.275362" x2="727.429" y2="-0.275362" transform="matrix(0.582581 0.812772 -0.906747 0.421675 -152.717 -400.284)" stroke="#DBDBDB" stroke-width="0.550725"/>
<line y1="-0.275362" x2="727.429" y2="-0.275362" transform="matrix(0.582581 0.812772 -0.906747 0.421675 -155.527 -399.529)" stroke="#DBDBDB" stroke-width="0.550725"/>
<line y1="-0.275362" x2="727.429" y2="-0.275362" transform="matrix(0.582581 0.812772 -0.906747 0.421675 -158.336 -398.775)" stroke="#DBDBDB" stroke-width="0.550725"/>
<line y1="-0.275362" x2="727.429" y2="-0.275362" transform="matrix(0.582581 0.812772 -0.906747 0.421675 -161.146 -398.02)" stroke="#DBDBDB" stroke-width="0.550725"/>
<line y1="-0.275362" x2="727.429" y2="-0.275362" transform="matrix(0.582581 0.812772 -0.906747 0.421675 -163.955 -397.266)" stroke="#DBDBDB" stroke-width="0.550725"/>
<line y1="-0.275362" x2="727.429" y2="-0.275362" transform="matrix(0.582581 0.812772 -0.906747 0.421675 -166.765 -396.512)" stroke="#DBDBDB" stroke-width="0.550725"/>
<line y1="-0.275362" x2="727.429" y2="-0.275362" transform="matrix(0.582581 0.812772 -0.906747 0.421675 -169.575 -395.757)" stroke="#DBDBDB" stroke-width="0.550725"/>
<line y1="-0.275362" x2="727.429" y2="-0.275362" transform="matrix(0.582581 0.812772 -0.906747 0.421675 -172.384 -395.003)" stroke="#DBDBDB" stroke-width="0.550725"/>
<line y1="-0.275362" x2="727.429" y2="-0.275362" transform="matrix(0.582581 0.812772 -0.906747 0.421675 -175.194 -394.249)" stroke="#DBDBDB" stroke-width="0.550725"/>
<line y1="-0.275362" x2="727.429" y2="-0.275362" transform="matrix(0.582581 0.812772 -0.906747 0.421675 -178.004 -393.494)" stroke="#DBDBDB" stroke-width="0.550725"/>
<line y1="-0.275362" x2="727.429" y2="-0.275362" transform="matrix(0.582581 0.812772 -0.906747 0.421675 -180.813 -392.74)" stroke="#DBDBDB" stroke-width="0.550725"/>
<line y1="-0.275362" x2="727.429" y2="-0.275362" transform="matrix(0.582581 0.812772 -0.906747 0.421675 -183.623 -391.986)" stroke="#DBDBDB" stroke-width="0.550725"/>
<line y1="-0.275362" x2="727.429" y2="-0.275362" transform="matrix(0.582581 0.812772 -0.906747 0.421675 -186.433 -391.231)" stroke="#DBDBDB" stroke-width="0.550725"/>
<line y1="-0.275362" x2="727.429" y2="-0.275362" transform="matrix(0.582581 0.812772 -0.906747 0.421675 -189.242 -390.477)" stroke="#DBDBDB" stroke-width="0.550725"/>
<line y1="-0.275362" x2="727.429" y2="-0.275362" transform="matrix(0.582581 0.812772 -0.906747 0.421675 -192.052 -389.722)" stroke="#DBDBDB" stroke-width="0.550725"/>
<line y1="-0.275362" x2="727.429" y2="-0.275362" transform="matrix(0.582581 0.812772 -0.906747 0.421675 -194.861 -388.968)" stroke="#DBDBDB" stroke-width="0.550725"/>
<line y1="-0.275362" x2="727.429" y2="-0.275362" transform="matrix(0.582581 0.812772 -0.906747 0.421675 -197.671 -388.214)" stroke="#DBDBDB" stroke-width="0.550725"/>
<line y1="-0.275362" x2="727.429" y2="-0.275362" transform="matrix(0.582581 0.812772 -0.906747 0.421675 -200.481 -387.459)" stroke="#DBDBDB" stroke-width="0.550725"/>
<line y1="-0.275362" x2="727.429" y2="-0.275362" transform="matrix(0.582581 0.812772 -0.906747 0.421675 -203.29 -386.705)" stroke="#DBDBDB" stroke-width="0.550725"/>
<line y1="-0.275362" x2="727.429" y2="-0.275362" transform="matrix(0.582581 0.812772 -0.906747 0.421675 -206.1 -385.951)" stroke="#DBDBDB" stroke-width="0.550725"/>
<line y1="-0.275362" x2="727.429" y2="-0.275362" transform="matrix(0.582581 0.812772 -0.906747 0.421675 -208.91 -385.196)" stroke="#DBDBDB" stroke-width="0.550725"/>
<line y1="-0.275362" x2="727.429" y2="-0.275362" transform="matrix(0.582581 0.812772 -0.906747 0.421675 -211.719 -384.442)" stroke="#DBDBDB" stroke-width="0.550725"/>
<line y1="-0.275362" x2="727.429" y2="-0.275362" transform="matrix(0.582581 0.812772 -0.906747 0.421675 -214.529 -383.688)" stroke="#DBDBDB" stroke-width="0.550725"/>
<line y1="-0.275362" x2="727.429" y2="-0.275362" transform="matrix(0.582581 0.812772 -0.906747 0.421675 -217.339 -382.933)" stroke="#DBDBDB" stroke-width="0.550725"/>
<line y1="-0.275362" x2="727.429" y2="-0.275362" transform="matrix(0.582581 0.812772 -0.906747 0.421675 -220.148 -382.179)" stroke="#DBDBDB" stroke-width="0.550725"/>
<line y1="-0.275362" x2="727.429" y2="-0.275362" transform="matrix(0.582581 0.812772 -0.906747 0.421675 -222.958 -381.424)" stroke="#DBDBDB" stroke-width="0.550725"/>
<line y1="-0.275362" x2="727.429" y2="-0.275362" transform="matrix(0.582581 0.812772 -0.906747 0.421675 -225.768 -380.67)" stroke="#DBDBDB" stroke-width="0.550725"/>
<line y1="-0.275362" x2="727.429" y2="-0.275362" transform="matrix(0.582581 0.812772 -0.906747 0.421675 -228.577 -379.916)" stroke="#DBDBDB" stroke-width="0.550725"/>
<line y1="-0.275362" x2="727.429" y2="-0.275362" transform="matrix(0.582581 0.812772 -0.906747 0.421675 -231.387 -379.161)" stroke="#DBDBDB" stroke-width="0.550725"/>
<line y1="-0.275362" x2="727.429" y2="-0.275362" transform="matrix(0.582581 0.812772 -0.906747 0.421675 -234.196 -378.407)" stroke="#DBDBDB" stroke-width="0.550725"/>
<line y1="-0.275362" x2="727.429" y2="-0.275362" transform="matrix(0.582581 0.812772 -0.906747 0.421675 -237.006 -377.653)" stroke="#DBDBDB" stroke-width="0.550725"/>
<line y1="-0.275362" x2="727.429" y2="-0.275362" transform="matrix(0.582581 0.812772 -0.906747 0.421675 -239.816 -376.898)" stroke="#DBDBDB" stroke-width="0.550725"/>
<line y1="-0.275362" x2="727.429" y2="-0.275362" transform="matrix(0.582581 0.812772 -0.906747 0.421675 -242.625 -376.144)" stroke="#DBDBDB" stroke-width="0.550725"/>
<line y1="-0.275362" x2="727.429" y2="-0.275362" transform="matrix(0.582581 0.812772 -0.906747 0.421675 -245.435 -375.39)" stroke="#DBDBDB" stroke-width="0.550725"/>
<line y1="-0.275362" x2="727.429" y2="-0.275362" transform="matrix(0.582581 0.812772 -0.906747 0.421675 -248.245 -374.635)" stroke="#DBDBDB" stroke-width="0.550725"/>
<line y1="-0.275362" x2="727.429" y2="-0.275362" transform="matrix(0.582581 0.812772 -0.906747 0.421675 -251.054 -373.881)" stroke="#DBDBDB" stroke-width="0.550725"/>
<line y1="-0.275362" x2="727.429" y2="-0.275362" transform="matrix(0.582581 0.812772 -0.906747 0.421675 -253.864 -373.126)" stroke="#DBDBDB" stroke-width="0.550725"/>
<line y1="-0.275362" x2="727.429" y2="-0.275362" transform="matrix(0.582581 0.812772 -0.906747 0.421675 -256.674 -372.372)" stroke="#DBDBDB" stroke-width="0.550725"/>
<line y1="-0.275362" x2="727.429" y2="-0.275362" transform="matrix(0.582581 0.812772 -0.906747 0.421675 -259.483 -371.618)" stroke="#DBDBDB" stroke-width="0.550725"/>
<line y1="-0.275362" x2="727.429" y2="-0.275362" transform="matrix(0.582581 0.812772 -0.906747 0.421675 -262.293 -370.863)" stroke="#DBDBDB" stroke-width="0.550725"/>
<line y1="-0.275362" x2="727.429" y2="-0.275362" transform="matrix(0.582581 0.812772 -0.906747 0.421675 -265.102 -370.109)" stroke="#DBDBDB" stroke-width="0.550725"/>
<line y1="-0.275362" x2="727.429" y2="-0.275362" transform="matrix(0.582581 0.812772 -0.906747 0.421675 -267.912 -369.355)" stroke="#DBDBDB" stroke-width="0.550725"/>
<line y1="-0.275362" x2="727.429" y2="-0.275362" transform="matrix(0.582581 0.812772 -0.906747 0.421675 -270.722 -368.6)" stroke="#DBDBDB" stroke-width="0.550725"/>
<line y1="-0.275362" x2="727.429" y2="-0.275362" transform="matrix(0.582581 0.812772 -0.906747 0.421675 -273.531 -367.846)" stroke="#DBDBDB" stroke-width="0.550725"/>
<line y1="-0.275362" x2="727.429" y2="-0.275362" transform="matrix(0.582581 0.812772 -0.906747 0.421675 -276.341 -367.091)" stroke="#DBDBDB" stroke-width="0.550725"/>
<line y1="-0.275362" x2="727.429" y2="-0.275362" transform="matrix(0.582581 0.812772 -0.906747 0.421675 -279.151 -366.337)" stroke="#DBDBDB" stroke-width="0.550725"/>
<line y1="-0.275362" x2="727.429" y2="-0.275362" transform="matrix(0.582581 0.812772 -0.906747 0.421675 -281.96 -365.583)" stroke="#DBDBDB" stroke-width="0.550725"/>
<line y1="-0.275362" x2="727.429" y2="-0.275362" transform="matrix(0.582581 0.812772 -0.906747 0.421675 -284.77 -364.828)" stroke="#DBDBDB" stroke-width="0.550725"/>
<line y1="-0.275362" x2="727.429" y2="-0.275362" transform="matrix(0.582581 0.812772 -0.906747 0.421675 -287.58 -364.074)" stroke="#DBDBDB" stroke-width="0.550725"/>
<line y1="-0.275362" x2="727.429" y2="-0.275362" transform="matrix(0.582581 0.812772 -0.906747 0.421675 -290.389 -363.32)" stroke="#DBDBDB" stroke-width="0.550725"/>
<line y1="-0.275362" x2="727.429" y2="-0.275362" transform="matrix(0.582581 0.812772 -0.906747 0.421675 -293.199 -362.565)" stroke="#DBDBDB" stroke-width="0.550725"/>
<line y1="-0.275362" x2="727.429" y2="-0.275362" transform="matrix(0.582581 0.812772 -0.906747 0.421675 -296.008 -361.811)" stroke="#DBDBDB" stroke-width="0.550725"/>
<line y1="-0.275362" x2="727.429" y2="-0.275362" transform="matrix(0.582581 0.812772 -0.906747 0.421675 -298.818 -361.057)" stroke="#DBDBDB" stroke-width="0.550725"/>
<line y1="-0.275362" x2="727.429" y2="-0.275362" transform="matrix(0.582581 0.812772 -0.906747 0.421675 -301.628 -360.302)" stroke="#DBDBDB" stroke-width="0.550725"/>
<line y1="-0.275362" x2="727.429" y2="-0.275362" transform="matrix(0.582581 0.812772 -0.906747 0.421675 -304.437 -359.548)" stroke="#DBDBDB" stroke-width="0.550725"/>
<line y1="-0.275362" x2="727.429" y2="-0.275362" transform="matrix(0.582581 0.812772 -0.906747 0.421675 -307.247 -358.794)" stroke="#DBDBDB" stroke-width="0.550725"/>
<line y1="-0.275362" x2="727.429" y2="-0.275362" transform="matrix(0.582581 0.812772 -0.906747 0.421675 -310.057 -358.039)" stroke="#DBDBDB" stroke-width="0.550725"/>
<line y1="-0.275362" x2="727.429" y2="-0.275362" transform="matrix(0.582581 0.812772 -0.906747 0.421675 -312.866 -357.285)" stroke="#DBDBDB" stroke-width="0.550725"/>
<line y1="-0.275362" x2="727.429" y2="-0.275362" transform="matrix(0.582581 0.812772 -0.906747 0.421675 -315.676 -356.531)" stroke="#DBDBDB" stroke-width="0.550725"/>
<line y1="-0.275362" x2="727.429" y2="-0.275362" transform="matrix(0.582581 0.812772 -0.906747 0.421675 -318.486 -355.776)" stroke="#DBDBDB" stroke-width="0.550725"/>
<line y1="-0.275362" x2="727.429" y2="-0.275362" transform="matrix(0.582581 0.812772 -0.906747 0.421675 -321.295 -355.022)" stroke="#DBDBDB" stroke-width="0.550725"/>
<line y1="-0.275362" x2="727.429" y2="-0.275362" transform="matrix(0.582581 0.812772 -0.906747 0.421675 -324.105 -354.267)" stroke="#DBDBDB" stroke-width="0.550725"/>
<line y1="-0.275362" x2="727.429" y2="-0.275362" transform="matrix(0.582581 0.812772 -0.906747 0.421675 -326.914 -353.513)" stroke="#DBDBDB" stroke-width="0.550725"/>
<line y1="-0.275362" x2="727.429" y2="-0.275362" transform="matrix(0.582581 0.812772 -0.906747 0.421675 -329.724 -352.759)" stroke="#DBDBDB" stroke-width="0.550725"/>
<line y1="-0.275362" x2="727.429" y2="-0.275362" transform="matrix(0.582581 0.812772 -0.906747 0.421675 -332.534 -352.004)" stroke="#DBDBDB" stroke-width="0.550725"/>
<line y1="-0.275362" x2="727.429" y2="-0.275362" transform="matrix(0.582581 0.812772 -0.906747 0.421675 -335.343 -351.25)" stroke="#DBDBDB" stroke-width="0.550725"/>
<line y1="-0.275362" x2="727.429" y2="-0.275362" transform="matrix(0.582581 0.812772 -0.906747 0.421675 -338.153 -350.496)" stroke="#DBDBDB" stroke-width="0.550725"/>
<line y1="-0.275362" x2="727.429" y2="-0.275362" transform="matrix(0.582581 0.812772 -0.906747 0.421675 -340.963 -349.741)" stroke="#DBDBDB" stroke-width="0.550725"/>
<line y1="-0.275362" x2="727.429" y2="-0.275362" transform="matrix(0.582581 0.812772 -0.906747 0.421675 -343.772 -348.987)" stroke="#DBDBDB" stroke-width="0.550725"/>
<line y1="-0.275362" x2="727.429" y2="-0.275362" transform="matrix(0.582581 0.812772 -0.906747 0.421675 -346.582 -348.232)" stroke="#DBDBDB" stroke-width="0.550725"/>
<line y1="-0.275362" x2="727.429" y2="-0.275362" transform="matrix(0.582581 0.812772 -0.906747 0.421675 -349.392 -347.478)" stroke="#DBDBDB" stroke-width="0.550725"/>
<line y1="-0.275362" x2="727.429" y2="-0.275362" transform="matrix(0.582581 0.812772 -0.906747 0.421675 -352.201 -346.724)" stroke="#DBDBDB" stroke-width="0.550725"/>
<line y1="-0.275362" x2="727.429" y2="-0.275362" transform="matrix(0.582581 0.812772 -0.906747 0.421675 -355.011 -345.969)" stroke="#DBDBDB" stroke-width="0.550725"/>
<line y1="-0.275362" x2="727.429" y2="-0.275362" transform="matrix(0.582581 0.812772 -0.906747 0.421675 -357.82 -345.215)" stroke="#DBDBDB" stroke-width="0.550725"/>
<line y1="-0.275362" x2="727.429" y2="-0.275362" transform="matrix(0.582581 0.812772 -0.906747 0.421675 -360.63 -344.461)" stroke="#DBDBDB" stroke-width="0.550725"/>
<line y1="-0.275362" x2="727.429" y2="-0.275362" transform="matrix(0.582581 0.812772 -0.906747 0.421675 -363.44 -343.706)" stroke="#DBDBDB" stroke-width="0.550725"/>
<line y1="-0.275362" x2="727.429" y2="-0.275362" transform="matrix(0.582581 0.812772 -0.906747 0.421675 -366.249 -342.952)" stroke="#DBDBDB" stroke-width="0.550725"/>
<line y1="-0.275362" x2="727.429" y2="-0.275362" transform="matrix(0.582581 0.812772 -0.906747 0.421675 -369.059 -342.198)" stroke="#DBDBDB" stroke-width="0.550725"/>
<line y1="-0.275362" x2="727.429" y2="-0.275362" transform="matrix(0.582581 0.812772 -0.906747 0.421675 -371.868 -341.443)" stroke="#DBDBDB" stroke-width="0.550725"/>
<line y1="-0.275362" x2="727.429" y2="-0.275362" transform="matrix(0.582581 0.812772 -0.906747 0.421675 -374.678 -340.689)" stroke="#DBDBDB" stroke-width="0.550725"/>
<line y1="-0.275362" x2="727.429" y2="-0.275362" transform="matrix(0.582581 0.812772 -0.906747 0.421675 -377.488 -339.934)" stroke="#DBDBDB" stroke-width="0.550725"/>
<line y1="-0.275362" x2="727.429" y2="-0.275362" transform="matrix(0.582581 0.812772 -0.906747 0.421675 -380.297 -339.18)" stroke="#DBDBDB" stroke-width="0.550725"/>
<line y1="-0.275362" x2="727.429" y2="-0.275362" transform="matrix(0.582581 0.812772 -0.906747 0.421675 -383.107 -338.426)" stroke="#DBDBDB" stroke-width="0.550725"/>
<line y1="-0.275362" x2="727.429" y2="-0.275362" transform="matrix(0.582581 0.812772 -0.906747 0.421675 -385.917 -337.671)" stroke="#DBDBDB" stroke-width="0.550725"/>
<line y1="-0.275362" x2="727.429" y2="-0.275362" transform="matrix(0.582581 0.812772 -0.906747 0.421675 -388.726 -336.917)" stroke="#DBDBDB" stroke-width="0.550725"/>
<line y1="-0.275362" x2="727.429" y2="-0.275362" transform="matrix(0.582581 0.812772 -0.906747 0.421675 -391.536 -336.163)" stroke="#DBDBDB" stroke-width="0.550725"/>
<line y1="-0.275362" x2="727.429" y2="-0.275362" transform="matrix(0.582581 0.812772 -0.906747 0.421675 -394.346 -335.408)" stroke="#DBDBDB" stroke-width="0.550725"/>
<line y1="-0.275362" x2="727.429" y2="-0.275362" transform="matrix(0.582581 0.812772 -0.906747 0.421675 -397.155 -334.654)" stroke="#DBDBDB" stroke-width="0.550725"/>
<line y1="-0.275362" x2="727.429" y2="-0.275362" transform="matrix(0.582581 0.812772 -0.906747 0.421675 -399.965 -333.9)" stroke="#DBDBDB" stroke-width="0.550725"/>
<line y1="-0.275362" x2="727.429" y2="-0.275362" transform="matrix(0.582581 0.812772 -0.906747 0.421675 -402.774 -333.145)" stroke="#DBDBDB" stroke-width="0.550725"/>
<line y1="-0.275362" x2="727.429" y2="-0.275362" transform="matrix(0.582581 0.812772 -0.906747 0.421675 -405.584 -332.391)" stroke="#DBDBDB" stroke-width="0.550725"/>
<line y1="-0.275362" x2="727.429" y2="-0.275362" transform="matrix(0.582581 0.812772 -0.906747 0.421675 -408.394 -331.637)" stroke="#DBDBDB" stroke-width="0.550725"/>
<line y1="-0.275362" x2="727.429" y2="-0.275362" transform="matrix(0.582581 0.812772 -0.906747 0.421675 -411.203 -330.882)" stroke="#DBDBDB" stroke-width="0.550725"/>
<line y1="-0.275362" x2="727.429" y2="-0.275362" transform="matrix(0.582581 0.812772 -0.906747 0.421675 -414.013 -330.128)" stroke="#DBDBDB" stroke-width="0.550725"/>
<line y1="-0.275362" x2="727.429" y2="-0.275362" transform="matrix(0.582581 0.812772 -0.906747 0.421675 -416.823 -329.373)" stroke="#DBDBDB" stroke-width="0.550725"/>
<line y1="-0.275362" x2="727.429" y2="-0.275362" transform="matrix(0.582581 0.812772 -0.906747 0.421675 -419.632 -328.619)" stroke="#DBDBDB" stroke-width="0.550725"/>
<line y1="-0.275362" x2="727.429" y2="-0.275362" transform="matrix(0.582581 0.812772 -0.906747 0.421675 -422.442 -327.865)" stroke="#DBDBDB" stroke-width="0.550725"/>
</g>
</svg>
