<svg width="28" height="27" viewBox="0 0 28 27" fill="none" xmlns="http://www.w3.org/2000/svg">
<path fill-rule="evenodd" clip-rule="evenodd" d="M18.5406 6.64142H9.48125C8.03543 6.64142 6.85889 7.81789 6.85889 9.26378V18.323C6.85889 19.7691 8.03543 20.9457 9.48125 20.9457H18.5406C19.9866 20.9457 21.1631 19.7691 21.1631 18.323V9.26378C21.1631 7.81796 19.9866 6.64142 18.5406 6.64142ZM14.0107 18.5023C11.4145 18.5023 9.30195 16.3898 9.30195 13.7933C9.30195 11.197 11.4145 9.08448 14.0107 9.08448C16.6073 9.08448 18.7198 11.197 18.7198 13.7933C18.7198 16.3898 16.6073 18.5023 14.0107 18.5023ZM18.8713 10.0582C18.2566 10.0582 17.7568 9.55839 17.7568 8.94407C17.7568 8.32968 18.2566 7.82986 18.8713 7.82986C19.4856 7.82986 19.9854 8.32968 19.9854 8.94407C19.9854 9.55846 19.4856 10.0582 18.8713 10.0582Z" fill="#171717"/>
<path fill-rule="evenodd" clip-rule="evenodd" d="M14.0108 11.0746C12.512 11.0746 11.2915 12.2945 11.2915 13.7933C11.2915 15.2927 12.512 16.5129 14.0108 16.5129C15.5102 16.5129 16.7298 15.2927 16.7298 13.7933C16.7298 12.2945 15.5102 11.0746 14.0108 11.0746Z" fill="#171717"/>
<path fill-rule="evenodd" clip-rule="evenodd" d="M0.804443 0.586975V27H27.2175V0.586975H0.804443ZM23.1528 18.3231C23.1528 20.8667 21.0841 22.9353 18.5406 22.9353H9.48134C6.93807 22.9353 4.86915 20.8667 4.86915 18.3231V9.26387C4.86915 6.7206 6.93807 4.65168 9.48134 4.65168H18.5406C21.0841 4.65168 23.1528 6.7206 23.1528 9.26387V18.3231Z" fill="#171717"/>
</svg>
