<svg width="225" height="63" fill="none" xmlns="http://www.w3.org/2000/svg"><path d="M27.33 18.41c0-.15.07-.3.07-.45.08-1.5.23-3 .3-4.5 0-.46 0-.46-.37-.6a21.5 21.5 0 00-4.25-1.36c-.76-.15-1.45-.23-2.2-.38-.23 0-.46 0-.69.08l-5.92 1.35c-.91.23-1.82.45-2.73.6-.08 0-.23.08-.38.08.3-1.2.76-2.26 1.06-3.31.38-1.13.76-2.25 1.06-3.3.38-1.13.76-2.19 1.07-3.31.38-1.13.76-2.18 1.13-3.31 1.83.53 3.65 1.2 5.47 1.8 1.82.6 3.64 1.2 5.54 1.8l5.47 1.81c1.82.6 3.64 1.2 5.46 1.88-2.05.45-4.1.98-6.22 1.43-2.05.45-4.1.97-6.15 1.43v.07c.07.08.15.08.23.15 1.14.23 2.35.53 3.49.68.6.07 1.14.22 1.74.22 1.3.08 2.59.15 3.95.15 1.14 0 2.2-.15 3.34-.22.99-.08 1.98-.08 3.04-.08a16.15 16.15 0 012.35.23c-.08.45-.23.82-.53 1.13-.08.07-.3.07-.46.07-1.67 0-3.26.15-4.93.53-.46.07-.91.22-1.37.37-.3.08-.38.23-.45.53-.08 1.58-.23 3.08-.3 4.58 0 .38 0 .45.45.45 1.14.15 2.35.23 3.5.3 1.43.15 2.88.3 4.32.53l2.96.45c1.14.15 2.12.6 3.19 1.05.68.3 1.29.68 1.97 1.06.15.07.23.15.38.15-.23-1.28-.53-2.56-.83-3.84l-.92-3.83-.9-3.9c4.55 1.5 8.95 2.92 13.35 4.35 0 .38-6.83 21.04-7.13 21.72-.08-.15-.08-.23-.15-.3-.38-1.43-.69-2.86-1.07-4.28 0-.15-.07-.23-.15-.46-.07.15-.15.23-.23.38a14.34 14.34 0 01-4.55 5.41 20.73 20.73 0 01-4.93 2.63 36.2 36.2 0 01-6.23 1.65l-3.8.46c-.15 0-.22 0-.37.07a.68.68 0 00-.46.45c0 .23-.08.38-.08.6 0 .83 0 1.73.08 2.56 0 .75.08 1.43.08 2.18v.22c0 .53 0 .53.6.68 1.07.22 2.13.38 3.2.6 1.05.23 2.12.38 3.18.6.53.08.53.08.68.6 0 0 0 .08.08.15 1.14-.22 2.2-.52 3.34-.75 1.14-.22 2.28-.52 3.41-.82 1.14-.23 2.28-.53 3.5-.83-.08.22-.08.3-.08.45l-1.6 4.73c-.83 2.56-1.66 5.11-2.57 7.74-.08.15-.08.23-.16.38-7.28-2.4-14.57-4.73-21.86-7.14v-.07l3.72-.9 3.8-.9c1.29-.3 2.5-.6 3.87-.91a.869.869 0 01-.23-.15c-.76-.15-1.52-.38-2.28-.45a42.2 42.2 0 00-5.39-.6c-2.5-.15-5-.08-7.51.22a4.34 4.34 0 01-3.26-.97c-.23-.15-.38-.3-.54-.53a.8.8 0 01-.15-.45c0-.23.08-.38.3-.38.61 0 1.14-.07 1.75-.07 1.14-.08 2.2-.15 3.34-.15.6 0 1.3-.08 1.9-.08.38 0 .45-.07.45-.37l.69-4.36c.07-.38.07-.68.07-1.05 0-.6-.07-.76-.68-.9-.6-.16-1.21-.23-1.82-.38a33.08 33.08 0 01-9.56-3.83 17.72 17.72 0 01-4.03-3.46c-.07-.08-.23-.15-.3-.23.38 1.96.83 3.84 1.29 5.72a652.53 652.53 0 012.66 11.34l-.08.08h-.08c-4.32-1.58-8.65-3-12.98-4.36-.07 0-.15-.08-.3-.15.08-.15.08-.38.15-.53 1.3-3.98 2.66-7.96 3.95-11.95 1.37-4.2 2.8-8.34 4.17-12.55.08-.22.23-.37.38-.6a8.79 8.79 0 012.43-1.5c1.44-.6 2.96-1.05 4.56-1.2.9-.08 1.9-.08 2.8-.15h4.33c1.37 0 2.66.07 4.03.15.15.15.37.07.53.07zm-.69 11.8c.16-2.78.38-5.56.53-8.34 0-.38.08-.68.08-1.05 0-.3 0-.38-.38-.45l-1.44-.23c-.91-.07-1.82-.07-2.73-.07-1.45 0-2.89.22-4.25.82a6.5 6.5 0 00-4.03 4.29 11.14 11.14 0 00.23 6.54 10.87 10.87 0 004.4 5.48 18.43 18.43 0 006.23 2.7c.68.16.68.16.76-.52.15-3.08.38-6.09.6-9.17zm8.43-9.32c-.08.08-.08.15-.08.15-.38 6.47-.83 12.78-1.21 19.17v.3l.07.07c.16 0 .38 0 .61-.07 2.58-.3 5.01-1.06 7.29-2.4a9.89 9.89 0 004.17-4.44c.99-1.88 1.37-3.91 1.14-6.01a6.06 6.06 0 00-2.05-4.21 8.16 8.16 0 00-3.03-1.73c-1.9-.68-3.8-.83-5.77-.9-.3.07-.69.07-1.14.07zm170.49 19.84c.07-.3.07-.45.15-.6.15-.68.15-.68.83-.75l2.2-.23c.53-.07.53-.07.53-.6V21.57c0-1.2-.98-1.88-2.12-1.43l-.46.23c-.45.22-.6.52-.6 1.05.07.98.07 1.95.15 2.93 0 .37-.08.6-.38.83-.38.22-.76.52-1.14.82V15.26c.3.15.6.22.84.37.15.08.22.3.22.45.08.45.08.9.15 1.28 0 .23.08.38.08.6h11.08c.3 0 .38.08.46.38.07.6 0 .75-.69.82l-2.88.45c-.45.08-.53.15-.53.6v6.4c0 .44.08.52.68.67 1.75.38 3.34.98 4.94 1.73 1.29.6 2.5 1.35 3.56 2.4 2.36 2.26 1.98 6.17-1.21 7.97a10.04 10.04 0 01-4.1 1.28c-.6.07-1.21.07-1.82.07h-9.03c-.38.08-.61 0-.91 0zm7.81-12.17c0 .22-.07.37-.07.52v9.62c0 .45.07.53.53.53 1.21 0 2.35-.23 3.34-.9a3.86 3.86 0 001.74-2.18c.54-1.88.16-3.6-1.13-5.11a7.81 7.81 0 00-3.57-2.26c-.23-.07-.53-.07-.84-.22zm-93.51-5.79h7.82c.07 0 .22.15.22.23 0 .3.08.52 0 .82 0 .23-.23.3-.38.3h-1.21c-.6 0-.69.08-.76.68-.08.45-.08.98-.15 1.43a83.67 83.67 0 00-.08 8.72c.08 1.35.23 2.7.3 3.98.08.6.16.67.76.67.3 0 .69.08 1 .08.3 0 .37.15.37.45v.38c0 .22-.15.37-.38.37h-7.29c-.15 0-.3 0-.45-.07.07-.45.23-.75.45-1.05.08-.08.3-.16.46-.16.38-.07.76-.07 1.21-.15.3 0 .46-.15.46-.52V27.66c0-.23-.08-.46-.08-.76-.07 0-.07 0-.15-.07-.15.15-.3.22-.38.37-2.66 3.31-5.31 6.54-8.04 9.85-.61.75-.38 1.5-.38 2.25 0 .08.22.23.38.23.3.07.68.07.98.15.3 0 .61.08.84.08.07.07.07.07.07.15.16.82.08.9-.76.9h-7.51c-.08-.38.15-.75.3-1.05.08-.16.3-.16.46-.23.38-.08.76-.08 1.21-.15.46-.08.53-.15.53-.6V24.95c0-.98 0-.98-1.06-.98h-.15c-.99 0-.99 0-1.06-1.05.6-.15 7.51-.3 8.12-.15.15.68-.15 1.05-.84 1.13h-1.06c-.53 0-.6.07-.6.6v10.07c.37 0 .45-.23.6-.38l2.73-3.15c1.75-1.96 3.5-3.99 5.24-5.94l.3-.3c.23-.38.16-.68-.3-.75-.23-.08-.38-.08-.6-.08-.69 0-.92-.52-1.14-1.2zm60.49 0h7.52c.23 0 .3.15.3.3v.98c-.23 0-.38.07-.53.07h-1.14c-.3 0-.45.08-.53.45l-.23 2.1c-.07 2.49-.15 4.9-.07 7.37 0 1.58.23 3.24.38 4.81.07.68.15.68.83.75h.6c.62.08.77.38.62.98 0 .08-.16.15-.23.23-.08.07-.23 0-.38 0h-6.68c-.15 0-.3 0-.6-.08.14-.37.3-.67.45-.97.07-.08.22-.16.38-.23.38-.08.76-.08 1.21-.15.38-.08.46-.08.46-.45v-.53c0-2.03-.08-3.98-.08-6.01 0-.15 0-.3-.07-.53h-.69c-1.67.15-3.26.38-4.93.53-.91.08-1.82.15-2.73.3-.54.08-.61.15-.61.68v5.56c0 .52.07.6.6.6.54.07 1.14.07 1.68.15.38.08.6.6.38.9-.08.08-.16.15-.23.15h-6.99c-.22 0-.45 0-.75-.07.15-.38.22-.6.3-.9.07-.23.23-.3.45-.3.38 0 .76-.08 1.22-.16.38-.07.45-.15.45-.52v-13.9c0-.98 0-.98-.98-.98h-.23c-.84 0-.91-.15-.91-.98.45-.15 7.06-.3 7.82-.15.22.68-.08 1.13-.84 1.13h-1.29c-.6 0-.68.07-.68.6v5.34c0 .45.07.52.53.52h7.82c.68 0 .68 0 .68-.68v-4.96c0-.52-.07-.6-.6-.67-.16 0-.31-.08-.39-.08-.9-.15-1.06-.22-1.29-1.2zM81.14 39.3c0-.22.08-.45.08-.67V24.57c0-.45-.08-.52-.53-.52h-.38c-.76 0-.84-.08-1.06-.75 0-.08-.08-.23-.08-.38.15 0 .3-.07.38-.07h1.6c3.41-.08 6.75-.08 10.17-.15.68 0 .75 0 .9-.68.23-.68.84-.75 1.45-.9-.08 1.12-.3 2.18-.3 3.3 0 1.06.07 2.18.07 3.24-.76.07-1.21-.23-1.52-.83l-.9-1.58c-.31-.45-.77-.75-1.3-.75-1.44-.08-2.88-.23-4.33-.23-.45 0-.53.08-.53.53v4.06c0 .45.08.52.53.6 1.37.3 2.74.75 4.03 1.35 1.14.53 2.27 1.2 3.19 2.1a4.38 4.38 0 01-.69 6.85 7.9 7.9 0 01-4.1 1.2h-7.97c-.53-.15-.3-.6-.3-.9 0-.23-.08-.53.38-.53h.91c0-.15.08-.23.3-.23zm3.8-8.34c-.08.23-.08.38-.08.53-.15 2.1-.07 7.36.08 7.81l.08.08h.3a8.29 8.29 0 003.57-1.13c1.67-1.13 1.97-3 .68-4.5-1.21-1.51-2.8-2.19-4.63-2.79zm62.55 9.54c-.3.38-.69.76-1 1.13a6211.4 6211.4 0 00-5.38-5.1c-1.75-1.66-3.5-3.31-5.24-5.04-.53.22-.83.6-1.14.9-.07.08-.07.23-.07.38v6.08c0 .45.07.53.53.6.53.08 1.06.08 1.6.15.15 0 .3.08.45.08v.9c-.46.15-7.52.15-8.35 0 .15-.3.23-.67.38-.98.07-.15.3-.22.53-.22.38-.08.76-.08 1.21-.15.38-.08.46-.08.46-.53V24.73c0-.3 0-.53-.08-.83-.45 0-.9-.08-1.29 0-.68 0-.68 0-.83-.6-.08-.15-.08-.3-.15-.53.22 0 .38-.07.6-.07 1.52 0 2.96 0 4.48-.08.84 0 1.67-.07 2.5-.07h.54c.23.75-.08 1.12-.76 1.2h-1.3c-.52 0-.6.07-.6.6v1.35c0 1.28.08 2.48.08 3.76 0 .15 0 .38.07.6.16-.07.3-.15.38-.22 2.05-1.8 4.03-3.69 6.08-5.5.07-.07.15-.14.22-.3-.3-.52-.75-.6-1.29-.67v-.82c.61-.15 6.08-.15 6.53 0-.08.67-.38 1.05-.99 1.12-.75.08-1.29.45-1.9.9-1.44 1.28-2.95 2.48-4.47 3.76-.08.08-.15.15-.3.23-.39.37-.39.37-.08.82 1.29 1.58 2.5 3.16 3.8 4.74l4.78 6.09c-.08.22-.08.3 0 .3zm.76.08c.15-.6.38-.98.98-1.05 1.06-.08 1.6-.75 1.9-1.65l5.01-13.46c.08-.15.08-.3.15-.6-.38-.07-.68-.15-.98-.22-.69-.15-.76-.15-.69-.9v-.23c1.3.08 2.5.15 3.8.15 1.21 0 2.43-.15 3.72-.3 0 .15.07.3.07.45 0 .68 0 .75-.68.83-.23 0-.53.07-.84.15.08.22.08.37.16.6l3.64 10.14c.53 1.36.99 2.79 1.52 4.14.23.6.23.6.9.67.62 0 .62 0 .62.6v.16c0 .67 0 .67-.69.67h-6.53c-.22 0-.38 0-.68-.07.15-.38.15-.75.38-.98.08-.15.38-.23.6-.3.46-.08 1-.15 1.53-.23-.08-.22-.08-.45-.16-.6-.6-1.8-1.29-3.6-1.97-5.4-.23-.6-.23-.6-.83-.6h-3.65c-.6 0-.6 0-.76.6l-1.36 5.55c0 .15 0 .3-.08.53.6.07 1.22.22 1.75.3.07.07.07.15.07.15.08.9.08.9-.83.9-1.82 0-3.65-.07-5.47-.07-.22.07-.38.07-.6.07zm6.9-9.4c.76.08 1.44.08 2.13.08.68 0 1.37.08 2.12-.07-.22-.75-.38-1.5-.6-2.18-.23-.68-.38-1.43-.61-2.1-.23-.68-.3-1.36-.68-2.11-.3.45-2.13 5.49-2.36 6.39zm-84.78 9.55c.15-.37.15-.67.3-.97.07-.16.3-.23.45-.3.38-.08.84-.08 1.22-.16.15 0 .23-.07.45-.15-.07-.22-.07-.45-.15-.6-.6-1.8-1.29-3.6-1.9-5.33-.22-.6-.22-.6-.83-.6h-3.64c-.61 0-.61 0-.76.67l-1.37 5.34c-.08.22-.08.45-.15.67.38.08.68.08.99.15.15 0 .3.08.45.08.3 0 .38.23.38.45 0 .6 0 .68-.6.68-1.98 0-4.03-.08-6-.08h-.15c.07-.6.3-.9.83-1.05.15 0 .23-.08.38-.08a1.62 1.62 0 001.44-1.12c.3-.68.6-1.43.84-2.18 1.44-3.91 2.88-7.82 4.32-11.65.08-.23.16-.38.23-.68l-1.06-.22c-.68-.15-.68-.23-.68-.83v-.22c1.21.07 2.5.15 3.71.15 1.22 0 2.51-.23 3.72-.3.08.15.08.22.08.3.08.75 0 .82-.76.97-.23.08-.45.08-.76.15.08.3.08.53.15.68 1.14 3.16 2.28 6.24 3.34 9.4.61 1.57 1.14 3.22 1.75 4.8.23.6.23.6.83.68.61 0 .61 0 .61.6v.15c0 .68 0 .68-.68.68h-6.53s-.15 0-.45-.08zm-4.33-9.62c.53.23 3.57.23 4.17 0-.07-.67-.38-1.35-.53-2.1-.15-.68-.38-1.43-.6-2.1-.23-.68-.3-1.43-.69-2.11-.38.45-2.28 5.56-2.35 6.31z" fill="#171717"/><path d="M101.26 40.66c-.6.15-5.92.15-6.45-.08.07-.3.15-.52.3-.82.08-.23.3-.23.53-.23.69-.08.69-.08.69-.75V24.2c0-.23-.16-.3-.38-.3-.23 0-.46-.08-.69-.08-.38 0-.53-.22-.53-.52 0-.23-.07-.45-.15-.68.23 0 .38-.07.53-.07h7.6c1.05 0 2.04.22 3.03.52a4.16 4.16 0 011.6 6.92c-1 .97-2.13 1.65-3.35 2.25-1.14.53-2.35.9-3.64 1.2-.68.15-.68.15-.68.83v4.2c0 .68 0 .68.68.83.83.38.83.38.9 1.36zm-1.37-8.27h.23c.08 0 .15-.07.3-.07.91-.38 1.83-.9 2.58-1.58.54-.45.92-.9 1.22-1.5.83-1.58.45-3.24-1.06-4.14a6.2 6.2 0 00-2.89-.9h-.38c-.15.45-.15 7.59 0 8.19zm91.17 8.27c.07-.23.07-.53.22-.83.08-.15.23-.23.38-.3.69-.15 1.37-.23 2.05-.38.53-.07.61-.15.61-.67v-13.6c0-.6-.07-.68-.68-.6-.69.07-1.3.22-1.98.3-.83.14-1.36.6-1.74 1.42-.23.53-.23.53-.91.53a28.5 28.5 0 01-.08-5.19c.3.08.53.08.84.15.3.08.3.3.38.53.15.6.15.6.68.6 2.2 0 4.4.08 6.6.08 1.37 0 2.66-.08 4.03-.08.6 0 .6 0 .68-.6.08-.3.23-.53.53-.53.23-.07.46-.07.68-.07.16.45.23 4.43.08 5.1-.6.08-.76 0-.99-.44a2.3 2.3 0 00-1.9-1.5c-.68-.08-1.29-.23-1.97-.3-.38-.08-.45 0-.45.37v13.9c0 .53 0 .53.53.6.68.08 1.29.23 1.97.3.38.08.6.23.6.6 0 .16.08.38.08.53l-.07.08h-10.17c.07.07.07.07 0 0zM63.3 52.53v.83c0 .07.08.07.08.15l.6.15v.15H61.8v-.15l.53-.15c.08 0 .08-.08.08-.15v-4.89c0-.07 0-.15-.08-.15l-.53-.15v-.15h4.02l-.3 1.5h-.15l-.3-1.2h-1.83v4.21h.08zm9.57 0v.83c0 .07.08.07.08.15l.6.15v.15h-2.2v-.15l.53-.15c.08 0 .08-.08.08-.15v-4.89c0-.07 0-.15-.08-.15l-.53-.15v-.15h2.35c.69 0 1.14.15 1.52.38.3.22.53.6.53 1.12 0 .6-.22 1.06-.6 1.36-.38.3-.91.52-1.67.52h-.61v1.13zm0-1.5c.23 0 .38.07.6.07.46 0 .77-.15 1-.37.22-.23.37-.6.37-1.05 0-.46-.07-.76-.3-.98-.23-.23-.6-.3-1.06-.3h-.53v2.63h-.08zm11.61-3.01h1.83v.15l-.46.15c-.08 0-.08.08-.15.08-.08 0-.08.07-.08.07 0 .08-.07.08-.07.15 0 .08-.08.15-.08.23-.15.37-.3.83-.45 1.2l-.46 1.13-.46 1.13c-.15.37-.38.75-.53 1.12-.07.15-.15.3-.22.38l-.23.22c-.08.08-.15.08-.23.15-.08.08-.23 0-.38 0-.23 0-.53 0-.76-.07v-.15l.23-.08c.15 0 .38-.07.45-.15.16-.07.23-.15.38-.3.16-.15.23-.22.3-.37.08-.15.24-.3.31-.53l-1.9-3.68c0-.08-.07-.15-.07-.23 0-.07-.08-.07-.08-.15 0-.07-.07-.07-.15-.15-.08-.07-.08-.07-.15-.07l-.38-.15v-.15h2.2v.15l-.38.07c-.15 0-.15.08-.15.15 0 .08 0 .15.07.23.08.07.08.22.16.3l1.36 2.63c.23-.45.38-.9.53-1.28l.46-1.28c.08-.15.15-.3.15-.45 0-.07.08-.15.08-.22v-.08s-.08-.07-.15-.07l-.38-.08h-.16zm8.42 5.34c0 .07.09.15.09.15l.45.15v.15H91.4v-.15l.53-.15c.08 0 .08-.08.08-.15v-4.89c0-.07 0-.15-.08-.15l-.53-.15v-.15h5.76v.15l-.53.15c-.08 0-.08.08-.08.15v4.89c0 .07.08.07.08.15l.53.15v.15h-2.05v-.15l.46-.15c.07 0 .07-.08.07-.15V48.4h-2.88v4.13c.15.3.15.6.15.83zm11.47 0c0 .07.08.15.08.15l.45.15v.15h-2.05v-.15l.54-.15c.07 0 .07-.08.07-.15v-4.89c0-.07 0-.15-.07-.15l-.54-.15v-.15h5.77v.15l-.53.15c-.08 0-.08.08-.08.15v4.89c0 .07.08.07.08.15l.53.15v.15h-2.05v-.15l.46-.15c.07 0 .07-.08.07-.15V48.4h-2.88v4.13c.15.3.15.6.15.83zm12.75-5.41l1.82 5.03c.08.23.16.3.23.38.08.07.16.15.23.15l.38.15v.15h-2.13v-.15l.38-.15c.08 0 .08-.08.16-.08.07 0 0-.07 0-.07 0-.08 0-.15-.08-.23-.08-.07-.08-.22-.15-.37l-.38-1.13h-2.05l-.46 1.13c-.07.15-.07.3-.15.37-.07.08-.07.15-.07.23 0 .07 0 .07.07.07 0 0 .08.08.15.08l.38.07v.15h-1.82v-.15l.46-.15c.07 0 .15-.07.22-.15.08-.07.08-.15.16-.3l2.12-5.03h.53zm-1.36 3.3h1.74l-.83-2.25-.91 2.25zm17.61-.15v2.26c0 .07.07.15.07.15l.46.15v.15h-2.05v-.15l.53-.15c.08 0 .08-.08.08-.15v-4.89c0-.07 0-.15-.08-.15l-.53-.15v-.15h2.12v.15l-.45.15c-.08 0-.08.08-.08.15v2.26h.84c.07 0 .23 0 .3-.08.08-.07.15-.07.23-.15l.23-.22a.58.58 0 00.15-.38c.07-.15.07-.3.15-.53.08-.22.08-.37.15-.52.08-.15.08-.3.16-.38.07-.07.07-.15.15-.22l.15-.15c.07-.08.15-.08.23-.08h1.06v.23c-.23 0-.38 0-.46.07-.15.08-.22.15-.38.23-.15.07-.15.22-.22.37l-.23.45c-.08.15-.15.23-.15.38s-.16.23-.23.38c-.08.15-.15.22-.23.3-.08.07-.15.15-.3.22.22.3.38.6.53.83.15.3.3.52.45.75.16.23.23.38.38.6.08.15.23.3.3.38l.16.15c.07 0 .07.07.15.07.08 0 .08.08.15.08.08 0 .16 0 .23.07v.15h-1.06c-.08 0-.15-.07-.15-.07-.08 0-.08-.08-.16-.08-.15-.07-.22-.22-.38-.37-.15-.15-.22-.38-.38-.6-.07-.23-.22-.38-.3-.6-.07-.23-.23-.38-.38-.6-.07-.08-.07-.08-.07-.16 0-.07-.08-.07-.08-.07l-.08-.08h-.98zm14.8-.3c0 .98-.3 1.73-.84 2.33-.53.6-1.29.9-2.27.9-.91 0-1.67-.3-2.2-.82-.54-.53-.76-1.28-.76-2.18 0-.98.3-1.73.83-2.26a3.11 3.11 0 012.28-.82c.91 0 1.67.22 2.2.75.53.52.76 1.2.76 2.1zm-5.16 0c0 .9.15 1.58.53 2.1.38.46.91.76 1.6.76.68 0 1.2-.23 1.51-.68.3-.45.53-1.13.53-2.03 0-.9-.15-1.58-.53-2.03-.38-.45-.91-.67-1.67-.67-.68 0-1.21.22-1.6.67a5.07 5.07 0 00-.37 1.88zm16.24-2.78h1.52v.15l-.53.15c-.08 0-.08.08-.08.15v4.89c0 .07.08.07.15.15l.54.15v.15h-2.05v-.15l.45-.15c.08 0 .08-.08.08-.15v-4.43l-2.05 4.88h-.3l-2.05-4.89v4.44c0 .07.07.15.07.15l.46.15v.15h-1.67v-.15l.53-.15c.07 0 .07-.08.07-.15v-4.89c0-.07 0-.15-.07-.15l-.53-.15v-.15h1.59l1.97 4.51 1.9-4.5zm8.73 5.34c0 .07.08.15.08.15l.45.15v.15h-2.05v-.15l.53-.15c.08 0 .08-.08.08-.15v-4.89c0-.07 0-.15-.08-.15l-.53-.15v-.15h5.77v.15l-.53.15c-.08 0-.08.08-.08.15v4.89c0 .07.08.07.08.15l.53.15v.15h-2.05v-.15l.46-.15c.07 0 .07-.08.07-.15V48.4h-2.88v4.13c.15.3.15.6.15.83zm12.75-5.41l1.83 5.03c.07.23.15.3.22.38.08.07.16.15.23.15l.38.15v.15h-2.13v-.15l.38-.15c.08 0 .08-.08.16-.08.07 0 0-.07 0-.07 0-.08 0-.15-.08-.23-.08-.07-.08-.22-.15-.37l-.38-1.13h-2.05l-.46 1.13c-.07.15-.07.3-.15.37-.07.08-.07.15-.07.23 0 .07 0 .07.07.07 0 0 .08.08.15.08l.38.07v.15h-1.82v-.15l.46-.15c.07 0 .15-.07.23-.15.07-.07.07-.15.15-.3l2.12-5.03h.53zm-1.36 3.3h1.74l-.83-2.25-.91 2.25zm10.7-.3v2.41c0 .07.08.15.08.15l.45.15v.15h-2.05v-.15l.53-.15c.08 0 .08-.08.08-.15v-4.89c0-.07 0-.15-.08-.15l-.53-.15v-.15h2.06v.15l-.46.15c-.08 0-.08.08-.08.15v2.11h3.04v-2.11c0-.07-.08-.07-.08-.15l-.46-.15v-.15h1.98v.15l-.53.15c-.08 0-.08.08-.08.15v4.89c0 .07.08.07.08.15l.53.15v.15h-2.06v-.15l.46-.15c.08 0 .08-.08.08-.15v-2.41h-2.96zm11.69 1.73v.68c0 .07.08.15.15.15l.46.15v.15h-2.05v-.15l.53-.15c.07 0 .07-.08.07-.15v-4.89c0-.07 0-.15-.07-.15l-.53-.15v-.15h2.05v.15l-.46.15c-.07 0-.07.08-.07.15v3.61l3.1-3.23v-.38c0-.07-.07-.07-.14-.15l-.46-.15v-.15h1.97v.15l-.53.15c-.07 0-.07.08-.07.15v4.89c0 .07.07.07.07.15l.53.15v.15h-2.05v-.15l.46-.15c.08 0 .08-.08.08-.15v-3.91l-3.04 3.23zm11.69 0v.68c0 .07.08.15.15.15l.46.15v.15H212v-.15l.53-.15c.07 0 .07-.08.07-.15v-4.89c0-.07 0-.15-.07-.15l-.53-.15v-.15h2.05v.15l-.46.15c-.07 0-.07.08-.07.15v3.61l3.1-3.23v-.38c0-.07-.07-.07-.14-.15l-.46-.15v-.15H218v.15l-.53.15c-.07 0-.07.08-.07.15v4.89c0 .07.07.07.07.15l.53.15v.15h-2.05v-.15l.46-.15c.08 0 .08-.08.08-.15v-3.91l-3.04 3.23zm.83-6.24v.6s0 .08.08.08c0 0 .08.08.15.08h1.06c.08 0 .08 0 .16-.08l.07-.08v-.6c.08 0 .08-.07.15-.07h.16c.15 0 .22.07.3.15.08.07.08.15.08.3s-.08.3-.16.38c-.07.07-.22.15-.38.22-.15.08-.3.08-.45.15h-.91c-.15 0-.3-.07-.46-.15-.15-.07-.22-.15-.38-.22a.57.57 0 01-.15-.38c0-.15 0-.23.08-.3.07-.08.15-.15.3-.15h.15s.08 0 .15.07z" fill="#171717"/></svg>