<svg width="225" height="63" viewBox="0 0 225 63" fill="none" xmlns="http://www.w3.org/2000/svg">
<path d="M27.3263 18.4697C27.3263 18.3194 27.4022 18.1691 27.4022 18.0188C27.4781 16.5158 27.63 15.0128 27.7059 13.5097C27.7059 13.0588 27.7059 13.0588 27.3263 12.9085C25.96 12.3073 24.5178 11.8564 23.0756 11.5558C22.3165 11.4055 21.6333 11.3303 20.8743 11.18C20.6466 11.18 20.4188 11.18 20.1911 11.2552C18.2176 11.7061 16.244 12.157 14.2704 12.6079C13.3595 12.8334 12.4487 13.0588 11.5378 13.2091C11.4619 13.2091 11.3101 13.2843 11.1583 13.2843C11.4619 12.0819 11.9173 11.0297 12.2209 9.97762C12.6005 8.85034 12.98 7.72307 13.2836 6.67095C13.6632 5.54368 14.0427 4.49156 14.3463 3.36428C14.7259 2.23701 15.1054 1.18489 15.4849 0.0576172C17.3067 0.583678 19.1284 1.26004 20.9502 1.86125C22.7719 2.46247 24.5937 3.06368 26.4914 3.66489C28.3131 4.2661 30.1349 4.86731 31.9566 5.46853C33.7784 6.06974 35.6001 6.67095 37.4219 7.34731C35.3724 7.79822 33.3229 8.32428 31.1976 8.77519C29.1481 9.2261 27.0986 9.75216 25.0491 10.2031V10.2782C25.125 10.3534 25.2009 10.3534 25.2769 10.4285C26.4155 10.654 27.63 10.9546 28.7686 11.1049C29.3758 11.18 29.9072 11.3303 30.5144 11.3303C31.8048 11.4055 33.0952 11.4806 34.4615 11.4806C35.6001 11.4806 36.6628 11.3303 37.8014 11.2552C38.7882 11.18 39.775 11.18 40.8377 11.18C41.4449 11.18 42.1281 11.2552 42.7353 11.3303C42.8872 11.3303 42.9631 11.3303 43.1908 11.4055C43.1149 11.8564 42.9631 12.2322 42.6594 12.5328C42.5835 12.6079 42.3558 12.6079 42.204 12.6079C40.5341 12.6079 38.94 12.7582 37.2701 13.134C36.8146 13.2091 36.3592 13.3594 35.9038 13.5097C35.6001 13.5849 35.5242 13.7352 35.4483 14.0358C35.3724 15.614 35.2206 17.117 35.1447 18.62C35.1447 18.9958 35.1447 19.0709 35.6001 19.0709C36.7387 19.2213 37.9532 19.2964 39.0918 19.3716C40.5341 19.5219 41.9763 19.6722 43.4185 19.8976C44.4053 20.0479 45.3921 20.1982 46.3789 20.3485C47.5175 20.4988 48.5042 20.9497 49.5669 21.4006C50.2501 21.7013 50.8573 22.077 51.5405 22.4528C51.6923 22.5279 51.7682 22.6031 51.92 22.6031C51.6923 21.3255 51.3887 20.0479 51.0851 18.7703C50.7814 17.4928 50.4778 16.2152 50.1742 14.9376C49.8706 13.66 49.5669 12.3825 49.2633 11.0297C53.8177 12.5328 58.2203 13.9606 62.6228 15.3885C62.6228 15.7643 55.7913 36.431 55.4876 37.1073C55.4117 36.957 55.4117 36.8819 55.3358 36.8067C54.9563 35.3788 54.6527 33.951 54.2731 32.5231C54.2731 32.3728 54.1972 32.2976 54.1213 32.0722C54.0454 32.2225 53.9695 32.2976 53.8936 32.4479C52.8309 34.6273 51.3128 36.431 49.3392 37.8588C47.8211 38.9861 46.1511 39.8128 44.4053 40.4891C42.3558 41.2406 40.3063 41.7667 38.181 42.1425C36.8905 42.2928 35.676 42.4431 34.3856 42.5934C34.2338 42.5934 34.1579 42.5934 34.0061 42.6685C33.7784 42.7437 33.6266 42.894 33.5507 43.1194C33.5507 43.3449 33.4748 43.4952 33.4748 43.7206C33.4748 44.5473 33.4748 45.4491 33.5507 46.2758C33.5507 47.0273 33.6266 47.7037 33.6266 48.4552C33.6266 48.5303 33.6266 48.6055 33.6266 48.6806C33.6266 49.2067 33.6266 49.2067 34.2338 49.357C35.2965 49.5825 36.3592 49.7328 37.4219 49.9582C38.4846 50.1837 39.5473 50.334 40.61 50.5594C41.1413 50.6346 41.1413 50.6346 41.2931 51.1606C41.2931 51.1606 41.2931 51.2358 41.369 51.3109C42.5076 51.0855 43.5703 50.7849 44.7089 50.5594C45.8475 50.334 46.9861 50.0334 48.1247 49.7328C49.2633 49.5073 50.4019 49.2067 51.6164 48.9061C51.5405 49.1316 51.5405 49.2067 51.5405 49.357C51.0092 50.9352 50.4778 52.5134 49.9465 54.0916C49.1115 56.6467 48.2765 59.2019 47.3656 61.8322C47.2897 61.9825 47.2897 62.0576 47.2138 62.2079C39.9268 59.8031 32.6398 57.4734 25.3528 55.0685V54.9934C26.5673 54.6928 27.8577 54.3922 29.0722 54.0916C30.3626 53.791 31.5771 53.4903 32.8675 53.1897C34.1579 52.8891 35.3724 52.5885 36.7387 52.2879C36.5869 52.2128 36.511 52.1376 36.511 52.1376C35.7519 51.9873 34.9929 51.7619 34.2338 51.6867C32.488 51.3861 30.6662 51.1606 28.8445 51.0855C26.3395 50.9352 23.8346 51.0103 21.3297 51.3109C20.1152 51.4613 19.0525 51.0855 18.0657 50.334C17.838 50.1837 17.6862 50.0334 17.5344 49.8079C17.4585 49.7328 17.3826 49.5073 17.3826 49.357C17.3826 49.1316 17.4585 48.9813 17.6862 48.9813C18.2935 48.9813 18.8248 48.9061 19.4321 48.9061C20.5707 48.831 21.6333 48.7558 22.7719 48.7558C23.3792 48.7558 24.0624 48.6806 24.6696 48.6806C25.0491 48.6806 25.125 48.6055 25.125 48.3049C25.3528 46.877 25.5805 45.374 25.8082 43.9461C25.8841 43.5703 25.8841 43.2697 25.8841 42.894C25.8841 42.2928 25.8082 42.1425 25.201 41.9922C24.5937 41.8419 23.9864 41.7667 23.3792 41.6164C19.9634 40.7897 16.7753 39.5873 13.815 37.7837C12.2968 36.8067 10.9305 35.6794 9.79193 34.3267C9.71603 34.2516 9.56422 34.1764 9.48831 34.1013C9.86784 36.0552 10.3233 37.934 10.7787 39.8128C11.2342 41.6916 11.6896 43.5703 12.145 45.5243C12.6005 47.4031 13.0559 49.2819 13.4354 51.1606C13.3595 51.2358 13.3595 51.2358 13.3595 51.2358C13.3595 51.2358 13.3595 51.2358 13.2836 51.2358C8.95696 49.6576 4.63029 48.2297 0.303626 46.877C0.227719 46.877 0.151813 46.8019 0 46.7267C0.0759065 46.5764 0.0759065 46.351 0.151813 46.2006C1.44222 42.2176 2.80854 38.2346 4.09895 34.2516C5.46527 30.0431 6.90749 25.9097 8.27381 21.7013C8.34971 21.4758 8.50152 21.3255 8.65334 21.1C9.3365 20.4988 10.1715 19.9728 11.0823 19.597C12.5246 18.9958 14.0427 18.5449 15.6367 18.3946C16.5476 18.3194 17.5344 18.3194 18.4453 18.2443C19.8875 18.2443 21.3297 18.2443 22.7719 18.2443C24.1383 18.2443 25.4287 18.3194 26.795 18.3946C26.9468 18.5449 27.1745 18.4697 27.3263 18.4697ZM26.6432 30.2685C26.795 27.4879 27.0227 24.7073 27.1745 21.9267C27.1745 21.551 27.2504 21.2503 27.2504 20.8746C27.2504 20.574 27.2504 20.4988 26.8709 20.4237C26.4155 20.3485 25.8841 20.2734 25.4287 20.1982C24.5178 20.1231 23.6069 20.1231 22.696 20.1231C21.2538 20.1231 19.8116 20.3485 18.4453 20.9497C16.4717 21.7764 15.0295 23.1291 14.4222 25.2334C14.1186 26.2103 14.0427 27.2625 14.0427 28.2394C14.0427 29.4419 14.2704 30.6443 14.6499 31.7716C15.4849 34.1013 17.003 35.9049 19.0525 37.2576C20.9502 38.5352 22.9997 39.437 25.2769 39.9631C25.96 40.1134 25.96 40.1134 26.0359 39.437C26.1877 36.3558 26.4155 33.3497 26.6432 30.2685ZM35.0688 20.9497C34.9929 21.0249 34.9929 21.1 34.9929 21.1C34.6133 27.5631 34.1579 33.8758 33.7784 40.2637C33.7784 40.3388 33.7784 40.414 33.7784 40.4891C33.7784 40.4891 33.7784 40.4891 33.7784 40.5643C33.7784 40.5643 33.7784 40.5643 33.8543 40.6394C34.0061 40.6394 34.2338 40.6394 34.4615 40.5643C37.0424 40.2637 39.4714 39.5122 41.7486 38.1594C43.5703 37.1073 45.0125 35.6794 45.9234 33.7255C46.9102 31.8467 47.2897 29.8176 47.062 27.7134C46.9102 26.06 46.3029 24.6322 45.0125 23.5049C44.1017 22.6782 43.1149 22.1522 41.9763 21.7764C40.0786 21.1 38.181 20.9497 36.2074 20.8746C35.9038 20.9497 35.5242 20.9497 35.0688 20.9497Z" fill="white"/>
<path d="M205.555 40.7898C205.631 40.4892 205.631 40.3389 205.707 40.1886C205.858 39.5123 205.858 39.5123 206.541 39.4371C207.301 39.362 207.984 39.2868 208.743 39.2117C209.274 39.1365 209.274 39.1365 209.274 38.6104C209.274 38.4601 209.274 38.3098 209.274 38.1595C209.274 32.8238 209.274 27.5632 209.274 22.2274C209.274 22.002 209.274 21.8517 209.274 21.6262C209.274 20.4238 208.287 19.7474 207.149 20.1983C206.997 20.2735 206.845 20.3486 206.693 20.4238C206.238 20.6492 206.086 20.9498 206.086 21.4759C206.162 22.4529 206.162 23.4298 206.238 24.4068C206.238 24.7826 206.162 25.008 205.858 25.2335C205.479 25.4589 205.099 25.7595 204.72 26.0601C204.72 22.4529 204.72 18.9207 204.72 15.3135C205.023 15.4638 205.327 15.5389 205.555 15.6892C205.706 15.7644 205.782 15.9898 205.782 16.1401C205.858 16.5911 205.858 17.042 205.934 17.4177C205.934 17.6432 206.01 17.7935 206.01 18.0189C206.314 18.0189 206.541 18.0189 206.845 18.0189C210.109 18.0189 213.373 18.0189 216.637 18.0189C216.789 18.0189 216.941 18.0189 217.092 18.0189C217.396 18.0189 217.472 18.0941 217.548 18.3947C217.624 18.9959 217.548 19.1462 216.865 19.2214C215.878 19.3717 214.967 19.522 213.98 19.6723C213.525 19.7474 213.449 19.8226 213.449 20.2735C213.449 22.3777 213.449 24.5571 213.449 26.6614C213.449 27.1123 213.525 27.1874 214.132 27.3377C215.878 27.7135 217.472 28.3147 219.066 29.0662C220.356 29.6674 221.571 30.4189 222.634 31.4711C224.987 33.7256 224.607 37.6335 221.419 39.4371C220.129 40.1886 218.762 40.5644 217.32 40.7147C216.713 40.7898 216.106 40.7898 215.498 40.7898C212.462 40.7898 209.502 40.7898 206.466 40.7898C206.086 40.865 205.858 40.7898 205.555 40.7898ZM213.373 28.6153C213.373 28.8407 213.297 28.9911 213.297 29.1414C213.297 32.3729 213.297 35.5292 213.297 38.7607C213.297 39.2117 213.373 39.2868 213.829 39.2868C215.043 39.2868 216.182 39.0614 217.168 38.385C218.003 37.8589 218.611 37.1826 218.914 36.2056C219.446 34.3268 219.066 32.5983 217.776 31.0953C216.789 29.968 215.574 29.2917 214.208 28.8407C213.98 28.7656 213.677 28.7656 213.373 28.6153Z" fill="white"/>
<path d="M119.856 22.8286C120.16 22.8286 120.312 22.8286 120.464 22.8286C122.741 22.8286 125.018 22.8286 127.295 22.8286C127.447 22.8286 127.599 22.8286 127.675 22.8286C127.751 22.8286 127.902 22.9789 127.902 23.0541C127.902 23.3547 127.978 23.5801 127.902 23.8807C127.902 24.1062 127.675 24.1813 127.523 24.1813C127.143 24.1813 126.688 24.1813 126.308 24.1813C125.701 24.1813 125.625 24.2565 125.549 24.8577C125.473 25.3086 125.473 25.8347 125.397 26.2856C125.246 29.2165 125.17 32.0723 125.322 35.0032C125.397 36.3559 125.549 37.7086 125.625 38.9862C125.701 39.5874 125.777 39.6626 126.384 39.6626C126.688 39.6626 127.067 39.7377 127.371 39.7377C127.675 39.7377 127.751 39.888 127.751 40.1886C127.751 40.3389 127.751 40.4141 127.751 40.5644C127.751 40.7898 127.599 40.9401 127.371 40.9401C127.295 40.9401 127.219 40.9401 127.219 40.9401C124.866 40.9401 122.437 40.9401 120.084 40.9401C119.932 40.9401 119.78 40.9401 119.629 40.865C119.704 40.4141 119.856 40.1135 120.084 39.8129C120.16 39.7377 120.388 39.6626 120.539 39.6626C120.919 39.5874 121.298 39.5874 121.754 39.5123C122.058 39.5123 122.209 39.3619 122.209 38.9862C122.209 38.8359 122.209 38.6856 122.209 38.5353C122.209 34.928 122.209 31.3207 122.209 27.7135C122.209 27.488 122.133 27.2626 122.133 26.9619C122.058 26.9619 122.058 26.9619 121.982 26.8868C121.83 27.0371 121.678 27.1123 121.602 27.2626C118.945 30.5692 116.289 33.8007 113.556 37.1074C112.949 37.8589 113.176 38.6104 113.176 39.3619C113.176 39.4371 113.404 39.5874 113.556 39.5874C113.86 39.6626 114.239 39.6626 114.543 39.7377C114.846 39.7377 115.15 39.8129 115.378 39.8129C115.454 39.888 115.454 39.888 115.454 39.9632C115.606 40.7898 115.53 40.865 114.695 40.865C112.417 40.865 110.14 40.865 107.787 40.865C107.559 40.865 107.408 40.865 107.18 40.865C107.104 40.4892 107.332 40.1135 107.484 39.8129C107.559 39.6626 107.787 39.6626 107.939 39.5874C108.318 39.5123 108.698 39.5123 109.153 39.4371C109.609 39.3619 109.685 39.2868 109.685 38.8359C109.685 38.6856 109.685 38.5353 109.685 38.385C109.685 33.951 109.685 29.4419 109.685 25.008C109.685 24.031 109.685 24.031 108.622 24.031C108.546 24.031 108.47 24.031 108.47 24.031C107.483 24.031 107.484 24.031 107.408 22.9789C108.015 22.8286 114.922 22.6783 115.53 22.8286C115.681 23.505 115.378 23.8807 114.695 23.9559C114.315 23.9559 114.011 23.9559 113.632 23.9559C113.101 23.9559 113.025 24.031 113.025 24.5571C113.025 24.9329 113.025 25.2335 113.025 25.6092C113.025 28.3898 113.025 31.2456 113.025 34.0262C113.025 34.2516 113.025 34.4019 113.025 34.6274C113.404 34.6274 113.48 34.4019 113.632 34.2516C114.543 33.1995 115.454 32.1474 116.365 31.0953C118.11 29.1413 119.856 27.1123 121.602 25.1583C121.678 25.0832 121.83 24.9329 121.906 24.8577C122.133 24.4819 122.058 24.1813 121.602 24.1062C121.374 24.031 121.223 24.031 120.995 24.031C120.312 24.031 120.084 23.505 119.856 22.8286Z" fill="white"/>
<path d="M180.354 22.8286C180.582 22.8286 180.733 22.8286 180.885 22.8286C183.086 22.8286 185.288 22.8286 187.489 22.8286C187.641 22.8286 187.717 22.8286 187.869 22.8286C188.096 22.8286 188.172 22.9789 188.172 23.1292C188.172 23.4298 188.172 23.7304 188.172 24.1062C187.944 24.1062 187.793 24.1813 187.641 24.1813C187.261 24.1813 186.882 24.1813 186.502 24.1813C186.199 24.1813 186.047 24.2565 185.971 24.6323C185.895 25.3086 185.819 26.0601 185.743 26.7365C185.667 29.2165 185.591 31.6213 185.667 34.1013C185.667 35.6795 185.895 37.3329 186.047 38.911C186.123 39.5874 186.199 39.5874 186.882 39.6626C187.109 39.6626 187.261 39.6626 187.489 39.6626C188.096 39.7377 188.248 40.0383 188.096 40.6395C188.096 40.7147 187.944 40.7898 187.869 40.865C187.793 40.9401 187.641 40.865 187.489 40.865C185.288 40.865 183.086 40.865 180.809 40.865C180.657 40.865 180.506 40.865 180.202 40.7898C180.354 40.4141 180.506 40.1135 180.657 39.8129C180.733 39.7377 180.885 39.6626 181.037 39.5874C181.416 39.5123 181.796 39.5123 182.251 39.4371C182.631 39.3619 182.707 39.3619 182.707 38.9862C182.707 38.8359 182.707 38.6104 182.707 38.4601C182.707 36.431 182.631 34.4771 182.631 32.448C182.631 32.2977 182.631 32.1474 182.555 31.922C182.327 31.922 182.1 31.922 181.872 31.922C180.202 32.0723 178.608 32.2977 176.938 32.448C176.027 32.5232 175.116 32.5983 174.205 32.7486C173.674 32.8238 173.598 32.8989 173.598 33.425C173.598 35.3038 173.598 37.1074 173.598 38.9862C173.598 39.5123 173.674 39.5874 174.205 39.5874C174.737 39.6626 175.344 39.6626 175.875 39.7377C176.255 39.8129 176.483 40.3389 176.255 40.6395C176.179 40.7147 176.103 40.7898 176.027 40.7898C175.875 40.7898 175.648 40.7898 175.496 40.7898C173.37 40.7898 171.169 40.7898 169.044 40.7898C168.816 40.7898 168.588 40.7898 168.285 40.7147C168.436 40.3389 168.512 40.1135 168.588 39.8129C168.664 39.5874 168.816 39.5123 169.044 39.5123C169.423 39.5123 169.803 39.4371 170.258 39.3619C170.638 39.2868 170.714 39.2116 170.714 38.8359C170.714 38.6856 170.714 38.5353 170.714 38.385C170.714 33.8759 170.714 29.4419 170.714 24.9329C170.714 23.9559 170.714 23.9559 169.727 23.9559C169.651 23.9559 169.575 23.9559 169.499 23.9559C168.664 23.9559 168.588 23.8056 168.588 22.9789C169.044 22.8286 175.648 22.6783 176.407 22.8286C176.634 23.505 176.331 23.9559 175.572 23.9559C175.116 23.9559 174.661 23.9559 174.281 23.9559C173.674 23.9559 173.598 24.031 173.598 24.5571C173.598 26.2856 173.598 28.0141 173.598 29.7426C173.598 29.8177 173.598 29.8177 173.598 29.8929C173.598 30.3438 173.674 30.4189 174.129 30.4189C174.281 30.4189 174.433 30.4189 174.585 30.4189C176.862 30.4189 179.215 30.4189 181.492 30.4189C181.644 30.4189 181.796 30.4189 181.948 30.4189C182.631 30.4189 182.631 30.4189 182.631 29.7426C182.631 28.3147 182.631 26.962 182.631 25.5341C182.631 25.3086 182.631 25.008 182.631 24.7826C182.631 24.2565 182.555 24.1813 182.024 24.1062C181.872 24.1062 181.72 24.031 181.644 24.031C180.733 23.8807 180.582 23.8056 180.354 22.8286Z" fill="white"/>
<path d="M81.144 39.362C81.144 39.1365 81.2199 38.9111 81.2199 38.6856C81.2199 34.0262 81.2199 29.3668 81.2199 24.7826C81.2199 24.7074 81.2199 24.6323 81.2199 24.6323C81.2199 24.1814 81.144 24.1062 80.6885 24.1062C80.5367 24.1062 80.4608 24.1062 80.309 24.1062C79.5499 24.1062 79.474 24.0311 79.2463 23.3547C79.2463 23.2795 79.1704 23.1292 79.1704 22.9789C79.3222 22.9789 79.474 22.9038 79.5499 22.9038C80.0813 22.9038 80.6126 22.9038 81.144 22.9038C84.5598 22.8286 87.8997 22.8286 91.3154 22.7535C91.9986 22.7535 92.0745 22.7535 92.2263 22.0771C92.454 21.4007 93.0613 21.3256 93.6685 21.1753C93.5926 22.3026 93.3649 23.3547 93.3649 24.482C93.3649 25.5341 93.4408 26.6614 93.4408 27.7135C92.6818 27.7886 92.2263 27.488 91.9227 26.8868C91.6191 26.3607 91.3154 25.8347 91.0118 25.3086C90.7082 24.8577 90.2527 24.5571 89.7214 24.5571C88.2792 24.482 86.837 24.3317 85.3947 24.3317C84.9393 24.3317 84.8634 24.4068 84.8634 24.8577C84.8634 26.2104 84.8634 27.5632 84.8634 28.9159C84.8634 29.3668 84.9393 29.442 85.3947 29.5171C86.7611 29.8177 88.1274 30.2686 89.4178 30.8698C90.5564 31.3959 91.695 32.0723 92.6058 32.9741C94.7312 35.0032 94.1999 38.3098 91.9227 39.8129C90.7082 40.5644 89.266 41.0153 87.8237 41.0153C85.3188 41.0153 82.738 41.0153 80.2331 41.0153C80.0813 41.0153 80.0054 41.0153 79.8536 41.0153C79.3222 40.865 79.5499 40.4141 79.5499 40.1135C79.5499 39.888 79.474 39.5874 79.9295 39.5874C80.2331 39.5874 80.5367 39.5874 80.8403 39.5874C80.8403 39.4371 80.9163 39.362 81.144 39.362ZM84.9393 31.0201C84.8634 31.2456 84.8634 31.3959 84.8634 31.5462C84.7116 33.6504 84.7875 38.9111 84.9393 39.362L85.0152 39.4371C85.0911 39.4371 85.2429 39.4371 85.3188 39.4371C86.6092 39.2868 87.8237 38.9862 88.8864 38.3098C90.5564 37.1826 90.86 35.3038 89.5696 33.8008C88.3551 32.2977 86.7611 31.6214 84.9393 31.0201Z" fill="white"/>
<path d="M147.486 40.5642C147.183 40.9399 146.803 41.3157 146.499 41.6914C144.678 39.963 142.856 38.2345 141.11 36.5811C139.364 34.9278 137.618 33.2745 135.873 31.546C135.341 31.7714 135.038 32.1472 134.734 32.4478C134.658 32.523 134.658 32.6733 134.658 32.8236C134.658 34.8527 134.658 36.8817 134.658 38.9108C134.658 39.3617 134.734 39.4369 135.189 39.5121C135.721 39.5872 136.252 39.5872 136.783 39.6624C136.935 39.6624 137.087 39.7375 137.239 39.7375C137.239 40.0381 137.239 40.3387 137.239 40.6393C136.783 40.7896 129.724 40.7896 128.889 40.6393C129.041 40.3387 129.117 39.963 129.269 39.6624C129.345 39.5121 129.572 39.4369 129.8 39.4369C130.18 39.3617 130.559 39.3617 131.015 39.2866C131.394 39.2114 131.47 39.2114 131.47 38.7605C131.47 38.6102 131.47 38.5351 131.47 38.3848C131.47 33.8757 131.47 29.2914 131.47 24.7824C131.47 24.4818 131.47 24.2563 131.394 23.9557C130.939 23.9557 130.483 23.8805 130.104 23.9557C129.42 23.9557 129.421 23.9557 129.269 23.3545C129.193 23.2042 129.193 23.0539 129.117 22.8284C129.345 22.8284 129.496 22.7533 129.724 22.7533C131.242 22.7533 132.684 22.7533 134.203 22.6781C135.038 22.6781 135.873 22.603 136.708 22.603C136.935 22.603 137.087 22.603 137.239 22.603C137.467 23.3545 137.163 23.7302 136.48 23.8054C136.024 23.8054 135.569 23.8054 135.189 23.8054C134.658 23.8054 134.582 23.8805 134.582 24.4066C134.582 24.8575 134.582 25.3084 134.582 25.7593C134.582 27.0369 134.658 28.2393 134.658 29.5169C134.658 29.6672 134.658 29.8927 134.734 30.1181C134.886 30.043 135.038 29.9678 135.113 29.8927C137.163 28.089 139.137 26.2102 141.186 24.4066C141.262 24.3314 141.338 24.2563 141.414 24.106C141.11 23.5799 140.655 23.5048 140.123 23.4296C140.123 23.129 140.123 22.8284 140.123 22.603C140.731 22.4527 146.196 22.4527 146.651 22.603C146.575 23.2793 146.272 23.6551 145.664 23.7302C144.905 23.8054 144.374 24.1811 143.767 24.6321C142.325 25.9096 140.806 27.1121 139.288 28.3896C139.212 28.4648 139.137 28.5399 138.985 28.6151C138.605 28.9908 138.605 28.9908 138.909 29.4417C140.199 31.0199 141.414 32.5981 142.704 34.1763C144.298 36.2054 145.892 38.2345 147.486 40.2636C147.41 40.489 147.41 40.5642 147.486 40.5642Z" fill="white"/>
<path d="M148.245 40.6395C148.397 40.0383 148.625 39.6625 149.232 39.5874C150.295 39.5122 150.826 38.8359 151.13 37.9341C152.8 33.425 154.47 28.991 156.14 24.4819C156.216 24.3316 156.216 24.1813 156.291 23.8807C155.912 23.8056 155.608 23.7304 155.305 23.6553C154.622 23.505 154.546 23.505 154.622 22.7534C154.622 22.6783 154.622 22.6031 154.622 22.528C155.912 22.6031 157.126 22.6783 158.417 22.6783C159.631 22.6783 160.846 22.528 162.136 22.3777C162.136 22.528 162.212 22.6783 162.212 22.8286C162.212 23.505 162.212 23.5801 161.529 23.6553C161.301 23.6553 160.998 23.7304 160.694 23.8056C160.77 24.031 160.77 24.1813 160.846 24.4068C162.06 27.7886 163.275 31.1704 164.489 34.5522C165.021 35.905 165.476 37.3328 166.007 38.6856C166.235 39.2868 166.235 39.2868 166.918 39.3619C167.526 39.3619 167.526 39.3619 167.526 39.9631C167.526 40.0383 167.526 40.1134 167.526 40.1134C167.526 40.7898 167.526 40.7898 166.842 40.7898C164.641 40.7898 162.516 40.7898 160.314 40.7898C160.087 40.7898 159.935 40.7898 159.631 40.7147C159.783 40.3389 159.783 39.9631 160.011 39.7377C160.087 39.5874 160.39 39.5122 160.618 39.4371C161.074 39.3619 161.605 39.2868 162.136 39.2116C162.06 38.9862 162.06 38.7607 161.984 38.6104C161.377 36.8068 160.694 35.0031 160.011 33.1995C159.783 32.5983 159.783 32.5983 159.176 32.5983C157.961 32.5983 156.747 32.5983 155.532 32.5983C154.925 32.5983 154.925 32.5983 154.773 33.1995C154.318 35.0783 153.862 36.8819 153.407 38.7607C153.407 38.911 153.407 39.0613 153.331 39.2868C153.938 39.3619 154.546 39.5122 155.077 39.5874C155.153 39.6625 155.153 39.7377 155.153 39.7377C155.229 40.6395 155.229 40.6395 154.318 40.6395C152.496 40.6395 150.674 40.5644 148.853 40.5644C148.625 40.6395 148.473 40.6395 148.245 40.6395ZM155.153 31.2456C155.912 31.3207 156.595 31.3207 157.278 31.3207C157.961 31.3207 158.645 31.3959 159.404 31.2456C159.176 30.4941 159.024 29.7425 158.796 29.0662C158.569 28.3898 158.417 27.6383 158.189 26.9619C157.961 26.2856 157.885 25.6092 157.506 24.8577C157.202 25.3086 155.381 30.3437 155.153 31.2456Z" fill="white"/>
<path d="M70.3652 40.7896C70.517 40.4139 70.517 40.1132 70.6689 39.8126C70.7448 39.6623 70.9725 39.5872 71.1243 39.512C71.5038 39.4369 71.9593 39.4369 72.3388 39.3617C72.4906 39.3617 72.5665 39.2866 72.7942 39.2114C72.7183 38.986 72.7183 38.7605 72.6424 38.6102C72.0352 36.8066 71.352 35.0029 70.7448 33.2745C70.517 32.6732 70.517 32.6732 69.9098 32.6732C68.6953 32.6732 67.4808 32.6732 66.2663 32.6732C65.659 32.6732 65.659 32.6732 65.5072 33.3496C65.0518 35.1532 64.5963 36.8817 64.1409 38.6854C64.065 38.9108 64.065 39.1363 63.9891 39.3617C64.3686 39.4369 64.6723 39.4369 64.9759 39.512C65.1277 39.512 65.2795 39.5872 65.4313 39.5872C65.7349 39.5872 65.8108 39.8126 65.8108 40.0381C65.8108 40.6393 65.8108 40.7145 65.2036 40.7145C63.23 40.7145 61.1806 40.6393 59.207 40.6393C59.1311 40.6393 59.0552 40.6393 59.0552 40.6393C59.1311 40.0381 59.3588 39.7375 59.8901 39.5872C60.042 39.5872 60.1179 39.512 60.2697 39.512C60.9528 39.4369 61.4842 39.0611 61.7119 38.3848C62.0155 37.7084 62.3192 36.9569 62.5469 36.2054C63.9891 32.2975 65.4313 28.3896 66.8735 24.5569C66.9494 24.3314 67.0254 24.1811 67.1013 23.8805C66.7217 23.8054 66.4181 23.7302 66.0386 23.6551C65.3554 23.5048 65.3554 23.4296 65.3554 22.8284C65.3554 22.7532 65.3554 22.6781 65.3554 22.6029C66.5699 22.6781 67.8603 22.7532 69.0748 22.7532C70.2893 22.7532 71.5797 22.5278 72.7942 22.4526C72.8702 22.6029 72.8701 22.6781 72.8701 22.7532C72.9461 23.5048 72.8701 23.5799 72.1111 23.7302C71.8834 23.8054 71.6556 23.8054 71.352 23.8805C71.4279 24.1811 71.4279 24.4066 71.5038 24.5569C72.6424 27.7132 73.781 30.7945 74.8437 33.9508C75.451 35.529 75.9823 37.1823 76.5896 38.7605C76.8173 39.3617 76.8173 39.3617 77.4245 39.4369C78.0318 39.4369 78.0318 39.4369 78.0318 40.0381C78.0318 40.1132 78.0318 40.1884 78.0318 40.1884C78.0318 40.8648 78.0318 40.8648 77.3486 40.8648C75.1473 40.8648 73.022 40.8648 70.8207 40.8648C70.8207 40.8648 70.6689 40.8648 70.3652 40.7896ZM66.0386 31.1702C66.5699 31.3957 69.6062 31.3957 70.2134 31.1702C70.1375 30.4939 69.8339 29.8175 69.6821 29.066C69.5303 28.3896 69.3025 27.6381 69.0748 26.9617C68.8471 26.2854 68.7712 25.5338 68.3917 24.8575C68.0121 25.3084 66.1145 30.4187 66.0386 31.1702Z" fill="white"/>
<path d="M101.259 40.7145C100.652 40.8648 95.3384 40.8648 94.8071 40.6394C94.883 40.3388 94.9589 40.1133 95.1107 39.8127C95.1866 39.5873 95.4143 39.5873 95.642 39.5873C96.3252 39.5121 96.3252 39.5121 96.3252 38.8357C96.3252 34.1012 96.3252 29.4418 96.3252 24.7073C96.3252 24.557 96.3252 24.4067 96.3252 24.2564C96.3252 24.0309 96.1734 23.9558 95.9457 23.9558C95.7179 23.9558 95.4902 23.8806 95.2625 23.8806C94.883 23.8806 94.7312 23.6551 94.7312 23.3545C94.7312 23.1291 94.6553 22.9036 94.5793 22.6782C94.8071 22.6782 94.9589 22.603 95.1107 22.603C97.6156 22.603 100.196 22.603 102.701 22.603C103.764 22.603 104.751 22.8285 105.738 23.1291C108.926 24.3315 109.381 28.0139 107.332 30.043C106.345 31.02 105.206 31.6964 103.992 32.2976C102.853 32.8236 101.639 33.1994 100.348 33.5C99.6651 33.6503 99.6651 33.6503 99.6651 34.3267C99.6651 35.7545 99.6651 37.1073 99.6651 38.5351C99.6651 39.2115 99.6651 39.2115 100.348 39.3618C101.183 39.7376 101.183 39.7376 101.259 40.7145ZM99.8928 32.4479C99.9687 32.4479 100.045 32.4479 100.121 32.4479C100.196 32.4479 100.272 32.3727 100.424 32.3727C101.335 31.997 102.246 31.4709 103.005 30.7945C103.536 30.3436 103.916 29.8927 104.219 29.2915C105.054 27.7133 104.675 26.06 103.157 25.1582C102.322 24.6321 101.335 24.3315 100.272 24.2564C100.121 24.2564 99.9687 24.2564 99.8928 24.2564C99.741 24.7073 99.741 31.8467 99.8928 32.4479Z" fill="white"/>
<path d="M191.057 40.7146C191.132 40.4891 191.132 40.1885 191.284 39.8879C191.36 39.7376 191.512 39.6625 191.664 39.5873C192.347 39.437 193.03 39.3618 193.713 39.2115C194.245 39.1364 194.321 39.0612 194.321 38.5352C194.321 34.0261 194.321 29.517 194.321 24.9328C194.321 24.3315 194.245 24.2564 193.637 24.3315C192.954 24.4067 192.347 24.557 191.664 24.6322C190.829 24.7825 190.297 25.2334 189.918 26.06C189.69 26.5861 189.69 26.5861 189.007 26.5861C188.855 26.2103 188.779 22.3776 188.931 21.4006C189.235 21.4758 189.462 21.4758 189.766 21.5509C190.07 21.6261 190.07 21.8515 190.146 22.077C190.297 22.6782 190.297 22.6782 190.829 22.6782C193.03 22.6782 195.231 22.7534 197.433 22.7534C198.799 22.7534 200.089 22.6782 201.456 22.6782C202.063 22.6782 202.063 22.6782 202.139 22.077C202.215 21.7764 202.367 21.5509 202.67 21.5509C202.898 21.4758 203.126 21.4758 203.353 21.4758C203.505 21.9267 203.581 25.9097 203.429 26.5861C202.822 26.6612 202.67 26.5861 202.443 26.1352C202.063 25.2334 201.456 24.7825 200.545 24.6322C199.862 24.557 199.254 24.4067 198.571 24.3315C198.192 24.2564 198.116 24.3315 198.116 24.7073C198.116 24.8576 198.116 25.0079 198.116 25.1582C198.116 29.5922 198.116 33.9509 198.116 38.3849C198.116 38.46 198.116 38.5352 198.116 38.6103C198.116 39.1364 198.116 39.1364 198.647 39.2115C199.33 39.2867 199.938 39.437 200.621 39.5122C201 39.5873 201.228 39.7376 201.228 40.1134C201.228 40.2637 201.304 40.4891 201.304 40.6394C201.228 40.7146 201.228 40.7146 201.228 40.7146C201.228 40.7146 201.228 40.7146 201.152 40.7146C201.076 40.7146 200.924 40.7146 200.848 40.7146C197.66 40.7146 194.396 40.7146 191.208 40.7146C191.132 40.7146 191.057 40.7146 191.057 40.7146C191.132 40.7897 191.132 40.7897 191.057 40.7146Z" fill="white"/>
<path d="M63.306 52.5887C63.306 52.8893 63.306 53.1899 63.306 53.4153C63.306 53.4905 63.3819 53.4905 63.3819 53.5656L63.9891 53.716V53.8663C63.6096 53.8663 63.2301 53.8663 62.8505 53.8663C62.5469 53.8663 62.1674 53.8663 61.7878 53.8663V53.716L62.3192 53.5656C62.3951 53.5656 62.3951 53.4905 62.3951 53.4153C62.3951 53.1899 62.3951 52.8893 62.3951 52.5887V49.2069C62.3951 49.0566 62.3951 48.9063 62.3951 48.8311C62.3951 48.756 62.3951 48.6056 62.3951 48.5305C62.3951 48.4553 62.3951 48.3802 62.3192 48.3802L61.7878 48.2299V48.0796C62.1674 48.0796 62.471 48.0796 62.8505 48.0796H63.8373C64.5205 48.0796 65.2036 48.0796 65.8109 48.0796L65.5073 49.5826H65.3555L65.0518 48.3802H63.2301V52.5887H63.306Z" fill="white"/>
<path d="M72.8702 52.5887C72.8702 52.739 72.8702 52.8893 72.8702 53.0396C72.8702 53.1899 72.8702 53.265 72.8702 53.4153C72.8702 53.4905 72.9461 53.4905 72.9461 53.5656L73.5533 53.716V53.8663C73.1738 53.8663 72.7943 53.8663 72.4147 53.8663C72.1111 53.8663 71.7316 53.8663 71.3521 53.8663V53.716L71.8834 53.5656C71.9593 53.5656 71.9593 53.4905 71.9593 53.4153C71.9593 53.3402 71.9593 53.1899 71.9593 53.0396C71.9593 52.8893 71.9593 52.739 71.9593 52.5887V49.2069C71.9593 49.0566 71.9593 48.9063 71.9593 48.8311C71.9593 48.756 71.9593 48.6056 71.9593 48.5305C71.9593 48.4553 71.9593 48.3802 71.8834 48.3802L71.3521 48.2299V48.0796C71.7316 48.0796 72.0352 48.0796 72.4147 48.0796C72.6425 48.0796 72.8702 48.0796 73.0979 48.0796C73.3256 48.0796 73.4774 48.0796 73.7051 48.0796C74.3883 48.0796 74.8437 48.2299 75.2233 48.4553C75.5269 48.6808 75.7546 49.0566 75.7546 49.5826C75.7546 50.1838 75.5269 50.6347 75.1474 50.9353C74.7678 51.236 74.2365 51.4614 73.4774 51.4614C73.2497 51.4614 73.0979 51.4614 72.8702 51.4614V52.5887ZM72.8702 51.0857C73.0979 51.0857 73.2497 51.1608 73.4774 51.1608C73.9329 51.1608 74.2365 51.0105 74.4642 50.785C74.6919 50.5596 74.8437 50.1838 74.8437 49.7329C74.8437 49.282 74.7678 48.9814 74.5401 48.756C74.3124 48.5305 73.9329 48.4553 73.4774 48.4553C73.3256 48.4553 73.0979 48.4553 72.9461 48.4553V51.0857H72.8702Z" fill="white"/>
<path d="M84.4838 48.0795C84.7874 48.0795 85.0911 48.0795 85.3947 48.0795C85.6983 48.0795 86.0019 48.0795 86.3056 48.0795V48.2298L85.8501 48.3802C85.7742 48.3802 85.7742 48.4553 85.6983 48.4553C85.6224 48.4553 85.6224 48.5305 85.6224 48.5305C85.6224 48.6056 85.5465 48.6056 85.5465 48.6808C85.5465 48.7559 85.4706 48.8311 85.4706 48.9062C85.3188 49.282 85.167 49.7329 85.0151 50.1086C84.8633 50.4844 84.7115 50.8602 84.5597 51.2359C84.4079 51.6117 84.2561 51.9874 84.1043 52.3632C83.9525 52.7389 83.7247 53.1147 83.5729 53.4905C83.497 53.6408 83.4211 53.7911 83.3452 53.8662C83.2693 53.9414 83.1934 54.0165 83.1175 54.0917C83.0416 54.1668 82.9657 54.1668 82.8898 54.242C82.8139 54.3171 82.662 54.242 82.5102 54.242C82.2825 54.242 81.9789 54.242 81.7512 54.1668V54.0165L81.9789 53.9414C82.1307 53.9414 82.3584 53.8662 82.4343 53.7911C82.5861 53.7159 82.662 53.6408 82.8139 53.4905C82.9657 53.3402 83.0416 53.265 83.1175 53.1147C83.1934 52.9644 83.3452 52.8141 83.4211 52.5886L81.5234 48.9062C81.5234 48.8311 81.4475 48.7559 81.4475 48.6808C81.4475 48.6056 81.3716 48.6056 81.3716 48.5305C81.3716 48.4553 81.2957 48.4553 81.2198 48.3802C81.1439 48.305 81.1439 48.305 81.068 48.305L80.6885 48.1547V48.0044C80.9162 48.0044 81.2957 48.0044 81.6753 48.0044C81.9789 48.0044 82.4343 48.0044 82.8898 48.0044V48.1547L82.5102 48.2298C82.3584 48.2298 82.3584 48.305 82.3584 48.3802C82.3584 48.4553 82.3584 48.5305 82.4343 48.6056C82.5102 48.6808 82.5102 48.8311 82.5861 48.9062L83.9525 51.5365C84.1802 51.0856 84.332 50.6347 84.4838 50.2589C84.6356 49.808 84.7874 49.4323 84.9392 48.9814C85.0151 48.8311 85.0911 48.6808 85.0911 48.5305C85.0911 48.4553 85.167 48.3802 85.167 48.305C85.167 48.2298 85.167 48.2298 85.167 48.2298C85.167 48.2298 85.0911 48.1547 85.0151 48.1547L84.6356 48.0795H84.4838Z" fill="white"/>
<path d="M92.9095 53.4153C92.9095 53.4905 92.9854 53.5656 92.9854 53.5656L93.4408 53.716V53.8663C93.1372 53.8663 92.7577 53.8663 92.454 53.8663C92.1504 53.8663 91.7709 53.8663 91.3914 53.8663V53.716L91.9227 53.5656C91.9986 53.5656 91.9986 53.4905 91.9986 53.4153C91.9986 53.1899 91.9986 52.8893 91.9986 52.5887V49.2069C91.9986 48.9063 91.9986 48.6808 91.9986 48.5305C91.9986 48.4553 91.9986 48.3802 91.9227 48.3802L91.3914 48.2299V48.0796C91.7709 48.0796 92.0745 48.0796 92.454 48.0796H96.1735C96.4771 48.0796 96.8566 48.0796 97.1602 48.0796V48.2299L96.6289 48.3802C96.553 48.3802 96.553 48.4553 96.553 48.5305C96.553 48.6808 96.553 48.9063 96.553 49.2069V52.5887C96.553 52.8893 96.553 53.1899 96.553 53.4153C96.553 53.4905 96.6289 53.4905 96.6289 53.5656L97.1602 53.716V53.8663C96.7807 53.8663 96.4771 53.8663 96.0976 53.8663C95.7939 53.8663 95.4144 53.8663 95.1108 53.8663V53.716L95.5662 53.5656C95.6421 53.5656 95.6421 53.4905 95.6421 53.4153C95.6421 53.1899 95.6421 52.8893 95.6421 52.5887V48.4553H92.7577V52.5887C92.9095 52.8893 92.9095 53.1899 92.9095 53.4153Z" fill="white"/>
<path d="M104.371 53.4153C104.371 53.4905 104.447 53.5656 104.447 53.5656L104.903 53.716V53.8663C104.599 53.8663 104.22 53.8663 103.916 53.8663C103.612 53.8663 103.233 53.8663 102.853 53.8663V53.716L103.385 53.5656C103.461 53.5656 103.461 53.4905 103.461 53.4153C103.461 53.1899 103.461 52.8893 103.461 52.5887V49.2069C103.461 48.9063 103.461 48.6808 103.461 48.5305C103.461 48.4553 103.461 48.3802 103.385 48.3802L102.853 48.2299V48.0796C103.233 48.0796 103.536 48.0796 103.916 48.0796H107.635C107.939 48.0796 108.319 48.0796 108.622 48.0796V48.2299L108.091 48.3802C108.015 48.3802 108.015 48.4553 108.015 48.5305C108.015 48.6808 108.015 48.9063 108.015 49.2069V52.5887C108.015 52.8893 108.015 53.1899 108.015 53.4153C108.015 53.4905 108.091 53.4905 108.091 53.5656L108.622 53.716V53.8663C108.243 53.8663 107.939 53.8663 107.559 53.8663C107.256 53.8663 106.876 53.8663 106.573 53.8663V53.716L107.028 53.5656C107.104 53.5656 107.104 53.4905 107.104 53.4153C107.104 53.1899 107.104 52.8893 107.104 52.5887V48.4553H104.22V52.5887C104.371 52.8893 104.371 53.1899 104.371 53.4153Z" fill="white"/>
<path d="M117.124 48.0044L118.945 53.0395C119.021 53.265 119.097 53.3402 119.173 53.4153C119.249 53.4905 119.325 53.5656 119.401 53.5656L119.78 53.7159V53.8662C119.401 53.8662 119.097 53.8662 118.793 53.8662C118.49 53.8662 118.11 53.8662 117.655 53.8662V53.7159L118.034 53.5656C118.11 53.5656 118.11 53.4905 118.186 53.4905C118.262 53.4905 118.186 53.4153 118.186 53.4153C118.186 53.3402 118.186 53.265 118.11 53.1898C118.034 53.1147 118.034 52.9644 117.959 52.8141L117.579 51.6868H115.53L115.074 52.8141C114.998 52.9644 114.998 53.1147 114.922 53.1898C114.846 53.265 114.846 53.3402 114.846 53.4153C114.846 53.4905 114.846 53.4905 114.922 53.4905C114.922 53.4905 114.998 53.5656 115.074 53.5656L115.454 53.6408V53.7911C115.074 53.7911 114.77 53.7911 114.467 53.7911C114.239 53.7911 113.935 53.7911 113.632 53.7911V53.6408L114.087 53.4905C114.163 53.4905 114.239 53.4153 114.315 53.3402C114.391 53.265 114.391 53.1898 114.467 53.0395L116.592 48.0044H117.124ZM115.757 51.3111H117.503L116.668 49.0565L115.757 51.3111Z" fill="white"/>
<path d="M133.368 51.1608V52.5887C133.368 52.739 133.368 52.8893 133.368 53.0396C133.368 53.1899 133.368 53.265 133.368 53.4153C133.368 53.4905 133.444 53.5656 133.444 53.5656L133.899 53.716V53.8663C133.595 53.8663 133.216 53.8663 132.912 53.8663C132.609 53.8663 132.229 53.8663 131.85 53.8663V53.716L132.381 53.5656C132.457 53.5656 132.457 53.4905 132.457 53.4153C132.457 53.3402 132.457 53.1899 132.457 53.0396C132.457 52.8893 132.457 52.739 132.457 52.5887V49.2069C132.457 49.0566 132.457 48.9063 132.457 48.8311C132.457 48.756 132.457 48.6056 132.457 48.5305C132.457 48.4553 132.457 48.3802 132.381 48.3802L131.85 48.2299V48.0796C132.001 48.0796 132.229 48.0796 132.381 48.0796C132.533 48.0796 132.685 48.0796 132.912 48.0796C133.14 48.0796 133.216 48.0796 133.444 48.0796C133.595 48.0796 133.747 48.0796 133.975 48.0796V48.2299L133.52 48.3802C133.444 48.3802 133.444 48.4553 133.444 48.5305C133.444 48.6056 133.444 48.756 133.444 48.8311C133.444 48.9814 133.444 49.0566 133.444 49.2069V50.785H133.899C134.051 50.785 134.127 50.785 134.279 50.785C134.355 50.785 134.506 50.785 134.582 50.7099C134.658 50.6347 134.734 50.6347 134.81 50.5596C134.886 50.4844 134.962 50.4093 135.038 50.3341C135.114 50.259 135.189 50.1087 135.189 49.9584C135.265 49.8081 135.265 49.6578 135.341 49.4323C135.417 49.2069 135.417 49.0566 135.493 48.9063C135.569 48.756 135.569 48.6056 135.645 48.5305C135.721 48.4553 135.721 48.3802 135.797 48.305C135.873 48.2299 135.873 48.2299 135.949 48.1547C136.024 48.0796 136.1 48.0796 136.176 48.0796C136.252 48.0796 136.328 48.0796 136.48 48.0796C136.708 48.0796 136.935 48.0796 137.239 48.0796V48.305C137.011 48.305 136.859 48.305 136.784 48.3802C136.632 48.4553 136.556 48.5305 136.404 48.6056C136.252 48.6808 136.252 48.8311 136.176 48.9814C136.1 49.1317 136.024 49.282 135.949 49.4323C135.873 49.5826 135.797 49.6578 135.797 49.8081C135.797 49.9584 135.645 50.0335 135.569 50.1838C135.493 50.3341 135.417 50.4093 135.341 50.4844C135.265 50.5596 135.189 50.6347 135.038 50.7099C135.265 51.0105 135.417 51.3111 135.569 51.5366C135.721 51.8372 135.873 52.0626 136.024 52.2881C136.176 52.5135 136.252 52.6638 136.404 52.8893C136.48 53.0396 136.632 53.1899 136.708 53.265C136.784 53.3402 136.784 53.3402 136.859 53.4153C136.935 53.4153 136.935 53.4905 137.011 53.4905C137.087 53.4905 137.087 53.5656 137.163 53.5656C137.239 53.5656 137.315 53.5657 137.391 53.6408V53.7911C137.163 53.7911 137.011 53.7911 136.859 53.7911C136.708 53.7911 136.632 53.7911 136.556 53.7911C136.48 53.7911 136.404 53.7911 136.328 53.7911C136.252 53.7911 136.176 53.716 136.176 53.716C136.1 53.716 136.1 53.6408 136.024 53.6408C135.873 53.5657 135.797 53.4154 135.645 53.265C135.493 53.1147 135.417 52.8893 135.265 52.6638C135.189 52.4384 135.038 52.2881 134.962 52.0626C134.886 51.8372 134.734 51.6869 134.582 51.4614C134.506 51.3863 134.506 51.3863 134.506 51.3111C134.506 51.236 134.43 51.236 134.43 51.236L134.355 51.1608C134.355 51.1608 134.279 51.1608 134.203 51.1608H133.368Z" fill="white"/>
<path d="M148.169 50.8602C148.169 51.8371 147.866 52.5886 147.334 53.1898C146.803 53.7911 146.044 54.0917 145.057 54.0917C144.146 54.0917 143.387 53.7911 142.856 53.265C142.325 52.7389 142.097 51.9874 142.097 51.0856C142.097 50.1086 142.401 49.3571 142.932 48.8311C143.463 48.305 144.222 48.0044 145.209 48.0044C146.12 48.0044 146.879 48.2299 147.41 48.7559C147.942 49.282 148.169 49.9583 148.169 50.8602ZM143.008 50.8602C143.008 51.762 143.16 52.4383 143.539 52.9644C143.919 53.4153 144.45 53.7159 145.133 53.7159C145.816 53.7159 146.348 53.4905 146.651 53.0395C146.955 52.5886 147.183 51.9123 147.183 51.0105C147.183 50.1086 147.031 49.4323 146.651 48.9814C146.272 48.5305 145.74 48.305 144.981 48.305C144.298 48.305 143.767 48.5305 143.387 48.9814C143.236 49.3571 143.008 50.0335 143.008 50.8602Z" fill="white"/>
<path d="M159.252 48.0796C159.48 48.0796 159.783 48.0796 159.935 48.0796C160.163 48.0796 160.39 48.0796 160.77 48.0796V48.2299L160.239 48.3802C160.163 48.3802 160.163 48.4553 160.163 48.5305C160.163 48.6808 160.163 48.9063 160.163 49.2069V52.5887C160.163 52.8893 160.163 53.1899 160.163 53.4153C160.163 53.4905 160.239 53.4905 160.315 53.5656L160.846 53.716V53.8663C160.466 53.8663 160.163 53.8663 159.783 53.8663C159.48 53.8663 159.1 53.8663 158.796 53.8663V53.716L159.252 53.5656C159.328 53.5656 159.328 53.4905 159.328 53.4153C159.328 53.1899 159.328 52.8893 159.328 52.5887V48.9814L157.278 53.8663H156.975L154.925 48.9814V52.5887C154.925 52.8893 154.925 53.1899 154.925 53.4153C154.925 53.4905 155.001 53.5656 155.001 53.5656L155.457 53.716V53.8663C155.153 53.8663 154.849 53.8663 154.622 53.8663C154.394 53.8663 154.09 53.8663 153.787 53.8663V53.716L154.318 53.5656C154.394 53.5656 154.394 53.4905 154.394 53.4153C154.394 53.1899 154.394 52.8893 154.394 52.5887V49.2069C154.394 48.9063 154.394 48.6808 154.394 48.5305C154.394 48.4553 154.394 48.3802 154.318 48.3802L153.787 48.2299V48.0796C154.166 48.0796 154.394 48.0796 154.622 48.0796C154.849 48.0796 155.077 48.0796 155.381 48.0796L157.354 52.5887L159.252 48.0796Z" fill="white"/>
<path d="M167.981 53.4153C167.981 53.4905 168.057 53.5656 168.057 53.5656L168.512 53.716V53.8663C168.209 53.8663 167.829 53.8663 167.526 53.8663C167.222 53.8663 166.842 53.8663 166.463 53.8663V53.716L166.994 53.5656C167.07 53.5656 167.07 53.4905 167.07 53.4153C167.07 53.1899 167.07 52.8893 167.07 52.5887V49.2069C167.07 48.9063 167.07 48.6808 167.07 48.5305C167.07 48.4553 167.07 48.3802 166.994 48.3802L166.463 48.2299V48.0796C166.842 48.0796 167.146 48.0796 167.526 48.0796H171.245C171.549 48.0796 171.928 48.0796 172.232 48.0796V48.2299L171.7 48.3802C171.624 48.3802 171.624 48.4553 171.624 48.5305C171.624 48.6808 171.624 48.9063 171.624 49.2069V52.5887C171.624 52.8893 171.624 53.1899 171.624 53.4153C171.624 53.4905 171.7 53.4905 171.7 53.5656L172.232 53.716V53.8663C171.852 53.8663 171.549 53.8663 171.169 53.8663C170.865 53.8663 170.486 53.8663 170.182 53.8663V53.716L170.638 53.5656C170.714 53.5656 170.714 53.4905 170.714 53.4153C170.714 53.1899 170.714 52.8893 170.714 52.5887V48.4553H167.829V52.5887C167.981 52.8893 167.981 53.1899 167.981 53.4153Z" fill="white"/>
<path d="M180.733 48.0044L182.555 53.0395C182.631 53.265 182.707 53.3402 182.783 53.4153C182.859 53.4905 182.935 53.5656 183.011 53.5656L183.39 53.7159V53.8662C183.011 53.8662 182.707 53.8662 182.403 53.8662C182.1 53.8662 181.72 53.8662 181.265 53.8662V53.7159L181.644 53.5656C181.72 53.5656 181.72 53.4905 181.796 53.4905C181.872 53.4905 181.796 53.4153 181.796 53.4153C181.796 53.3402 181.796 53.265 181.72 53.1898C181.644 53.1147 181.644 52.9644 181.568 52.8141L181.189 51.6868H179.139L178.684 52.8141C178.608 52.9644 178.608 53.1147 178.532 53.1898C178.456 53.265 178.456 53.3402 178.456 53.4153C178.456 53.4905 178.456 53.4905 178.532 53.4905C178.532 53.4905 178.608 53.5656 178.684 53.5656L179.063 53.6408V53.7911C178.684 53.7911 178.38 53.7911 178.077 53.7911C177.849 53.7911 177.545 53.7911 177.242 53.7911V53.6408L177.697 53.4905C177.773 53.4905 177.849 53.4153 177.925 53.3402C178.001 53.265 178.001 53.1898 178.077 53.0395L180.202 48.0044H180.733ZM179.367 51.3111H181.113L180.278 49.0565L179.367 51.3111Z" fill="white"/>
<path d="M190.07 51.0105V52.5887C190.07 52.8893 190.07 53.1899 190.07 53.4153C190.07 53.4905 190.146 53.5656 190.146 53.5656L190.601 53.716V53.8663C190.298 53.8663 189.918 53.8663 189.614 53.8663C189.311 53.8663 188.931 53.8663 188.552 53.8663V53.716L189.083 53.5656C189.159 53.5656 189.159 53.4905 189.159 53.4153C189.159 53.1899 189.159 52.8893 189.159 52.5887V49.2069C189.159 48.9063 189.159 48.6808 189.159 48.5305C189.159 48.4553 189.159 48.3802 189.083 48.3802L188.552 48.2299V48.0796C188.931 48.0796 189.235 48.0796 189.614 48.0796C189.918 48.0796 190.298 48.0796 190.601 48.0796V48.2299L190.146 48.3802C190.07 48.3802 190.07 48.4553 190.07 48.5305C190.07 48.756 190.07 48.9814 190.07 49.2069V50.6347H193.106V49.2069C193.106 48.9063 193.106 48.6808 193.106 48.5305C193.106 48.4553 193.03 48.4553 193.03 48.3802L192.575 48.2299V48.0796C192.878 48.0796 193.258 48.0796 193.562 48.0796C193.865 48.0796 194.245 48.0796 194.548 48.0796V48.2299L194.017 48.3802C193.941 48.3802 193.941 48.4553 193.941 48.5305C193.941 48.6808 193.941 48.9063 193.941 49.2069V52.5887C193.941 52.8893 193.941 53.1899 193.941 53.4153C193.941 53.4905 194.017 53.4905 194.017 53.5656L194.548 53.716V53.8663C194.169 53.8663 193.865 53.8663 193.486 53.8663C193.182 53.8663 192.803 53.8663 192.499 53.8663V53.716L192.954 53.5656C193.03 53.5656 193.03 53.4905 193.03 53.4153C193.03 53.1899 193.03 52.8893 193.03 52.5887V51.0105H190.07Z" fill="white"/>
<path d="M201.759 52.739V53.4153C201.759 53.4905 201.835 53.5656 201.911 53.5656L202.367 53.716V53.8663C202.063 53.8663 201.683 53.8663 201.38 53.8663C201.076 53.8663 200.697 53.8663 200.317 53.8663V53.716L200.848 53.5656C200.924 53.5656 200.924 53.4905 200.924 53.4153C200.924 53.1899 200.924 52.8893 200.924 52.5887V49.2069C200.924 48.9063 200.924 48.6808 200.924 48.5305C200.924 48.4553 200.924 48.3802 200.848 48.3802L200.317 48.2299V48.0796C200.697 48.0796 201 48.0796 201.38 48.0796C201.683 48.0796 202.063 48.0796 202.367 48.0796V48.2299L201.911 48.3802C201.835 48.3802 201.835 48.4553 201.835 48.5305C201.835 48.756 201.835 48.9814 201.835 49.2069V52.1378L204.947 48.9063V48.5305C204.947 48.4553 204.872 48.4553 204.796 48.3802L204.34 48.2299V48.0796C204.644 48.0796 205.023 48.0796 205.327 48.0796C205.631 48.0796 206.01 48.0796 206.314 48.0796V48.2299L205.782 48.3802C205.707 48.3802 205.707 48.4553 205.707 48.5305C205.707 48.6808 205.707 48.9063 205.707 49.2069V52.5887C205.707 52.8893 205.707 53.1899 205.707 53.4153C205.707 53.4905 205.782 53.4905 205.782 53.5656L206.314 53.716V53.8663C205.934 53.8663 205.555 53.8663 205.251 53.8663C204.947 53.8663 204.568 53.8663 204.264 53.8663V53.716L204.72 53.5656C204.796 53.5656 204.796 53.4905 204.796 53.4153V52.5887V49.5075L201.759 52.739Z" fill="white"/>
<path d="M213.449 52.739V53.4154C213.449 53.4905 213.525 53.5657 213.601 53.5657L214.056 53.716V53.8663C213.753 53.8663 213.373 53.8663 213.07 53.8663C212.766 53.8663 212.386 53.8663 212.007 53.8663V53.716L212.538 53.5657C212.614 53.5657 212.614 53.4905 212.614 53.4154C212.614 53.1899 212.614 52.8893 212.614 52.5887V49.2069C212.614 48.9063 212.614 48.6808 212.614 48.5305C212.614 48.4554 212.614 48.3802 212.538 48.3802L212.007 48.2299V48.0796C212.386 48.0796 212.69 48.0796 213.07 48.0796C213.373 48.0796 213.753 48.0796 214.056 48.0796V48.2299L213.601 48.3802C213.525 48.3802 213.525 48.4554 213.525 48.5305C213.525 48.756 213.525 48.9814 213.525 49.2069V52.1378L216.637 48.9063V48.5305C216.637 48.4554 216.561 48.4554 216.485 48.3802L216.03 48.2299V48.0796C216.334 48.0796 216.713 48.0796 217.017 48.0796C217.32 48.0796 217.7 48.0796 218.003 48.0796V48.2299L217.472 48.3802C217.396 48.3802 217.396 48.4554 217.396 48.5305C217.396 48.6808 217.396 48.9063 217.396 49.2069V52.5887C217.396 52.8893 217.396 53.1899 217.396 53.4154C217.396 53.4905 217.472 53.4905 217.472 53.5657L218.003 53.716V53.8663C217.624 53.8663 217.244 53.8663 216.941 53.8663C216.637 53.8663 216.258 53.8663 215.954 53.8663V53.716L216.409 53.5657C216.485 53.5657 216.485 53.4905 216.485 53.4154V52.5887V49.5075L213.449 52.739ZM214.284 46.5014V47.1026C214.284 47.1026 214.284 47.1778 214.36 47.1778C214.36 47.1778 214.436 47.2529 214.512 47.2529C214.588 47.2529 214.664 47.2529 214.739 47.2529C214.815 47.2529 214.891 47.2529 215.043 47.2529C215.119 47.2529 215.271 47.2529 215.347 47.2529C215.423 47.2529 215.499 47.2529 215.574 47.2529C215.65 47.2529 215.65 47.2529 215.726 47.1778C215.802 47.1026 215.802 47.1026 215.802 47.1026V46.5014C215.878 46.5014 215.878 46.4263 215.954 46.4263C216.03 46.4263 216.03 46.4263 216.106 46.4263C216.258 46.4263 216.334 46.5014 216.409 46.5766C216.485 46.6517 216.485 46.7269 216.485 46.8772C216.485 47.0275 216.409 47.1778 216.334 47.2529C216.258 47.3281 216.106 47.4032 215.954 47.4784C215.802 47.5535 215.65 47.5535 215.499 47.6287C215.347 47.6287 215.195 47.6287 215.043 47.6287C214.891 47.6287 214.739 47.6287 214.588 47.6287C214.436 47.6287 214.284 47.5535 214.132 47.4784C213.98 47.4032 213.905 47.3281 213.753 47.2529C213.677 47.1778 213.601 47.0275 213.601 46.8772C213.601 46.7269 213.601 46.6517 213.677 46.5766C213.753 46.5014 213.829 46.4263 213.98 46.4263C214.056 46.4263 214.056 46.4263 214.132 46.4263C214.132 46.4263 214.208 46.4263 214.284 46.5014Z" fill="white"/>
</svg>
