<svg xmlns="http://www.w3.org/2000/svg" xmlns:xlink="http://www.w3.org/1999/xlink"><symbol id="icon-phone"><path d="M10.977 8.524c-.031-.094-.229-.232-.594-.414-.098-.058-.24-.136-.421-.235-.183-.099-.348-.19-.496-.273a16.571 16.571 0 01-.419-.242 6.333 6.333 0 00-.195-.137 2.196 2.196 0 00-.277-.168A.511.511 0 008.352 7c-.104 0-.234.075-.39.223-.157.149-.3.31-.43.485-.13.174-.268.335-.414.484-.146.148-.266.223-.36.223a.531.531 0 01-.175-.04 1.82 1.82 0 01-.16-.066 2.917 2.917 0 01-.188-.11 4.815 4.815 0 00-.149-.09A8.21 8.21 0 014.25 6.75a8.206 8.206 0 01-1.36-1.836 4.527 4.527 0 00-.089-.148 2.814 2.814 0 01-.11-.188 1.692 1.692 0 01-.066-.16.529.529 0 01-.039-.176c0-.093.074-.213.223-.36.148-.145.31-.283.484-.413.175-.13.336-.274.485-.43.148-.156.222-.286.222-.39a.51.51 0 00-.054-.223 2.171 2.171 0 00-.168-.277l-.137-.196c-.078-.13-.159-.27-.242-.418a39.448 39.448 0 01-.274-.496 18.58 18.58 0 00-.234-.422C2.709.253 2.57.055 2.477.024A.438.438 0 002.313 0c-.141 0-.325.026-.551.078a3.094 3.094 0 00-.535.164C.967.352.69.67.398 1.195.133 1.685 0 2.17 0 2.65a3.017 3.017 0 00.125.859c.047.167.085.29.113.371l.16.434c.078.208.125.336.141.383.182.51.398.966.648 1.367.412.667.973 1.356 1.684 2.067.711.71 1.4 1.272 2.067 1.683.4.25.857.466 1.367.649.047.015.175.062.383.14.208.079.353.132.433.16.081.03.205.067.371.114.167.047.317.08.45.098.133.018.27.027.41.027.48 0 .964-.133 1.453-.398.526-.292.844-.568.953-.829.058-.13.112-.308.164-.535a2.57 2.57 0 00.079-.55.435.435 0 00-.024-.165z"/></symbol><symbol id="icon-pin"><path d="M9.39 1.641A5.414 5.414 0 005.5 0C4.032 0 2.65.583 1.612 1.641-.31 3.6-.55 7.284 1.094 9.517L5.5 16l4.4-6.474c1.65-2.242 1.413-5.926-.51-7.886zM5.55 7.597c-1.107 0-2.007-.918-2.007-2.045 0-1.128.9-2.046 2.007-2.046 1.107 0 2.008.918 2.008 2.046 0 1.127-.9 2.045-2.008 2.045z" fill="#171717"/></symbol></svg>